<?xml version="1.0" standalone="no"?>
<!DOCTYPE svg PUBLIC "-//W3C//DTD SVG 20010904//EN"
 "http://www.w3.org/TR/2001/REC-SVG-20010904/DTD/svg10.dtd">
<svg version="1.0" xmlns="http://www.w3.org/2000/svg"
 width="512.000000pt" height="512.000000pt" viewBox="0 0 512.000000 512.000000"
 preserveAspectRatio="xMidYMid meet">
<metadata>
Created by potrace 1.14, written by Peter Selinger 2001-2017
</metadata>
<g transform="translate(0.000000,512.000000) scale(0.100000,-0.100000)"
fill="#000000" stroke="none">
<path d="M4213 4492 c-10 -6 -50 -115 -58 -160 -2 -9 -4 -17 -5 -17 -3 0 -10
-39 -16 -87 -5 -41 -3 -47 16 -53 16 -5 26 -1 38 17 9 12 16 26 15 29 -1 4 2
22 8 40 12 39 21 78 23 99 0 8 6 21 13 28 6 7 10 22 8 34 -3 12 0 25 7 29 7 5
7 12 -3 25 -16 21 -30 26 -46 16z"/>
<path d="M3793 4478 c-6 -7 -8 -29 -6 -48 2 -19 5 -41 5 -47 1 -7 4 -13 8 -13
5 0 10 -22 13 -62 1 -10 5 -18 10 -18 4 0 6 -3 4 -7 -3 -5 0 -19 6 -33 5 -14
11 -31 13 -39 5 -25 54 -44 54 -20 0 5 4 8 8 5 11 -7 8 17 -8 74 -7 25 -13 50
-14 55 -1 6 -4 15 -8 20 -6 10 -20 71 -19 80 2 8 -29 65 -35 65 -3 0 -2 -6 2
-12 6 -10 5 -10 -8 0 -12 10 -17 10 -25 0z"/>
<path d="M3417 4247 c-19 -19 -19 -20 11 -48 17 -16 35 -29 41 -29 5 0 14 -7
19 -16 5 -9 12 -15 15 -15 20 3 27 0 27 -11 0 -7 23 -24 50 -37 27 -14 47 -28
45 -32 -4 -6 41 -19 66 -19 5 0 9 11 9 25 0 23 -34 65 -53 65 -4 0 -15 7 -24
15 -8 9 -42 34 -74 56 -32 22 -59 44 -59 49 0 5 -7 6 -17 3 -10 -4 -14 -2 -10
4 11 18 -26 10 -46 -10z"/>
<path d="M4550 4243 c-19 -15 -36 -31 -38 -35 -2 -5 -9 -8 -16 -8 -6 0 -19 -8
-28 -17 -8 -10 -31 -29 -49 -43 -18 -14 -41 -33 -51 -42 -10 -10 -18 -15 -18
-10 0 4 -4 1 -9 -6 -11 -18 9 -60 32 -66 10 -2 28 6 42 20 13 13 28 24 34 24
5 0 19 12 30 26 12 15 21 23 21 19 0 -4 11 4 25 19 14 15 25 24 25 21 0 -3 18
12 41 34 33 33 38 44 30 59 -6 11 -7 22 -4 26 3 3 -2 6 -13 6 -10 0 -35 -12
-54 -27z"/>
<path d="M2576 4202 c-2 -1 -35 -5 -72 -7 -76 -5 -167 -17 -176 -24 -2 -1 -16
-4 -33 -6 -25 -4 -154 -37 -190 -49 -5 -1 -22 -6 -37 -11 -16 -4 -28 -11 -28
-17 0 -5 -4 -7 -9 -3 -5 3 -12 1 -16 -5 -4 -6 -10 -8 -15 -5 -5 3 -11 1 -15
-5 -3 -5 -13 -10 -21 -10 -9 0 -22 -6 -30 -14 -12 -13 -12 -16 -1 -23 8 -4 17
-15 20 -23 4 -12 6 -11 6 3 1 9 7 17 15 17 21 0 76 33 76 46 0 7 11 9 26 6 17
-3 30 0 35 10 8 14 81 24 99 13 6 -4 1 -15 -12 -26 l-23 -20 32 16 c37 17 53
19 53 5 0 -5 -12 -10 -26 -10 -14 0 -23 -4 -20 -8 2 -4 -3 -8 -12 -9 -48 -3
-111 -33 -69 -33 9 0 17 -4 17 -10 0 -5 6 -10 13 -10 7 0 18 -9 25 -20 16 -27
-1 -25 -32 3 -13 12 -31 28 -40 35 -17 13 -12 37 5 27 5 -4 9 -2 9 4 0 5 9 13
20 16 11 3 20 11 20 16 0 10 -40 2 -50 -10 -3 -3 -16 -8 -30 -10 -13 -1 -33
-9 -43 -16 -18 -13 -18 -13 2 -20 31 -10 25 -25 -10 -25 -17 0 -28 4 -24 10 3
6 -5 10 -18 10 -24 0 -26 -3 -42 -62 -2 -5 -3 -15 -4 -23 0 -8 -8 -15 -16 -15
-9 0 -12 6 -8 16 5 14 0 16 -35 12 -30 -2 -42 0 -42 10 0 7 5 10 10 7 6 -3 10
3 10 14 0 12 4 21 9 21 5 0 7 -9 4 -20 -4 -13 0 -20 9 -20 17 0 48 31 48 47 0
17 -26 23 -40 10 -10 -9 -12 -8 -7 6 4 9 2 17 -4 17 -14 0 -113 -51 -120 -62
-3 -5 -8 -8 -10 -6 -8 6 -159 -94 -159 -105 0 -8 4 -7 9 2 8 12 12 12 26 -2 9
-10 20 -15 25 -12 5 3 11 1 15 -5 3 -6 -3 -10 -15 -10 -24 0 -80 -51 -80 -72
0 -10 3 -9 10 2 5 8 10 11 10 5 0 -5 6 -3 13 6 13 17 17 19 43 19 9 0 12 5 8
12 -4 7 -3 8 5 4 6 -4 9 -12 6 -17 -4 -5 -1 -9 4 -9 6 0 11 18 11 41 0 22 4
38 9 35 5 -3 11 0 14 8 6 14 54 19 62 6 3 -4 -3 -7 -13 -6 -10 0 -16 -5 -14
-14 2 -11 -1 -11 -12 3 -13 16 -14 16 -20 -8 -4 -14 -4 -30 -1 -35 3 -4 -1
-11 -7 -13 -10 -4 -10 -6 0 -6 20 -1 44 -29 32 -36 -5 -3 -10 -1 -10 4 0 6 -7
11 -15 11 -8 0 -15 -4 -15 -10 0 -10 21 -14 48 -11 6 1 12 -3 12 -9 0 -5 -4
-10 -9 -10 -15 0 -23 -32 -11 -44 8 -8 9 -6 5 5 -4 10 -2 20 4 24 6 3 11 1 11
-6 0 -8 5 -8 16 2 26 21 43 19 64 -8 10 -13 24 -22 30 -18 17 10 12 25 -12 35
-23 10 -23 10 2 7 16 -1 24 3 23 11 -2 6 2 12 7 12 6 0 10 14 10 31 0 27 2 29
15 16 8 -9 26 -14 41 -12 22 2 25 -1 20 -19 -3 -11 -6 -24 -6 -28 0 -5 -4 -8
-10 -8 -5 0 -7 6 -4 14 3 8 1 17 -5 21 -12 7 -10 -29 2 -41 9 -9 38 16 32 26
-3 5 -1 11 4 14 13 8 2 -33 -17 -68 -3 -5 0 -6 6 -2 8 5 12 -4 12 -28 0 -19
-5 -38 -10 -41 -6 -4 -4 -12 5 -21 8 -9 12 -20 9 -26 -5 -7 -11 -6 -18 3 -6 8
-20 13 -30 11 -18 -4 -18 -3 1 24 10 16 19 38 19 49 -1 17 -7 20 -45 18 -24
-1 -46 -5 -49 -8 -3 -3 -5 -23 -4 -44 2 -34 -1 -40 -25 -49 -15 -6 -45 -13
-65 -17 -21 -3 -38 -10 -38 -16 0 -6 -4 -8 -8 -5 -5 3 -15 -6 -22 -19 -7 -13
-19 -26 -27 -29 -13 -5 39 68 55 78 4 2 25 7 47 10 35 6 75 30 75 45 0 13 -16
30 -30 33 -8 2 -21 11 -28 21 -12 16 -38 15 -28 -2 3 -4 -13 -12 -35 -18 -38
-10 -39 -9 -33 11 4 11 11 27 17 34 15 19 -9 32 -44 25 -15 -3 -30 0 -34 7 -5
8 0 11 15 8 13 -2 25 2 27 9 8 24 -40 8 -72 -24 -33 -33 -55 -42 -55 -23 0 6
-11 8 -25 6 -24 -4 -37 6 -41 32 -1 6 2 10 7 6 5 -3 9 2 9 10 0 9 5 16 10 16
6 0 10 7 10 15 0 8 -2 15 -5 15 -19 0 -225 -209 -225 -228 0 -4 -10 -18 -23
-32 -32 -35 -87 -116 -87 -129 0 -6 7 -11 15 -11 8 0 15 -4 15 -10 0 -5 -4
-10 -10 -10 -5 0 -7 -8 -3 -17 6 -17 5 -17 -13 -1 -19 16 -20 16 -34 -5 -24
-38 -20 -43 40 -43 54 0 58 1 54 20 -2 12 -8 22 -14 24 -12 4 -14 32 -2 32 5
0 15 -18 22 -40 13 -40 23 -49 35 -30 3 5 15 6 28 2 25 -9 518 -7 541 1 9 4
13 15 11 28 -2 12 -1 18 3 15 4 -4 7 -13 7 -19 0 -6 11 -13 25 -17 20 -5 382
-6 412 -1 4 0 0 10 -10 22 -61 74 -61 74 -74 61 -19 -19 -28 -14 -28 18 0 20
-10 41 -30 61 -16 18 -27 35 -25 39 3 5 -1 11 -7 13 -8 4 -9 6 -2 6 7 1 20
-11 30 -26 9 -15 26 -36 36 -47 11 -12 16 -28 13 -40 -6 -20 -5 -20 6 -2 11
17 16 14 65 -40 29 -33 54 -61 54 -64 0 -6 707 -3 943 3 66 2 117 -1 117 -6 0
-6 5 -6 13 0 9 7 402 11 402 3 0 -1 11 -4 25 -6 14 -3 44 -14 67 -25 23 -11
46 -21 50 -22 4 -1 19 -13 33 -27 14 -15 34 -29 44 -33 10 -4 16 -10 13 -13
-7 -7 -2 -12 56 -61 21 -18 35 -33 32 -33 -4 0 8 -12 27 -27 18 -15 43 -39 55
-53 13 -14 23 -21 23 -17 0 16 71 -76 85 -109 16 -38 17 -93 2 -111 -6 -9 -5
-13 4 -13 12 0 12 -2 1 -9 -8 -4 -14 -12 -13 -17 1 -20 -12 -54 -20 -54 -5 0
-9 -7 -9 -15 0 -8 -5 -15 -10 -15 -6 0 -9 -3 -8 -7 3 -9 -43 -64 -86 -102 -89
-81 -99 -89 -176 -137 -70 -44 -100 -58 -114 -55 -4 1 -14 -4 -22 -10 -8 -6
-14 -9 -14 -6 0 3 -14 2 -31 -3 -17 -5 -107 -10 -200 -11 -93 -1 -169 -3 -169
-5 0 -8 41 -44 50 -44 6 0 10 -4 10 -9 0 -14 37 -24 95 -26 65 -3 122 -32 168
-87 20 -24 37 -46 37 -50 0 -3 17 -12 37 -19 20 -6 57 -21 82 -32 25 -12 49
-20 54 -19 4 1 7 -2 7 -6 0 -5 6 -9 13 -10 23 -1 56 -11 77 -22 11 -6 25 -8
30 -5 6 3 10 2 10 -3 0 -5 13 -15 28 -21 17 -7 28 -19 27 -29 -2 -29 -45 -110
-61 -116 -8 -3 -12 -10 -9 -16 3 -5 2 -10 -3 -10 -4 0 -27 -23 -50 -51 -23
-29 -42 -48 -42 -43 0 19 -69 -122 -70 -143 0 -37 -11 -52 -51 -75 -21 -12
-39 -28 -39 -35 0 -7 -5 -13 -11 -13 -6 0 -7 -5 -2 -12 4 -7 9 -22 10 -33 2
-11 8 -21 12 -23 10 -3 1 -40 -20 -85 -12 -27 -49 -45 -68 -33 -5 4 -29 -15
-53 -40 -39 -42 -43 -51 -43 -96 0 -46 -3 -53 -37 -81 -29 -23 -51 -31 -93
-35 -46 -4 -55 -2 -55 12 0 9 -4 16 -9 16 -9 0 -38 87 -47 140 -3 14 -7 32
-11 40 -9 22 -14 42 -18 65 -1 11 -6 28 -10 38 -4 9 -5 24 -1 32 3 8 2 15 -2
15 -5 0 -8 10 -8 23 0 12 -3 37 -7 55 -4 18 -2 32 3 32 6 0 11 -10 12 -22 1
-22 4 -38 8 -48 2 -5 10 -73 13 -112 1 -10 4 -18 8 -18 4 0 9 -12 12 -28 3
-15 11 -47 17 -72 5 -25 12 -55 14 -67 2 -11 12 -36 23 -55 22 -38 60 -48 102
-26 52 26 64 45 66 100 1 29 7 54 13 56 7 2 12 8 12 13 0 6 20 30 44 54 29 28
47 56 51 79 4 19 13 37 20 40 17 6 13 -20 -9 -63 -20 -38 -20 -40 2 -36 9 2
20 4 23 4 13 2 41 80 33 93 -5 7 -9 15 -10 18 0 3 -4 13 -8 23 -13 29 3 67 35
85 53 29 58 36 61 75 1 20 6 37 10 37 4 0 7 3 6 8 -4 15 46 97 79 129 20 18
33 33 31 33 -3 0 12 19 34 43 36 38 67 91 74 125 3 16 -62 47 -133 63 -29 7
-53 15 -53 19 0 7 -8 10 -48 20 -4 1 -16 7 -27 13 -11 6 -23 12 -27 13 -5 1
-11 3 -15 4 -5 1 -13 3 -20 4 -13 1 -103 94 -103 106 0 17 -98 49 -147 48 -45
0 -91 17 -113 42 -5 6 -94 41 -120 48 -8 2 -44 4 -80 5 l-65 1 -2 -227 -2
-228 37 -16 c47 -20 90 -55 84 -71 -2 -7 1 -12 8 -12 6 0 8 -4 5 -10 -3 -5 -2
-10 3 -10 5 0 9 -6 10 -12 5 -46 12 -147 12 -167 0 -13 4 -39 9 -58 5 -18 6
-33 1 -33 -10 0 -23 52 -25 105 -1 22 -3 42 -5 45 -1 3 -4 21 -6 40 -4 49 -13
90 -24 111 -14 25 -64 59 -87 59 -21 0 -20 94 -12 -933 3 -405 -5 -374 91
-336 79 31 93 37 98 37 19 3 233 119 289 157 24 17 53 35 63 41 24 14 86 63
110 87 10 9 18 15 18 12 0 -3 10 4 23 17 13 13 39 37 58 53 19 17 46 45 62 64
15 18 27 29 27 24 0 -4 12 9 27 30 14 20 30 37 35 37 4 0 8 6 8 13 0 7 9 18
20 25 11 7 20 17 20 23 0 7 10 20 22 30 11 11 17 19 12 19 -5 0 -2 5 6 10 8 5
15 13 15 17 0 5 6 15 13 23 37 44 171 288 180 330 2 7 10 29 19 49 9 20 17 43
17 51 1 8 6 22 11 30 5 8 10 22 10 30 0 8 3 20 7 25 3 6 10 28 14 50 10 49 9
47 18 66 4 9 6 20 5 25 -1 5 0 11 1 14 5 13 15 79 25 154 2 21 7 41 9 43 3 3
1 16 -4 29 -5 13 -6 26 -1 28 7 5 8 341 1 341 -1 0 -4 21 -6 46 -2 26 -11 77
-19 115 -9 38 -19 87 -22 109 -3 22 -8 42 -12 45 -4 3 -6 12 -6 20 1 8 -3 21
-8 28 -5 6 -6 12 -2 12 4 0 3 6 -3 13 -6 7 -13 24 -16 37 -8 42 -47 143 -67
176 -10 17 -16 34 -13 37 3 3 -3 16 -15 28 -12 13 -21 28 -21 34 0 7 -11 29
-25 49 -13 20 -22 36 -19 36 3 0 -1 6 -8 14 -7 7 -20 24 -28 36 -8 12 -23 31
-32 42 -34 39 -32 56 11 101 39 40 77 106 88 151 12 53 11 140 -2 166 -8 15
-12 30 -9 33 7 6 -57 107 -68 107 -4 0 -18 11 -32 25 -14 14 -32 25 -41 25 -8
0 -15 4 -15 9 0 10 -18 17 -62 27 -41 9 -158 12 -158 4 0 -5 -8 -7 -17 -5 -10
1 -22 0 -28 -4 -10 -6 -16 -7 -34 -10 -6 0 -23 -12 -38 -26 -68 -61 -91 -84
-88 -87 2 -2 -5 -14 -16 -28 -18 -23 -20 -24 -33 -8 -7 10 -16 15 -19 11 -4
-3 -7 0 -7 7 0 7 -3 11 -6 7 -3 -3 -29 8 -57 25 -29 17 -56 31 -62 32 -5 1
-32 12 -59 24 -26 12 -52 19 -57 16 -5 -3 -9 -2 -9 3 0 15 -96 48 -245 84 -44
11 -89 22 -100 25 -11 3 -35 6 -52 6 -18 1 -33 4 -33 8 0 3 -15 7 -32 8 -18 1
-53 5 -78 8 -52 6 -299 12 -304 6z m-221 -113 c-41 -9 -70 -10 -62 -3 10 10
71 21 82 15 6 -3 -3 -9 -20 -12z m100 6 c51 -10 60 -15 44 -26 -12 -8 -11 -11
1 -19 8 -6 27 -13 43 -17 31 -6 37 -23 7 -20 -11 1 -20 4 -20 8 0 4 -13 10
-29 14 -16 3 -33 16 -39 30 -8 17 -20 25 -36 25 -14 0 -27 4 -30 9 -4 5 0 8 6
7 7 -2 31 -6 53 -11z m-371 -63 c3 -5 -1 -9 -9 -9 -8 0 -12 4 -9 9 3 4 7 8 9
8 2 0 6 -4 9 -8z m503 -61 c-9 -31 -7 -45 6 -72 15 -32 15 -35 0 -46 -9 -7
-26 -13 -38 -13 -19 0 -52 -36 -42 -47 9 -8 -32 -43 -50 -43 -9 0 -14 -3 -11
-6 4 -3 2 -20 -4 -37 -5 -18 -10 -40 -10 -49 1 -30 -18 -20 -19 10 -1 15 0 32
1 37 2 6 4 17 5 25 4 28 17 50 29 49 6 -1 16 -1 22 0 14 1 37 51 24 51 -6 0
-10 4 -10 9 0 5 17 11 38 15 55 9 69 20 49 40 -10 11 -14 26 -10 44 3 15 7 38
8 52 3 32 3 32 14 26 4 -3 4 -23 -2 -45z m-487 29 c0 -5 -2 -10 -4 -10 -3 0
-8 5 -11 10 -3 6 -1 10 4 10 6 0 11 -4 11 -10z m122 -80 c39 -44 47 -73 33
-113 -12 -34 -11 -40 10 -70 12 -17 27 -31 33 -29 7 1 12 -2 12 -7 0 -5 16
-25 36 -45 22 -22 29 -34 18 -29 -11 3 -38 25 -61 49 -23 23 -44 40 -47 38 -3
-2 -4 -1 -1 2 2 4 -3 13 -11 22 -11 11 -14 24 -9 46 15 62 9 95 -20 126 -16
17 -24 30 -19 30 5 0 17 -9 26 -20z m-312 -5 c0 -8 5 -15 11 -15 5 0 7 -5 3
-11 -4 -8 -11 -4 -18 10 -7 12 -16 18 -21 14 -4 -4 -5 -2 -1 5 10 17 26 15 26
-3z m1081 -100 c14 9 37 -6 35 -23 -4 -22 -52 -34 -66 -16 -10 11 -16 9 -34
-11 -25 -27 -89 -45 -80 -22 2 7 15 14 27 14 26 2 58 38 51 58 -5 11 0 12 27
5 17 -5 35 -7 40 -5z m-1101 -37 c0 -8 -15 -12 -39 -8 -9 1 -12 -4 -7 -16 6
-14 4 -15 -9 -4 -15 12 -14 15 5 25 25 14 50 15 50 3z m-110 -18 c0 -5 -4 -10
-10 -10 -5 0 -10 5 -10 10 0 6 5 10 10 10 6 0 10 -4 10 -10z m30 0 c0 -5 -4
-10 -10 -10 -5 0 -10 5 -10 10 0 6 5 10 10 10 6 0 10 -4 10 -10z m240 -12 c0
-11 -12 -10 -30 2 -12 7 -10 9 8 7 12 0 22 -5 22 -9z m60 -39 c0 -6 4 -8 9 -4
5 3 12 1 15 -3 3 -5 -8 -19 -24 -31 l-30 -21 10 24 c11 29 2 42 -14 20 -10
-13 -12 -13 -12 5 0 12 4 21 9 21 4 0 5 5 1 11 -4 8 0 8 15 0 11 -7 21 -16 21
-22z m925 4 c15 -21 9 -44 -11 -36 -8 3 -11 9 -8 14 10 16 -28 23 -40 7 -6 -8
-17 -13 -25 -10 -9 3 -7 10 10 27 27 25 55 24 74 -2z m-1390 -15 c5 -4 0 -6
-13 -5 -22 1 -27 8 -15 20 3 4 9 4 12 0 3 -4 10 -11 16 -15z m55 2 c0 -5 -4
-10 -9 -10 -5 0 -7 -9 -4 -20 6 -24 -22 -28 -31 -5 -3 8 -1 15 5 15 6 0 9 7 5
15 -4 10 1 15 14 15 11 0 20 -4 20 -10z m-77 -22 c20 1 33 -21 22 -38 -5 -8
-12 -7 -24 4 -10 9 -20 14 -22 11 -3 -2 -11 5 -18 17 -12 19 -11 20 6 13 10
-4 26 -7 36 -7z m441 -74 c-10 -8 -14 -13 -7 -10 14 7 27 -10 14 -18 -5 -3
-16 -3 -25 0 -12 5 -13 9 -3 25 6 10 18 19 26 19 11 0 10 -4 -5 -16z m56 -54
c-8 -15 -8 -20 2 -21 10 0 10 -2 0 -6 -6 -2 -10 -9 -6 -14 3 -5 2 -9 -3 -10
-4 0 -18 -2 -31 -5 -27 -5 -62 11 -62 29 0 9 2 9 8 0 9 -15 52 -9 63 9 4 7 5
16 2 22 -3 5 -1 6 5 2 7 -4 12 -2 12 3 0 6 5 11 10 11 7 0 7 -6 0 -20z m-195
2 c-5 -4 -11 -12 -12 -19 -11 -57 -12 -73 -3 -78 7 -4 7 -13 0 -26 -17 -30
-30 -22 -27 16 1 19 4 35 7 35 3 0 6 8 7 18 1 13 7 42 12 60 1 1 7 2 14 2 7 0
8 -3 2 -8z m-255 -86 c0 -3 -4 -8 -10 -11 -5 -3 -10 -1 -10 4 0 6 5 11 10 11
6 0 10 -2 10 -4z"/>
<path d="M1580 3829 c9 -31 9 -31 -10 -14 -11 10 -20 13 -20 8 0 -6 7 -16 16
-23 12 -11 18 -10 32 3 10 11 12 17 4 17 -7 0 -12 6 -12 14 0 8 -4 17 -9 21
-6 3 -6 -7 -1 -26z"/>
<path d="M4450 3839 c0 -6 -4 -8 -8 -5 -5 3 -9 -8 -10 -24 -1 -38 7 -40 173
-42 166 -1 162 -2 168 22 6 24 -19 54 -39 46 -8 -3 -14 -1 -14 4 0 6 -9 6 -25
0 -16 -6 -25 -6 -25 1 0 6 -7 6 -19 -1 -13 -7 -22 -7 -26 0 -4 6 -13 7 -23 1
-9 -5 -26 -5 -37 -1 -11 4 -30 4 -41 -1 -12 -4 -24 -6 -27 -3 -10 10 -47 12
-47 3z"/>
<path d="M1527 3753 c7 -18 33 -17 33 1 0 8 -8 14 -19 13 -11 0 -17 -6 -14
-14z"/>
<path d="M1915 3760 c3 -5 8 -10 11 -10 2 0 4 5 4 10 0 6 -5 10 -11 10 -5 0
-7 -4 -4 -10z"/>
<path d="M1900 3720 c0 -5 5 -10 11 -10 5 0 7 5 4 10 -3 6 -8 10 -11 10 -2 0
-4 -4 -4 -10z"/>
<path d="M1816 3702 c-3 -6 -1 -14 5 -17 14 -9 20 -2 10 14 -6 8 -11 9 -15 3z"/>
<path d="M4373 3593 c-4 -10 -10 -20 -14 -23 -11 -7 62 -99 79 -100 6 0 12 -4
12 -10 0 -5 23 -33 51 -61 57 -57 96 -68 110 -32 7 19 -7 36 -99 130 -59 59
-113 109 -120 111 -7 1 -15 -6 -19 -15z"/>
<path d="M3266 3223 c-1 -2 -288 -5 -637 -8 -964 -8 -1826 -16 -2001 -17 -168
-2 -168 -2 -116 -48 19 -17 274 -261 404 -386 46 -45 86 -79 89 -76 3 3 5 -3
5 -13 0 -10 3 -16 6 -13 3 3 32 -20 64 -52 32 -32 61 -55 64 -52 3 3 6 -2 6
-11 0 -9 4 -17 9 -17 6 0 24 -13 41 -29 30 -27 88 -51 124 -51 9 0 16 -3 16
-7 0 -5 44 -7 97 -6 350 7 733 10 734 4 0 -3 3 -170 5 -371 2 -201 5 -418 6
-483 2 -64 0 -117 -4 -117 -4 0 -3 -12 3 -27 7 -19 7 -29 0 -31 -6 -2 -8 -8
-5 -14 4 -6 8 -126 10 -267 2 -141 3 -268 4 -282 0 -18 17 -43 58 -82 31 -31
118 -115 192 -187 74 -73 162 -157 195 -188 33 -30 104 -97 158 -149 54 -51
101 -93 105 -93 4 0 21 20 37 45 17 24 34 45 38 45 5 0 5 5 2 10 -3 6 -2 10 4
10 5 0 13 9 16 20 4 11 11 18 16 15 5 -4 9 1 9 9 0 9 5 16 12 16 6 0 8 3 5 6
-4 4 7 23 24 43 16 20 35 42 41 49 6 8 12 31 13 52 1 20 5 42 8 47 4 6 3 13 0
17 -4 4 -8 145 -9 314 -9 1131 -13 1464 -17 1469 -3 3 -2 16 3 29 5 13 6 24 2
24 -11 0 -9 80 3 81 5 1 141 3 300 4 266 3 396 9 435 18 37 8 90 32 90 40 0 4
4 6 9 2 6 -3 14 3 20 12 6 10 11 14 11 10 0 -7 41 21 99 68 93 76 183 196 172
230 -2 6 -5 17 -6 25 -2 8 -4 16 -5 18 -2 1 -3 6 -4 11 -1 9 -155 161 -163
161 -2 0 -33 28 -69 62 -35 34 -72 67 -82 72 -9 5 -20 14 -24 20 -4 6 -8 7 -8
3 0 -4 -10 -2 -22 5 -17 9 -100 12 -306 13 -156 0 -285 -1 -286 -2z"/>
<path d="M822 2688 c0 -7 -3 -26 -7 -43 -18 -79 -28 -455 -12 -455 4 0 6 -4 3
-9 -6 -9 20 -197 30 -221 4 -8 8 -26 9 -40 1 -14 3 -25 4 -25 3 0 11 -32 16
-62 2 -12 7 -28 11 -35 5 -7 9 -15 10 -18 13 -68 130 -337 160 -368 7 -6 16
-22 20 -35 4 -12 10 -24 13 -27 4 -3 18 -23 31 -45 13 -22 31 -45 40 -52 8 -7
12 -13 7 -13 -6 0 24 -38 61 -76 7 -8 10 -14 6 -14 -5 0 9 -16 29 -35 20 -19
35 -35 33 -35 -15 0 194 -191 240 -220 13 -8 24 -18 24 -22 0 -5 6 -8 13 -8 7
0 20 -9 30 -20 9 -11 24 -20 32 -20 8 0 15 -4 15 -8 0 -5 12 -15 28 -23 15 -8
29 -17 32 -20 3 -3 30 -18 60 -33 30 -15 62 -31 70 -35 64 -33 83 -41 96 -41
8 0 14 -4 14 -10 0 -5 6 -10 14 -10 8 0 35 -9 60 -20 33 -14 47 -16 48 -7 6
43 1 727 -5 727 -5 0 -5 5 -1 12 8 13 8 144 -1 157 -3 5 -1 12 5 16 7 4 7 12
0 25 -7 13 -7 21 0 25 6 4 8 11 4 16 -3 6 -6 41 -6 79 0 63 -2 70 -32 97 -17
16 -42 35 -54 42 -31 16 -72 52 -72 63 0 7 24 -10 55 -39 7 -7 15 -10 18 -7 2
3 21 -11 41 -30 20 -20 37 -32 38 -28 5 26 2 432 -4 433 -10 2 -32 2 -62 0
-23 -1 -76 -45 -76 -63 0 -5 4 -7 9 -4 4 3 8 -15 7 -39 -1 -43 -30 -95 -44
-80 -4 4 2 13 12 21 11 8 16 14 12 14 -5 0 -4 6 1 13 12 16 9 57 -5 66 -8 5
-5 17 8 38 14 23 31 35 62 44 79 21 85 26 83 72 -1 32 -7 45 -23 53 -25 12
-19 26 6 16 14 -5 15 -4 2 10 -8 9 -17 12 -18 7 -2 -5 -8 -7 -13 -3 -5 3 -9 1
-9 -4 0 -5 -7 -9 -15 -9 -10 0 -12 4 -5 12 8 9 4 11 -16 7 -16 -3 -21 -7 -14
-12 7 -4 1 -7 -15 -7 -16 0 -22 3 -15 7 16 10 -27 17 -60 10 -34 -7 -33 -37 3
-79 15 -19 26 -38 24 -44 -6 -19 -38 -16 -60 7 -52 52 -83 65 -153 69 -38 2
-87 12 -108 21 -28 11 -66 16 -130 15 -50 0 -109 3 -131 6 -49 8 -136 47 -154
69 -7 9 -17 16 -21 16 -4 0 -35 26 -68 58 -33 31 -84 79 -113 106 -30 27 -70
64 -90 83 -20 19 -36 28 -37 21z m1063 -728 c-3 -5 -13 -10 -21 -10 -8 0 -12
5 -9 10 3 6 13 10 21 10 8 0 12 -4 9 -10z m-13 -44 c-2 -10 0 -16 5 -13 5 3 9
-8 9 -24 2 -38 -2 -37 -22 9 -10 20 -19 41 -22 45 -2 5 4 7 14 5 12 -2 18 -11
16 -22z"/>
<path d="M3434 2335 c21 -16 32 -13 21 4 -3 6 -14 11 -23 11 -15 -1 -15 -2 2
-15z"/>
<path d="M1610 2325 c6 -7 37 -11 77 -10 38 1 73 -3 80 -7 8 -7 10 -3 6 11 -5
18 -13 20 -89 19 -61 -1 -81 -5 -74 -13z"/>
</g>
</svg>
