<svg width="24" height="24" viewBox="0 0 24 24" fill="none" xmlns="http://www.w3.org/2000/svg" class="fill-light-1">
<path fill-rule="evenodd" clip-rule="evenodd" d="M21.1222 3.2737C21.2294 3.38101 21.3015 3.5183 21.3291 3.66747C21.3567 3.81663 21.3384 3.97065 21.2767 4.10921L12.7912 23.2012C12.7319 23.3347 12.6349 23.448 12.5121 23.5272C12.3893 23.6064 12.2461 23.6479 12.1 23.6468C11.9539 23.6457 11.8113 23.6019 11.6897 23.5209C11.5682 23.4399 11.4729 23.3251 11.4157 23.1907L8.35416 16.0417L1.20366 12.9787C1.06974 12.9211 0.955519 12.8257 0.874953 12.7042C0.794386 12.5828 0.750971 12.4404 0.750016 12.2946C0.749061 12.1489 0.790609 12.006 0.869576 11.8835C0.948544 11.7609 1.06151 11.6641 1.19466 11.6047L20.2867 3.1192C20.425 3.05778 20.5787 3.03966 20.7276 3.06724C20.8765 3.09481 21.0135 3.16679 21.1207 3.2737H21.1222Z"></path>
</svg>