<svg xmlns="http://www.w3.org/2000/svg" xmlns:xlink="http://www.w3.org/1999/xlink" viewBox="0 0 200 200"><defs><linearGradient id="n" x1="25.837" x2="40.409" y1="100.218" y2="100.218" xlink:href="#a"/><linearGradient id="b" x1="97.95" x2="181.357" y1="116.705" y2="116.705" gradientUnits="userSpaceOnUse"><stop offset="0" stop-color="#fff"/><stop offset=".25" stop-color="#fdfdfd"/><stop offset=".387" stop-color="#f5f5f5"/><stop offset=".497" stop-color="#e7e7e7"/><stop offset=".592" stop-color="#d3d3d3"/><stop offset=".678" stop-color="#bababa"/><stop offset=".758" stop-color="#9b9b9b"/><stop offset=".832" stop-color="#767676"/><stop offset=".902" stop-color="#4b4b4b"/><stop offset=".967" stop-color="#1c1c1c"/><stop offset="1"/></linearGradient><linearGradient id="e" x1="38.241" x2="135.004" y1="65.375" y2="65.375" xlink:href="#b"/><linearGradient id="a" x1="333.32" x2="338.745" y1="235.279" y2="247.438" gradientTransform="scale(-1 1) rotate(-25.361 -112.21 1267.848)" gradientUnits="userSpaceOnUse"><stop offset="0" stop-color="#fff"/><stop offset=".178" stop-color="#cdcdcd"/><stop offset=".587" stop-color="#606060"/><stop offset=".869" stop-color="#1b1b1b"/><stop offset="1"/></linearGradient><linearGradient id="f" x1="313.692" x2="326.834" y1="239.654" y2="239.654" xlink:href="#a"/><linearGradient id="g" x1="324.58" x2="334.4" y1="230.227" y2="241.17" xlink:href="#a"/><linearGradient id="h" x1="39.148" x2="40.735" y1="163.254" y2="170.659" xlink:href="#a"/><linearGradient id="i" x1="40.17" x2="43.377" y1="163.689" y2="163.689" xlink:href="#a"/><linearGradient id="j" x1="43.578" x2="43.786" y1="163.364" y2="167.123" xlink:href="#a"/><linearGradient id="k" x1="107.97" x2="158.823" y1="116.433" y2="116.433" xlink:href="#a"/><linearGradient id="l" x1="27.022" x2="30.19" y1="108.537" y2="108.537" xlink:href="#a"/><linearGradient id="m" x1="32.97" x2="36.15" y1="105.216" y2="105.216" xlink:href="#a"/><linearGradient id="d" x1="15.967" x2="73.85" y1="129.581" y2="129.581" xlink:href="#b"/><linearGradient id="o" x1="38.931" x2="42.111" y1="102.283" y2="102.283" xlink:href="#a"/><linearGradient id="p" x1="42.756" x2="43.894" y1="96.41" y2="96.41" xlink:href="#a"/><linearGradient id="q" x1="48.353" x2="49.667" y1="108.642" y2="108.642" xlink:href="#a"/><linearGradient id="r" x1="59.02" x2="69.325" y1="58.226" y2="70.04" xlink:href="#a"/><linearGradient id="s" x1="85.849" x2="97.283" y1="136.4" y2="164.66" gradientUnits="userSpaceOnUse"><stop offset="0" stop-color="#fff"/><stop offset=".115" stop-color="#fbfbfb"/><stop offset=".239" stop-color="#eee"/><stop offset=".368" stop-color="#d8d8d8"/><stop offset=".5" stop-color="#bababa"/><stop offset=".634" stop-color="#939393"/><stop offset=".77" stop-color="#636363"/><stop offset=".905" stop-color="#2b2b2b"/><stop offset="1"/></linearGradient><linearGradient id="c" x1="81.159" x2="95.301" y1="114.537" y2="140.088" gradientUnits="userSpaceOnUse"><stop offset="0" stop-color="#fff"/><stop offset=".143" stop-color="#cfcfcf"/><stop offset=".38" stop-color="#878787"/><stop offset=".593" stop-color="#4d4d4d"/><stop offset=".774" stop-color="#232323"/><stop offset=".915" stop-color="#090909"/><stop offset="1"/></linearGradient><linearGradient id="t" x1="66.17" x2="99.924" y1="131.908" y2="155.668" gradientUnits="userSpaceOnUse"><stop offset="0" stop-color="#fff"/><stop offset=".094" stop-color="#f9f9f9"/><stop offset=".219" stop-color="#e9e9e9"/><stop offset=".361" stop-color="#cdcdcd"/><stop offset=".515" stop-color="#a7a7a7"/><stop offset=".679" stop-color="#767676"/><stop offset=".849" stop-color="#3b3b3b"/><stop offset="1"/></linearGradient><linearGradient id="u" x1="83.763" x2="110.823" y1="142.059" y2="168.46" xlink:href="#c"/><linearGradient id="v" x1="90.781" x2="108.507" y1="111.159" y2="146.705" xlink:href="#c"/><linearGradient id="w" x1="94.839" x2="120.014" y1="122.461" y2="140.753" xlink:href="#c"/><linearGradient id="x" x1="98.911" x2="95.297" y1="110.907" y2="108.235" gradientUnits="userSpaceOnUse"><stop offset="0" stop-color="#fff"/><stop offset=".07" stop-color="#e0e0e0"/><stop offset=".215" stop-color="#a5a5a5"/><stop offset=".359" stop-color="#737373"/><stop offset=".5" stop-color="#494949"/><stop offset=".636" stop-color="#292929"/><stop offset=".768" stop-color="#131313"/><stop offset=".892" stop-color="#050505"/><stop offset="1"/></linearGradient><linearGradient id="y" x1="98.5" x2="94.792" y1="112.012" y2="103.024" gradientUnits="userSpaceOnUse"><stop offset="0" stop-color="#fff"/><stop offset=".154" stop-color="#fcfcfc"/><stop offset=".283" stop-color="#f1f1f1"/><stop offset=".403" stop-color="#e0e0e0"/><stop offset=".519" stop-color="#c7c7c7"/><stop offset=".63" stop-color="#a7a7a7"/><stop offset=".739" stop-color="gray"/><stop offset=".845" stop-color="#525252"/><stop offset=".947" stop-color="#1e1e1e"/><stop offset="1"/></linearGradient></defs><g data-name="Layer 1"><g data-name="Productivity Business"><path fill="#f1eff8" d="M154.094 149.615a12.895 12.895 0 0 1-2.23 1.82 13.43 13.43 0 0 1-1.642.973 10.79 10.79 0 0 1-.74.34 23.903 23.903 0 0 1-4.716 1.537 40.988 40.988 0 0 1-5.116.798c-.68.07-1.36.13-2.065.165-.223.023-.457.035-.68.046q-.845.053-1.725.07c-.88.036-1.772.048-2.687.06-5.327.035-11.194-.306-17.33-.67-1.408-.07-2.84-.152-4.271-.222-2.629-.141-5.28-.27-7.955-.352h-.012c-.517-.012-1.044-.036-1.572-.036a110.903 110.903 0 0 0-3.427-.058c-.469-.012-.95-.012-1.431-.012h-.528a119.932 119.932 0 0 0-12.379.645A75.769 75.769 0 0 0 75 156.127a14.794 14.794 0 0 1-7.509.106c-9.035-2.628-9.387-16.544-32.935-22.012-14.198-3.297-19.267-11.944-18.516-21.038v-.011c.786-9.27 7.603-18.997 16.931-23.948a22.67 22.67 0 0 0 6.055-4.33c7.275-7.861-5.362-15.054 1.15-28.829 8.589-18.175 47.309.106 59.253-13.74 13.294-15.417 27.104-12.343 35.33-5.667 4.54 3.684 7.38 8.472 7.485 11.827.282 9.422-8.577 15.958 24.863 27.539 6.067 2.1 9.892 5.432 12.039 9.586v.012c9.703 18.714-15.066 53.774-25.05 63.993Z"/><path fill="url(#b)" style="mix-blend-mode:overlay" d="M154.094 149.615c-8.483 8.695-29.427 5.245-51.157 4.565h-.012a53.632 53.632 0 0 1 76.22-68.57v.012c9.703 18.714-15.066 53.774-25.05 63.993Z" opacity=".5"/><path fill="url(#d)" style="mix-blend-mode:overlay" d="M73.85 136.568a33.336 33.336 0 0 1-6.36 19.665c-9.035-2.628-9.387-16.544-32.935-22.012-14.198-3.297-19.267-11.944-18.516-21.038 0 0-.012-.011 0-.011a33.64 33.64 0 0 1 57.81 23.396Z" opacity=".5"/><path fill="url(#e)" style="mix-blend-mode:overlay" d="M135.004 41.997a57.576 57.576 0 0 1-95.98 42.897c7.276-7.861-5.361-15.054 1.15-28.829 8.59-18.175 47.31.106 59.254-13.74 13.294-15.417 27.104-12.343 35.33-5.667.164 1.76.246 3.544.246 5.339Z" opacity=".5"/><path fill="#7df9ff" d="M154.04 125.575a7.174 7.174 0 0 1 1.994 4.007 22.693 22.693 0 0 1 2.413-4.887c-3.457-3.082-7.623-1.289-9.148-3.92-.85-1.468 3.827-5.589 7.37-2.264a8.276 8.276 0 0 1 2.253 5.457c.875-1.316 1.86-2.653 2.903-4.053-2.383-3.278-6.278-2.52-7.093-5.053-.454-1.414 4.313-4.067 6.724-.565a7.106 7.106 0 0 1 .944 4.846c.75-1.004 1.526-2.056 2.311-3.155-.04-3.865-3.198-6.01-2.063-8.492.68-1.486 6.527-.104 5.887 4.534a7.93 7.93 0 0 1-2.979 4.765c-.768 1.07-1.526 2.1-2.259 3.08a6.068 6.068 0 0 1 2.905-1.153c4.232-.41 5.27 4.946 3.896 5.509-2.46 1.006-4.386-2.454-8.418-2.176a49.467 49.467 0 0 0-2.958 4.406 8.373 8.373 0 0 1 5.682-2.043c4.84.427 4.884 6.661 3.223 7.005-3.04.629-4.477-3.862-9.308-4.234a14.712 14.712 0 0 0-1.907 6.531 8.157 8.157 0 0 1 4.918-3.547c4.54-.787 6.097 4.916 4.658 5.635-2.636 1.317-5.05-2.462-9.581-1.613a14.398 14.398 0 0 0 .266 2.759 35.186 35.186 0 0 1 .585 4.81 6.42 6.42 0 0 1 3.581-2.667c3.738-.871 5.306 3.797 4.144 4.464-2.06 1.183-4.175-1.62-7.688-.966a38.776 38.776 0 0 1-.344 6.54 4.368 4.368 0 0 1 2.13-1.3c2.885-.674 4.096 2.93 3.199 3.445-1.512.867-3.062-1.04-5.54-.798a23.483 23.483 0 0 1-.436 2.017.577.577 0 0 1-.654.415.538.538 0 0 1-.059-.013.578.578 0 0 1-.401-.712 29.724 29.724 0 0 0 .687-3.85c-2.455-1.572-4.801.031-6.026-1.396-.674-.785 1.67-3.777 4.165-2.18a4.978 4.978 0 0 1 1.935 2.932 37.539 37.539 0 0 0 .024-7.523c-3.204-2.11-6.276.01-7.874-1.85-.873-1.018 2.164-4.895 5.396-2.825a6.02 6.02 0 0 1 2.276 3.064c-.069-.458-.145-.92-.236-1.388a14.487 14.487 0 0 1 .031-5.882c-3.246-2.73-7.095-1.115-8.517-3.57-.807-1.391 3.629-5.299 6.988-2.146Z"/><path fill="#87e3e8" d="M157.953 146.468a4.11 4.11 0 0 1-.043 2.9 30.992 30.992 0 0 0 3.513-5.121c-1.206-2.929-4.286-2.91-4.511-4.923-.124-1.1 3.75-2.333 4.994.581a4.97 4.97 0 0 1 .128 3.149c.167-.345.329-.696.484-1.057a11.955 11.955 0 0 1 2.772-4.014c-.904-3.463-4.348-4.143-4.176-6.503.096-1.324 4.939-1.929 5.766 1.783a6.041 6.041 0 0 1-.6 3.868 18.51 18.51 0 0 1 4.023-2.294c-.926-3.71-4.602-4.423-4.42-6.927.102-1.397 5.21-2.034 6.081 1.88a6.83 6.83 0 0 1-1 4.771c1.21-.491 2.502-.946 3.865-1.416-.102-3.344-3.112-4.637-2.49-6.744.347-1.176 4.832-.77 4.85 2.74a5.868 5.868 0 0 1-1.608 3.745 148.86 148.86 0 0 0 3.042-1.079c1.77-2.655.611-5.587 2.54-6.752 1.154-.699 4.5 2.962 1.909 5.828a6.545 6.545 0 0 1-4.247 1.867c-1.021.374-2.017.723-2.972 1.052a5.01 5.01 0 0 1 2.517.563c3.078 1.688 1.297 5.824.098 5.57-2.146-.457-1.852-3.713-4.732-5.398a40.864 40.864 0 0 0-4.066 1.632 6.912 6.912 0 0 1 4.826 1.247c3.103 2.54.236 6.814-1.057 6.277-2.365-.984-1.26-4.716-4.383-7.215a12.146 12.146 0 0 0-4.336 3.57 6.734 6.734 0 0 1 5.004-.135c3.463 1.573 1.875 6.188.559 6.01-2.41-.327-2.301-4.027-5.787-5.553a11.895 11.895 0 0 0-1.1 2.005 29.057 29.057 0 0 1-1.837 3.554 5.299 5.299 0 0 1 3.682-.155c2.955 1.142 1.856 5.056.753 4.971-1.956-.15-2.095-3.046-4.796-4.232a32.007 32.007 0 0 1-3.274 4.302 3.606 3.606 0 0 1 2.057.103c2.281.882 1.433 3.903.581 3.837-1.434-.11-1.606-2.132-3.408-3.119a19.42 19.42 0 0 1-1.236 1.174.476.476 0 0 1-.639-.021.429.429 0 0 1-.033-.037.477.477 0 0 1 .057-.672 24.542 24.542 0 0 0 2.258-2.307c-.944-2.214-3.29-2.21-3.463-3.753-.095-.85 2.895-1.801 3.855.448Z"/><path fill="#f79cbd" d="M143.628 140.958c1.019 13.337 14.575 19.763 15.619 14.191.823-4.452-.026-7.199-1.63-9.17-3.093-3.771-8.957-4.632-10.807-9.18a10.57 10.57 0 0 1-.191-6.363s-3.726.797-2.991 10.522Z"/><path fill="url(#a)" style="mix-blend-mode:overlay" d="M143.628 140.958c1.019 13.337 14.575 19.763 15.619 14.191.823-4.452-.026-7.199-1.63-9.17a6.663 6.663 0 0 0-2.009-.244 18.233 18.233 0 0 1-1.992.073 6.121 6.121 0 0 1-2.249-.718 7.856 7.856 0 0 1-4.557-8.29 10.57 10.57 0 0 1-.191-6.364s-3.726.797-2.991 10.522Z" opacity=".5"/><path fill="#f79cbd" d="M160 155.816c.908-1.128 1.667-.691 2.689-.13a4.977 4.977 0 0 0 5.612.007 6.783 6.783 0 0 0 3.662-5.58c-.339-.534-.977-.192-1.773.345-1.417.951-3.33 2.543-4.874.91-2.397-2.553-7.786-1.862-10.523 1.902-3.623 4.98 3.183 5.05 5.207 2.546Z"/><path fill="url(#f)" style="mix-blend-mode:overlay" d="M160 155.816c.908-1.128 1.667-.691 2.689-.13a2.424 2.424 0 0 0-.242-.36c-.267-.306-.605-.543-.877-.84a1.256 1.256 0 0 1-.382-1.095c.17-.629.993-.818 1.65-.79a5.467 5.467 0 0 1 1.237.188c.44.13.861.33 1.291.483a4.353 4.353 0 0 0 2.524.191 2.894 2.894 0 0 0 1.93-1.545 4.732 4.732 0 0 0 .314-1.178 2.403 2.403 0 0 1 .056-.282c-1.417.951-3.33 2.543-4.874.91-2.397-2.553-7.786-1.862-10.523 1.902-3.623 4.98 3.183 5.05 5.207 2.546Z" opacity=".5"/><path fill="#f79cbd" d="M152.52 154.337c2.977 6.898 7.085 1.736 7.161-2.556a5.534 5.534 0 0 0-.306-1.935c-1.583-4.267 5.646-2.102 5.825-10.196a9.58 9.58 0 0 0-4.145-8.482.742.742 0 0 0-.694.431c-.85 1.658 1.587 7.63-2.574 8.556-4.83 1.085-7.877 8.14-5.267 14.182Z"/><path fill="url(#g)" style="mix-blend-mode:overlay" d="M152.52 154.337c2.977 6.898 7.085 1.736 7.161-2.556a10.239 10.239 0 0 1-4.663-3.15 1.309 1.309 0 0 1 .034-1.865c1.225-1.66 3.04-2.77 4.641-4.085 1.597-1.304 3.08-3.048 3.157-5.11a8.311 8.311 0 0 0-1.535-4.425 17.893 17.893 0 0 0-.954-1.547c-.85 1.658 1.587 7.63-2.574 8.556-4.83 1.085-7.877 8.14-5.267 14.182Z" opacity=".5"/><path fill="#87e3e8" d="M41.486 168.81c-1.285-.215-3.043-1.481-2.938-2.115a.174.174 0 0 1 .024-.092c.006-.012.012-.018.019-.03.842-1.66-.08-1.808-1.611-2.38-1.537-.571-1.721-1.727-.615-1.967a1.184 1.184 0 0 1 .713.05.576.576 0 0 1 .093.036 2.561 2.561 0 0 1 .823.849c.953 1.168.756 1.002 2.189 1.358 1.432.35 2.662 4.525 1.303 4.291Z"/><path fill="#fff" d="M40.96 168.233a1.356 1.356 0 0 1-1.06-1.168 2.8 2.8 0 0 1 .004-.577 2.613 2.613 0 0 0 .005-.548 2.13 2.13 0 0 0-1.092-1.388c-.184-.114-.38-.22-.57-.322a5.609 5.609 0 0 1-1.053-.67.652.652 0 0 1-.24-.35.077.077 0 0 1 .15-.03.515.515 0 0 0 .19.263 5.527 5.527 0 0 0 1.026.652c.192.103.39.21.578.326a2.272 2.272 0 0 1 1.163 1.498 2.774 2.774 0 0 1-.003.58 2.63 2.63 0 0 0-.005.547 1.197 1.197 0 0 0 1.087 1.057.073.073 0 0 1 .07.083.077.077 0 0 1-.083.07 1.366 1.366 0 0 1-.168-.023Z"/><path fill="url(#h)" style="mix-blend-mode:overlay" d="M41.486 168.81c-1.285-.215-3.043-1.481-2.938-2.115a.174.174 0 0 1 .024-.092c.006-.012.012-.018.019-.03a.917.917 0 0 0 .504-.333 1.137 1.137 0 0 0 .129-.743 2.2 2.2 0 0 0-.264-.855 1.435 1.435 0 0 0-.222-.313 1.365 1.365 0 0 0-.326-.265c-.215-.129-.467-.197-.682-.326a1.39 1.39 0 0 1-.64-.879 1.536 1.536 0 0 1-.012-.584.576.576 0 0 1 .093.037 2.561 2.561 0 0 1 .823.849c.953 1.168.756 1.002 2.189 1.358 1.432.35 2.662 4.525 1.303 4.291Z" opacity=".5"/><path fill="#87e3e8" d="M41.886 168.816a2.897 2.897 0 0 1-.72-.485c-.036-.037-.073-.074-.11-.117a1.08 1.08 0 0 1-.301-1.027 1.047 1.047 0 0 0 .024-.369c-.08-.996-1.321-2.36-2.225-3.725-1.015-1.55.32-2.054.56-3.013.233-.965-.88-1.954.22-2.096a1.845 1.845 0 0 1 1.316.578 2.945 2.945 0 0 1 1.058 3.055c-.664 1.586.35 1.507 1.26 2.81.903 1.31.209 4.328-1.082 4.39Z"/><path fill="#fff" d="M41.677 166.64a6.437 6.437 0 0 1-.166.56 2.878 2.878 0 0 0-.21 1.045v.061l-.06.012a.311.311 0 0 1-.075.013.18.18 0 0 1-.055.012H41.1a.073.073 0 0 1-.074-.068.054.054 0 0 1 .03-.061.044.044 0 0 1 .038-.025c.012 0 .03-.006.055-.006a3.13 3.13 0 0 1 .215-1.033 5.586 5.586 0 0 0 .16-.547 3.853 3.853 0 0 0 .037-1.315 2.139 2.139 0 0 0-.197-.726 2.81 2.81 0 0 0-.78-.842c-.111-.092-.228-.19-.339-.29l-.055-.054a1.434 1.434 0 0 1-.498-1.463 1.4 1.4 0 0 1 .16-.283c.024-.043.055-.086.08-.13a3.164 3.164 0 0 0 .221-1.77 1.092 1.092 0 0 0-.252-.774.078.078 0 0 1-.006-.111.07.07 0 0 1 .104-.006 1.198 1.198 0 0 1 .308.879 3.272 3.272 0 0 1-.246 1.856c-.025.05-.055.093-.08.136a1.847 1.847 0 0 0-.148.258 1.21 1.21 0 0 0 .4 1.23v.006c.037.043.08.08.117.116.104.099.221.19.332.283a3 3 0 0 1 .824.892 2.492 2.492 0 0 1 .209.768 4.229 4.229 0 0 1-.037 1.377Z"/><path fill="url(#i)" style="mix-blend-mode:overlay" d="M41.886 168.816a2.897 2.897 0 0 1-.72-.485.18.18 0 0 1-.055.012H41.1a.073.073 0 0 1-.074-.068.054.054 0 0 1 .03-.061 1.08 1.08 0 0 1-.3-1.027 1.047 1.047 0 0 0 .024-.369.87.87 0 0 0 .67-.362 1.17 1.17 0 0 0-.295-1.334 3.93 3.93 0 0 1-.916-1.132 1.231 1.231 0 0 1-.049-.614 1.396 1.396 0 0 1 .043-.172v-.007a1.106 1.106 0 0 1 .05-.129c.153-.32.442-.565.571-.903.246-.634-.178-1.31-.338-1.974a2.642 2.642 0 0 1 .135-1.629 2.945 2.945 0 0 1 1.058 3.055c-.664 1.587.35 1.507 1.26 2.81.903 1.31.209 4.328-1.082 4.39Z" opacity=".5"/><path fill="#87e3e8" d="M44.935 165.441c-1.562.523-1.18 2.613-2.342 3.19-1.168.573-1.383-.325-1.383-.325a1.516 1.516 0 0 0 .344-.486c.72-1.537-.295-4.555 2.471-5.268 1.144-.295 1.777-.055 2.047.4a1.945 1.945 0 0 1-1.137 2.49Z"/><path fill="#fff" d="M41.789 168.428a1.368 1.368 0 0 1-.38.064.077.077 0 0 1-.003-.154 1.25 1.25 0 0 0 .993-.539 2.514 2.514 0 0 0 .305-1.356 4.384 4.384 0 0 1 .115-.979 2.51 2.51 0 0 1 1.697-1.657l.039-.012a.077.077 0 0 1 .045.147.256.256 0 0 1-.035.011 2.386 2.386 0 0 0-1.598 1.553 4.264 4.264 0 0 0-.11.944 2.663 2.663 0 0 1-.331 1.436 1.413 1.413 0 0 1-.737.542Z"/><path fill="url(#j)" style="mix-blend-mode:overlay" d="M44.935 165.441c-1.562.523-1.18 2.613-2.342 3.19-1.168.573-1.383-.325-1.383-.325a1.516 1.516 0 0 0 .344-.486 1.232 1.232 0 0 0 .197-.11 1.922 1.922 0 0 0 .596-1.623 2.582 2.582 0 0 1 .412-1.71 1.925 1.925 0 0 1 1.205-.534 6.385 6.385 0 0 0 1.328-.234 1.516 1.516 0 0 0 .639-.448c.061-.08.098-.148.141-.21a1.945 1.945 0 0 1-1.137 2.49Z" opacity=".5"/><path fill="#842d72" d="m165.464 86.736-14.409 68.547a6.812 6.812 0 0 1-2.581 3.977 3.892 3.892 0 0 1-.423.305 5.874 5.874 0 0 1-3.168.998h-43.249c-2.792 0-4.564-2.37-3.954-5.28l14.397-68.547a6.45 6.45 0 0 1 1.115-2.487c.023-.035.047-.059.07-.094a6.494 6.494 0 0 1 4.998-2.699h43.25c2.792 0 4.564 2.359 3.954 5.28Z"/><path fill="#fff" d="m163.657 88.403-13.435 64.005-.962 4.553a6.488 6.488 0 0 1-.622 1.69 7.181 7.181 0 0 1-.587.914 6.46 6.46 0 0 1-4.963 2.664H99.84c-2.804 0-4.576-2.359-3.954-5.268l.023-.106.587-2.78 1.161-5.574 1.338-6.348 5.785-27.538.258-1.256.246-1.15 2.394-11.416 2.382-11.358.223-1.032a6.838 6.838 0 0 1 2.898-4.19.136.136 0 0 1 .082-.058 5.813 5.813 0 0 1 3.191-1.02h43.25c2.804 0 4.576 2.358 3.954 5.267Z"/><path fill="#842d72" d="M146.726 81.456a1.726 1.726 0 0 0-1.678-1.09h-3.966a6.606 6.606 0 0 0 2.135-1.738 6.212 6.212 0 0 0 1.397-2.804c.61-2.874-1.162-5.186-3.92-5.186a6.612 6.612 0 0 0-6.077 5.186 4.248 4.248 0 0 0 1.455 4.424.758.758 0 0 0 .152.117h-3.966a2.817 2.817 0 0 0-2.123 1.091 3.01 3.01 0 0 0-.622 1.256v.012a1.63 1.63 0 0 0-.047.41 1.781 1.781 0 0 0 1.807 1.924h12.789a2.945 2.945 0 0 0 2.605-1.924 1.94 1.94 0 0 0 .129-.422 2.35 2.35 0 0 0-.07-1.256Zm-9.669-5.632a3.382 3.382 0 0 1 3.11-2.663 2.065 2.065 0 0 1 2.018 2.663 3.394 3.394 0 0 1-3.145 2.687 2.056 2.056 0 0 1-1.983-2.687Z"/><path fill="#35d2e1" d="M123.056 108.645h-8.649a2.99 2.99 0 0 1-2.9-3.872l1.057-5.035a4.935 4.935 0 0 1 4.528-3.872h8.649a2.99 2.99 0 0 1 2.901 3.872l-1.058 5.035a4.935 4.935 0 0 1-4.528 3.872zm25.137 11.601H110.57a1.812 1.812 0 0 1-1.758-2.346 2.99 2.99 0 0 1 2.744-2.346h37.623a1.812 1.812 0 0 1 1.758 2.346 2.99 2.99 0 0 1-2.744 2.346zm-13.365 10.81H108.3a1.812 1.812 0 0 1-1.758-2.346 2.99 2.99 0 0 1 2.744-2.346h26.529a1.812 1.812 0 0 1 1.758 2.346 2.99 2.99 0 0 1-2.744 2.346zm3.839 10.81h-32.639a1.812 1.812 0 0 1-1.758-2.346 2.99 2.99 0 0 1 2.744-2.346h32.639a1.812 1.812 0 0 1 1.758 2.346 2.99 2.99 0 0 1-2.744 2.346z"/><path fill="#ee316b" d="M144.842 153.947a7.495 7.495 0 0 1-7.076 6.366 5.293 5.293 0 0 1-5.231-6.366 7.494 7.494 0 0 1 7.076-6.367 5.293 5.293 0 0 1 5.231 6.367Z"/><path fill="#fff" d="m136.734 157.85-.043-.002a.62.62 0 0 1-.537-.36l-1.07-2.325a.868.868 0 0 1 .39-1.064.676.676 0 0 1 .993.244l.647 1.406 4.497-4.876a.757.757 0 0 1 1.066-.117.78.78 0 0 1-.044 1.085l-5.276 5.72a.864.864 0 0 1-.623.289Z"/><path fill="url(#k)" style="mix-blend-mode:overlay" d="M155.666 83.134a54.6 54.6 0 0 1 3.157-1.678h-12.097a1.726 1.726 0 0 0-1.678-1.09h-3.966a6.606 6.606 0 0 0 2.135-1.737 6.212 6.212 0 0 0 1.397-2.805c.61-2.874-1.162-5.186-3.92-5.186a6.612 6.612 0 0 0-6.077 5.186 4.248 4.248 0 0 0 1.455 4.424.758.758 0 0 0 .152.117h-3.966a2.817 2.817 0 0 0-2.123 1.091H118.26a6.494 6.494 0 0 0-4.998 2.699.136.136 0 0 0-.082.059c0 .011.011.023.011.035.259.739.54 1.478.822 2.217.645 1.667 1.337 3.321 2.053 4.964q.968 2.217 1.971 4.435c1.913 4.224 3.837 8.448 5.316 12.754a55.266 55.266 0 0 1 1.924 6.934 39.327 39.327 0 0 1 .669 4.694q.052.44.07.88a35.431 35.431 0 0 1-.07 5.233 39.564 39.564 0 0 1-.634 4.693 50.361 50.361 0 0 1-1.56 6.125 56.024 56.024 0 0 1-1.702 4.694 77.345 77.345 0 0 1-1.889 4.27 55.227 55.227 0 0 1-4.998 8.613q-.634.897-1.338 1.76a31.654 31.654 0 0 1-3.884 4.048c-.117.105-.234.21-.363.317-.528.445-1.08.88-1.608 1.349h35.118a6.46 6.46 0 0 0 4.963-2.664 3.892 3.892 0 0 0 .423-.305c.059-.2.105-.399.164-.61a30.085 30.085 0 0 0 .845-5.902c.094-1.795.094-3.602.07-5.385-.082-5.996-.293-12.039-1.795-17.847a87.105 87.105 0 0 0-3.156-9.27 106.371 106.371 0 0 1-1.713-4.693c-.082-.21-.153-.434-.223-.645-1.62-4.893-2.64-10.184-1.455-15.206 1.725-7.357 7.779-12.743 14.455-16.568Zm-18.609-7.31a3.382 3.382 0 0 1 3.11-2.663 2.065 2.065 0 0 1 2.018 2.663 3.394 3.394 0 0 1-3.145 2.687 2.056 2.056 0 0 1-1.983-2.687Z" opacity=".5"/><path d="M115.738 126.36a19.217 19.217 0 0 0-3.074-6.113 14.535 14.535 0 0 0-3.016-2.98 3.83 3.83 0 0 0-.516-.177 18.927 18.927 0 0 0-3.262-.786c-.223-.047-.446-.07-.669-.105a11.307 11.307 0 0 1-.422-1.584 8.83 8.83 0 0 1-.13-.775 1.54 1.54 0 0 0 .388-.48 2.427 2.427 0 0 0 .246-1.15 2.174 2.174 0 0 0-.011-.27c-.106-1.819 1.337-5.292-.47-6.571a2.156 2.156 0 0 0-.657-.329c-2.769-.891-4.904-1.056-5.585.282a3.122 3.122 0 0 1-3.52 1.701c-1.244-.446.176 2.57 1.572 3.063a3.715 3.715 0 0 0 .622.152 15.315 15.315 0 0 0 2.406 4.283c-.13-.035-.153-.047-.047.152a2.297 2.297 0 0 0 .82.857.492.492 0 0 0 .435.059 1.629 1.629 0 0 0 .317-.2c.117-.012.246-.047.375-.07a2.757 2.757 0 0 1-.328.54c-.317-.012-.61-.012-.904-.012-.715 0-1.36.023-1.889.058a7.623 7.623 0 0 0-3.637 1.092c-1.819 1.326-3.485 5.432-4.553 8.436l-3.954 3.637H79.74a1.016 1.016 0 0 0-1.08 1.361l1.573 5.08c-.118.013-.247.013-.364.036a7.345 7.345 0 0 0-1.643.387 3.297 3.297 0 0 0-1.138.74 2.815 2.815 0 0 0-.634 1.185c-.27 1.807 1.49 5.937 3.931 10.642l-.211.528a2.137 2.137 0 0 0 .563 2.452 2.344 2.344 0 0 0 .61.387l1.103.458q.546 1.003 1.127 2.006c0 .13 0 .258.011.388a119.932 119.932 0 0 1 12.379-.646l.129-5.937c.13.012.258.012.387.035a4.732 4.732 0 0 1 1.174.329c.011 0 .023.012.035.012a5.245 5.245 0 0 1 1.267.668 5.815 5.815 0 0 1 2.394 4.964 5.664 5.664 0 0 1-3.04 4.763.873.873 0 0 1-.14.082 5.723 5.723 0 0 1-2.3-.563l.035-1.572-.023.106c-.622 2.91 1.15 5.268 3.954 5.268h6.512l.035-.035.082.035.657.27a2.204 2.204 0 0 0 2.124-.27 1.708 1.708 0 0 0 .423-.4l.187.083a2.216 2.216 0 0 0 2.84-1.185l.07-.164 1.02-2.5a2.084 2.084 0 0 0 .036-1.548 2.2 2.2 0 0 0-1.22-1.291l-1.713-.692-.54-.223a14.743 14.743 0 0 0-.012-2.16l2.277-.938a2.164 2.164 0 0 0 1.138-2.84l-1.103-2.651a2.131 2.131 0 0 0-2.828-1.138l-1.267.504a1.952 1.952 0 0 0-1.314.059 8.63 8.63 0 0 0-1.197-1.161l.892-2.112.035-.094.012-.06a2.175 2.175 0 0 0-.13-1.853 7.667 7.667 0 0 0 .505-1.244v-.011c.07-.012.14-.024.2-.036a2.994 2.994 0 0 0 .316-.082c.13-.446.247-.868.34-1.302v-.012c.06-.188.141-.457.141-.457a49.93 49.93 0 0 0 4.706-2.206c1.994-1.127 3.332-2.265 3.414-3.462v-.011a15.424 15.424 0 0 0-.74-4.682Zm-28.219 18.539-.704-.282a4.773 4.773 0 0 0-1.9-.14l-.904-2.97c.446.012.891.036 1.349.048s.927.035 1.385.046a2.382 2.382 0 0 0 .152.751l.95 2.253a1.904 1.904 0 0 0-.328.294Zm6.97-10.748-1.15-3.72a1.996 1.996 0 0 0-1.033-1.114 5.547 5.547 0 0 1 1.209-1.045 7.655 7.655 0 0 0 1.36-1.267 97.676 97.676 0 0 0-.386 7.146Zm14.701-1.725c.07-.458.141-.915.2-1.373a46.58 46.58 0 0 0 .364-3.332c.434.74.88 1.467 1.314 2.1.258.387.516.74.75 1.056l-.293.176Z" opacity=".1"/><path fill="#35d2e1" d="M30.19 104.618v14.092a2.174 2.174 0 0 1-2.042 2.288h-1.126v-15.934a2.108 2.108 0 0 1 .281-.024 26.337 26.337 0 0 0 2.887-.422zm5.96-2.089v14.092a2.185 2.185 0 0 1-2.041 2.3H32.97v-15.054q.51-.158.986-.352c.505-.2.997-.399 1.49-.634.235-.117.47-.222.704-.352zm5.96-4.364v15.863a2.175 2.175 0 0 1-2.053 2.288h-1.126v-15.453c.575-.41 1.15-.845 1.678-1.302a18.723 18.723 0 0 0 1.502-1.396z"/><path fill="#ee316b" d="m45.197 90.855-1.033 3.637-.27.939-.551 1.96-.587-1.104-.34-.633c-.106.105-.2.21-.305.305a18.59 18.59 0 0 1-1.502 1.384 1.361 1.361 0 0 1-.2.165c-.469.41-.974.774-1.478 1.138a16.596 16.596 0 0 1-1.431.927c-.446.27-.892.516-1.35.75-.235.13-.47.235-.704.352-.493.223-.985.435-1.49.634-.317.117-.645.235-.986.34a19.068 19.068 0 0 1-2.123.61.218.218 0 0 1-.082.024 8.318 8.318 0 0 1-.575.117 23.787 23.787 0 0 1-2.887.423 2.492 2.492 0 0 1-.281.023c-.4.047-.798.059-1.185.082v-2.98c.492.012.973.012 1.466.012a24.753 24.753 0 0 0 2.945-.27c.2-.035.4-.059.599-.094a22.145 22.145 0 0 0 2.757-.716c.117-.035.235-.082.352-.117.188-.07.387-.14.575-.223a19.688 19.688 0 0 0 2.969-1.42c.492-.281.973-.575 1.431-.891.012-.012.012-.012.012-.024a15.7 15.7 0 0 0 1.666-1.279.494.494 0 0 0 .094-.07c.105-.082.21-.176.305-.258l-.4-.118-1.384-.387 1.385-.75 3.555-1.937Z"/><path fill="url(#l)" style="mix-blend-mode:overlay" d="M27.303 105.04a26.337 26.337 0 0 0 2.887-.422v5.468a28.597 28.597 0 0 1-2.1 1.678 15.02 15.02 0 0 1-1.068.692v-7.392a2.108 2.108 0 0 1 .281-.024Z" opacity=".5"/><path fill="url(#m)" style="mix-blend-mode:overlay" d="M35.446 102.881c.235-.117.47-.223.704-.352v3.955a9.656 9.656 0 0 0-1.948.704 9.902 9.902 0 0 0-1.232.715v-4.036q.51-.158.986-.352c.505-.2.997-.399 1.49-.634Z" opacity=".5"/><path fill="url(#n)" style="mix-blend-mode:overlay" d="M38.931 98.646a16.596 16.596 0 0 1-1.431.927c-.446.27-.892.516-1.35.75-.235.13-.47.235-.704.353-.493.223-.985.434-1.49.633-.317.118-.645.235-.986.34a19.068 19.068 0 0 1-2.123.61.218.218 0 0 1-.082.024 8.318 8.318 0 0 1-.575.117 23.787 23.787 0 0 1-2.887.423 2.492 2.492 0 0 1-.281.023c-.4.047-.798.059-1.185.082v-2.98c.492.012.973.012 1.466.012a24.753 24.753 0 0 0 2.945-.27c.2-.035.4-.059.599-.094a22.145 22.145 0 0 0 2.757-.716 20.27 20.27 0 0 0 6.805-1.372c-.469.41-.974.774-1.478 1.138Z" opacity=".5"/><path fill="url(#o)" style="mix-blend-mode:overlay" d="M40.609 99.56a18.723 18.723 0 0 0 1.502-1.395v8.236c-.012 0-.035-.011-.047-.011a16.46 16.46 0 0 0-3.133-.27v-5.257c.575-.41 1.15-.844 1.678-1.302Z" opacity=".5"/><path fill="url(#p)" style="mix-blend-mode:overlay" d="M43.331 95.877c.188-.141.376-.294.563-.446l-.551 1.96-.587-1.104c.2-.14.387-.27.575-.41Z" opacity=".5"/><path fill="url(#q)" style="mix-blend-mode:overlay" d="M49.667 108.96c-.41-.165-.81-.341-1.22-.505a.523.523 0 0 1-.094-.13Z" opacity=".5"/><path fill="#ee316b" d="M104.551 73.74a1.407 1.407 0 0 0-1.165 2.195l-3.97 3.971a1.383 1.383 0 0 0-1.548.048l-1.166-1.166a1.408 1.408 0 1 0-2.332 0l-2.497 2.498a1.41 1.41 0 1 0 .376.377l2.498-2.498a1.403 1.403 0 0 0 1.579 0l1.174 1.173a1.409 1.409 0 1 0 2.307-.071l3.955-3.955a1.407 1.407 0 1 0 .79-2.572Zm-13.466 9.587a.875.875 0 1 1 .875-.875.876.876 0 0 1-.875.875Zm4.45-4.451a.875.875 0 1 1 .876-.875.876.876 0 0 1-.876.875Zm3.144 3.1a.875.875 0 1 1 .875-.876.876.876 0 0 1-.875.875Zm5.872-5.953a.875.875 0 1 1 .875-.875.876.876 0 0 1-.875.874Z"/><path fill="#f8f7f2" d="M72.653 61.216a11.027 11.027 0 0 1-21.156 4.365 10.841 10.841 0 0 1-.903-4.365 10.733 10.733 0 0 1 .258-2.311 11.002 11.002 0 0 1 10.771-8.73 11.043 11.043 0 0 1 11.03 11.041Z"/><path fill="#35d2e1" d="M61.318 51.378h.61v2.023h-.61zM56.772 53.379l.494-.286.948 1.642-.495.285zM53.507 56.854l.285-.494 1.641.947-.285.495zM51.791 61.516v-.61h2.023v.61zM53.793 66.061l-.286-.494 1.641-.948.286.495zM57.267 69.326l-.494-.285.947-1.641.495.285zM61.928 71.041h-.61v-2.023h.61zM66.474 69.04l-.494.286-.948-1.641.495-.286zM69.74 65.566l-.285.494-1.642-.947.286-.495zM71.456 60.905v.61h-2.023v-.61zM69.454 56.359l.286.494-1.642.948-.285-.495zM65.979 53.093l.494.285-.947 1.642-.495-.286zM65.618 61.586h-3.69a.376.376 0 0 1-.266-.11l-3.989-3.988a.376.376 0 1 1 .532-.532l3.879 3.878h3.534a.376.376 0 0 1 0 .752Z"/><circle cx="61.779" cy="61.21" r="1.142" fill="#ee316b"/><path fill="url(#r)" style="mix-blend-mode:overlay" d="M72.653 61.216a11.027 11.027 0 0 1-21.156 4.365 8.973 8.973 0 0 1 3.532-4.729 9.854 9.854 0 0 1 4.119-1.889.714.714 0 0 1 .152-.035 6.131 6.131 0 0 1 .798-.082c1.068-.059 2.147.047 3.215.024a5.545 5.545 0 0 0 3.731-1.244 4.769 4.769 0 0 0 1.232-3.696 4.226 4.226 0 0 1 .082-1.443 11.006 11.006 0 0 1 4.295 8.73Z" opacity=".5"/><path fill="#bc065d" d="m106.314 149.993-2.248-.905a14.22 14.22 0 0 0-.028-2.166l2.276-.932a2.163 2.163 0 0 0 1.151-2.851l-1.124-2.66a2.082 2.082 0 0 0-2.796-1.124l-1.289.494-.96.438a2.36 2.36 0 0 0-.356-.384h-.027a.085.085 0 0 0-.028-.054 10.624 10.624 0 0 0-1.124-1.097l.932-2.194v-.082a2.182 2.182 0 0 0-.247-2.056 1.997 1.997 0 0 0-.932-.768l-2.66-1.07a3.497 3.497 0 0 0-1.507-.109 9.438 9.438 0 0 0-2.413.603 4.29 4.29 0 0 0-1.124.549 1.505 1.505 0 0 0-.357.466l.878 1.042.767.877a15.658 15.658 0 0 0-1.617-.055c-.192.028-.357.028-.549.055l-.191-.384-.74-1.864c-.275-.63-1.646-.878-2.962-.933h-.164a7.782 7.782 0 0 0-1.947.22c-.082.027-.192.055-.274.082l-.11.576a1.916 1.916 0 0 0-.877.658 2.135 2.135 0 0 0-.33 2.166l.96 2.22a1.55 1.55 0 0 0-.219.193 15.335 15.335 0 0 0-1.316 1.37l-1.535-.657-.713-.275a1.858 1.858 0 0 0-.22-.082h-.027a7.535 7.535 0 0 0-3.701.384 2.076 2.076 0 0 0-1.234.823l.027.054.466.987.768 1.646a2.14 2.14 0 0 0 1.206 2.824l.576.246.356.165 1.316.548a9.315 9.315 0 0 0 0 2.139l-1.425.603-.823.329c-.027.028-.055.028-.082.055a2.352 2.352 0 0 0-.768.576 1.951 1.951 0 0 0-.466 1.124 2.174 2.174 0 0 0 .137 1.096l-.301 4.168a.816.816 0 0 0 .384.356h.027c.85.384 2.742-.274 3.674-.658a.465.465 0 0 1 .137-.054l1.673-.686.603-.247a11.215 11.215 0 0 0 1.508 1.508l-.905 2.249a2.276 2.276 0 0 0-.055 1.59 2.143 2.143 0 0 0 .466.713 2.12 2.12 0 0 0 .768.52l.384.878.384.877a.412.412 0 0 0 .274.055l.027.028a6.123 6.123 0 0 0 3.099-.795 2.787 2.787 0 0 0 1.288-1.097l.521-1.289.411-.987a5.025 5.025 0 0 0 .905.055 9.797 9.797 0 0 0 1.261-.027l-.795 3.756a.957.957 0 0 0 .137.22c.713.712 3.4-.165 4.415-.604l2.66-1.07a2.186 2.186 0 0 0 1.15-2.85l-.932-2.25a1.569 1.569 0 0 0 .302-.3 5.715 5.715 0 0 0 1.206-1.234l2.084.877.192.082a2.205 2.205 0 0 0 2.824-1.206l1.097-2.66a2.168 2.168 0 0 0-1.18-2.824Zm-10.775 6.389a8.729 8.729 0 0 1-2.934.658 4.856 4.856 0 0 1-.63.027 9.108 9.108 0 0 1-3.894-.905 3.232 3.232 0 0 1-.52-.301 8.55 8.55 0 0 1-2.962-2.66.682.682 0 0 1-.11-.192 8.482 8.482 0 0 1-.575-.987c-.055-.165-.165-.356-.22-.494a8.899 8.899 0 0 1-.713-3.4 9.094 9.094 0 0 1 .74-3.618 8.513 8.513 0 0 1 3.346-4.003c.027-.028.027-.055.082-.083a7.87 7.87 0 0 1 1.426-.767c.054-.028.137-.055.192-.083a8.964 8.964 0 0 1 4.304-.548 7.834 7.834 0 0 1 2.605.713 8.725 8.725 0 0 1 2.714 1.864 8.46 8.46 0 0 1 2.002 2.934 9.04 9.04 0 0 1-4.853 11.845Z"/><path fill="#6b1b5c" d="M87.258 151.227a4.134 4.134 0 0 1-.41-.768c.027.275.054.576.082.85v.083a1.844 1.844 0 0 0 .328-.165Zm13.134-6.69a8.46 8.46 0 0 0-2.002-2.934 8.725 8.725 0 0 0-2.714-1.864 7.834 7.834 0 0 0-2.605-.713 8.964 8.964 0 0 0-4.304.548c-.055.028-.138.055-.192.083a7.87 7.87 0 0 0-1.426.767c-.055.028-.055.055-.082.083a8.513 8.513 0 0 0-3.345 4.003 9.094 9.094 0 0 0-.74 3.619 8.899 8.899 0 0 0 .712 3.4c.055.137.165.329.22.493a8.482 8.482 0 0 0 .575.987.682.682 0 0 0 .11.192 8.55 8.55 0 0 0 2.961 2.66 3.232 3.232 0 0 0 .521.301 9.108 9.108 0 0 0 3.893.905 4.856 4.856 0 0 0 .631-.027 8.729 8.729 0 0 0 2.934-.658 9.04 9.04 0 0 0 4.853-11.845Zm-8.363 9.212h-.164a5.63 5.63 0 0 1-3.702-1.48 5.492 5.492 0 0 1-.904-1.042 4.134 4.134 0 0 1-.412-.768.823.823 0 0 1-.11-.219 5.491 5.491 0 0 1-.219-3.729 5.758 5.758 0 0 1 1.837-2.906.73.73 0 0 1 .165-.137 5.687 5.687 0 0 1 .96-.603c.11-.055.246-.11.356-.165a5.479 5.479 0 0 1 1.727-.411h.247a5.819 5.819 0 0 1 5.566 3.537 5.708 5.708 0 0 1-3.126 7.485 5.632 5.632 0 0 1-2.22.438Z"/><path fill="#ee316b" d="m103.572 150.596-2.248-.932a11.128 11.128 0 0 0 0-2.138l2.248-.933a2.233 2.233 0 0 0 1.18-2.851l-1.125-2.66a2.098 2.098 0 0 0-2.687-1.179h-.027c-.028 0-.055.028-.11.028h-.028l-2.22.932a9.965 9.965 0 0 0-1.536-1.508l.96-2.276a2.38 2.38 0 0 0 .137-.767 2.982 2.982 0 0 0-.027-.494v-.027a2.289 2.289 0 0 0-1.316-1.536l-2.413-.987-.22-.082a1.842 1.842 0 0 0-1.206-.11 1.982 1.982 0 0 0-1.124.549 1.505 1.505 0 0 0-.356.466.91.91 0 0 0-.165.274l-.548 1.261-.384.987a11.44 11.44 0 0 0-2.166 0l-.932-2.248a2.111 2.111 0 0 0-2.331-1.316c-.082.027-.192.055-.274.082a.643.643 0 0 0-.22.055l-.986.411-1.646.713a2.151 2.151 0 0 0-1.206 2.797l.74 1.754.22.494a1.714 1.714 0 0 0-.33.302c-.219.219-.438.438-.63.658-.192.192-.384.383-.576.603l-2.248-.932a1.912 1.912 0 0 0-1.289-.11 1.949 1.949 0 0 0-1.124.685 1.815 1.815 0 0 0-.411.604l-.33.822-.74 1.81a2.127 2.127 0 0 0 .576 2.44 1.743 1.743 0 0 0 .604.384l1.206.52 1.042.44a11.153 11.153 0 0 0 0 2.138l-.22.082-2.028.85a2.213 2.213 0 0 0-1.18 2.852l.933 2.193.192.439a2.033 2.033 0 0 0 1.7 1.288h.027a1.895 1.895 0 0 0 1.097-.11l2.248-.931a4.834 4.834 0 0 0 .329.383 15.45 15.45 0 0 0 1.206 1.125l-.932 2.248a1.911 1.911 0 0 0-.11 1.288 2.036 2.036 0 0 0 .521.988 1.726 1.726 0 0 0 .768.548l.576.247.74.301 1.316.549a1.877 1.877 0 0 0 1.152.11l.027.027a2.226 2.226 0 0 0 1.645-1.316l.083-.22.85-2.029h.054a2.982 2.982 0 0 0 .494.028 15.868 15.868 0 0 0 1.618 0l.164.356.768 1.837a1.674 1.674 0 0 0 .192.384v.028a2.183 2.183 0 0 0 .96.767 2.152 2.152 0 0 0 1.7 0l2.659-1.07a2.183 2.183 0 0 0 1.124-2.85l-.932-2.249a7.98 7.98 0 0 0 1.508-1.535l1.535.63.74.302a2.235 2.235 0 0 0 2.55-.658 5.079 5.079 0 0 0 .302-.521l1.097-2.66a2.181 2.181 0 0 0-1.207-2.824Zm-15.518 6.992a.802.802 0 0 1-.247-.055 5.084 5.084 0 0 1-.63-.11 9.618 9.618 0 0 1-2.03-.767 9.09 9.09 0 0 1-4.195-4.552c-.082-.247-.192-.466-.274-.713a9.044 9.044 0 0 1 .384-6.525 5.106 5.106 0 0 1 .603-1.07 7.782 7.782 0 0 1 2.276-2.467 7.506 7.506 0 0 1 1.892-1.07l.164-.081a8.85 8.85 0 0 1 1.673-.44 7.034 7.034 0 0 1 1.097-.164 9.23 9.23 0 0 1 3.564.521 8.17 8.17 0 0 1 1.837.905 8.563 8.563 0 0 1 2.001 1.728 8.986 8.986 0 0 1 1.508 2.412 9.085 9.085 0 0 1-4.88 11.845c-.055 0-.137.055-.192.055a5.725 5.725 0 0 1-.63.219 8.73 8.73 0 0 1-3.921.329Z"/><path fill="#842d72" d="M97.677 145.14a8.986 8.986 0 0 0-1.508-2.412A8.563 8.563 0 0 0 94.168 141a8.17 8.17 0 0 0-1.837-.905 9.23 9.23 0 0 0-3.564-.52 7.034 7.034 0 0 0-1.097.164 8.85 8.85 0 0 0-1.673.438l-.164.083a7.506 7.506 0 0 0-1.892 1.07 7.782 7.782 0 0 0-2.276 2.467 5.106 5.106 0 0 0-.603 1.069 9.044 9.044 0 0 0-.384 6.525c.082.247.192.466.274.713a9.09 9.09 0 0 0 4.195 4.552 9.618 9.618 0 0 0 2.03.767 5.084 5.084 0 0 0 .63.11.802.802 0 0 0 .247.055 8.73 8.73 0 0 0 3.92-.33 5.725 5.725 0 0 0 .631-.218c.055 0 .137-.055.192-.055a9.085 9.085 0 0 0 4.88-11.845Zm-8.198-2.275a3.168 3.168 0 0 1 .713.082 4.636 4.636 0 0 1 1.207.329 4.71 4.71 0 0 1 1.26.685 5.548 5.548 0 0 1 1.975 2.468 5.694 5.694 0 0 1-2.605 7.21.574.574 0 0 1-.164.11l-.33.165a5.846 5.846 0 0 1-3.4.329 4.34 4.34 0 0 1-.85-.247 5.709 5.709 0 0 1-2.631-2.001 3.562 3.562 0 0 1-.274-.412c-.137-.246-.247-.493-.384-.74a5.855 5.855 0 0 1-.165-4.03 5.783 5.783 0 0 1 2.66-3.208 4.145 4.145 0 0 1 .603-.302 5.656 5.656 0 0 1 2.385-.438Z"/><path fill="url(#s)" style="mix-blend-mode:overlay" d="m107.493 152.817-1.097 2.66a2.205 2.205 0 0 1-2.824 1.206l-.192-.082a2.235 2.235 0 0 1-2.55.658l-.74-.302a1.569 1.569 0 0 1-.302.302l.933 2.248a2.186 2.186 0 0 1-1.152 2.852l-2.66 1.069c-1.014.439-3.7 1.316-4.414.603a2.183 2.183 0 0 1-.96-.767v-.028a1.674 1.674 0 0 1-.191-.384l-.768-1.837-.52 1.289a2.787 2.787 0 0 1-1.29 1.096 6.123 6.123 0 0 1-3.098.796l-.027-.028a1.877 1.877 0 0 1-1.152-.11l-1.316-.548-.74-.301-.576-.247a1.726 1.726 0 0 1-.768-.549 2.036 2.036 0 0 1-.52-.987 1.911 1.911 0 0 1 .11-1.288l.931-2.249a15.45 15.45 0 0 1-1.206-1.124c-.932.384-2.824 1.042-3.674.658h-.027a2.033 2.033 0 0 1-1.7-1.288l-.192-.439-.932-2.193a2.213 2.213 0 0 1 1.179-2.852l2.029-.85a.688.688 0 0 1 .192.11c.137.055.274.137.438.192.494.247 1.015.52 1.536.74a15.157 15.157 0 0 0 1.425.548 8.93 8.93 0 0 0 3.236.631.93.93 0 0 0 .274.027h.247a.647.647 0 0 0 .219-.054 4.764 4.764 0 0 0 1.234-.165 4.402 4.402 0 0 0 1.042-.439 1.844 1.844 0 0 0 .329-.164 5.492 5.492 0 0 0 .904 1.042 5.63 5.63 0 0 0 3.702 1.48.574.574 0 0 0 .164-.11 5.694 5.694 0 0 0 2.605-7.21 5.548 5.548 0 0 0-1.974-2.468 4.71 4.71 0 0 0-1.261-.685 4.878 4.878 0 0 1 .137-.878c0-.027.027-.054.027-.11a9.142 9.142 0 0 1 .274-1.178 5.786 5.786 0 0 1 .494-1.015 4.142 4.142 0 0 1 .74-1.069 7.595 7.595 0 0 1 4.88-2.687.347.347 0 0 1 .165-.027 6.349 6.349 0 0 1 2.276.164 1.233 1.233 0 0 1 .301.082l-.932 2.194a10.624 10.624 0 0 1 1.124 1.096.085.085 0 0 1 .028.055h.027a2.177 2.177 0 0 1 1.316-.055l1.289-.493a2.082 2.082 0 0 1 2.796 1.124l1.124 2.66a2.163 2.163 0 0 1-1.151 2.851l-2.276.932a14.22 14.22 0 0 1 .028 2.166l2.248.905a2.168 2.168 0 0 1 1.179 2.824Z" opacity=".7"/><path d="M91.865 153.75a5.63 5.63 0 0 1-3.702-1.481 5.492 5.492 0 0 1-.905-1.042 4.134 4.134 0 0 1-.41-.768c.027.275.054.576.082.85v.083c.082.548.136 1.096.219 1.645.027.301.082.63.137.96.055.602.164 1.233.274 1.864a5.845 5.845 0 0 0 .082.685l.165.987c.137 1.042.329 2.084.493 3.098.165.933.302 1.865.467 2.77a2.787 2.787 0 0 0 1.288-1.097l.521-1.289.768 1.837a1.674 1.674 0 0 0 .192.384.1.1 0 0 1 .027-.082 1.873 1.873 0 0 0 .274-.11l.055-2.961.082-2.824v-.192l.055-3.318v-.11a.574.574 0 0 1-.164.11Zm7.896-14.998.932-2.194v-.082a2.182 2.182 0 0 0-.247-2.056 1.997 1.997 0 0 0-.932-.768l-2.66-1.07a3.497 3.497 0 0 0-1.507-.109 9.438 9.438 0 0 0-2.413.603 1.982 1.982 0 0 0-1.124.549 1.505 1.505 0 0 0-.357.466.91.91 0 0 0-.164.274l-.548 1.261-.74-1.864c-.275-.63-1.646-.878-2.962-.932h-.164a7.782 7.782 0 0 0-1.947.219c-.082.027-.192.055-.274.082a.643.643 0 0 0-.22.055l-.987.411-1.645.713a2.151 2.151 0 0 0-1.206 2.797l.74 1.755 2.742.082c1.426.055 2.824.082 4.195.055-.192.246-.411.493-.603.74a5.656 5.656 0 0 0-.521.685c-.055.028-.055.055-.083.083a7.037 7.037 0 0 0-.575 3.098 15.911 15.911 0 0 0-.028 1.645c0 .411.028.822.055 1.261a5.758 5.758 0 0 1 1.837-2.906.73.73 0 0 1 .165-.137 5.687 5.687 0 0 1 .96-.603 3.168 3.168 0 0 1 .712.082 4.636 4.636 0 0 1 1.207.329 4.71 4.71 0 0 1 1.26.685 25.31 25.31 0 0 0 2.441-.795c.357-.137.713-.274 1.07-.438a16.865 16.865 0 0 0 2.22-1.125 7.55 7.55 0 0 0 .795-.466 11.552 11.552 0 0 0 1.59-1.206h.028l.082-.083a10.624 10.624 0 0 0-1.124-1.096Zm-12.585 18.671a1.25 1.25 0 0 0-.22-.52 3.219 3.219 0 0 0-1.123-.933c-.028-.027-.028-.027-.055-.027-.082-.082-.192-.137-.274-.22a2.373 2.373 0 0 1-.274-.191 1.769 1.769 0 0 1-.247-.22.954.954 0 0 1-.137-.22 1.14 1.14 0 0 1-.11-.273c.082-.083.137-.165.22-.247l-.467-1.563-.301-.96-1.207-3.92-1.316-4.332-1.07-3.482-.3-1.015h-.028a7.535 7.535 0 0 0-3.701.384 2.076 2.076 0 0 0-1.234.823l.027.054a1.815 1.815 0 0 0-.411.604l-.33.822a121.677 121.677 0 0 0 1.646 3.345 87.194 87.194 0 0 0 2.358 4.387c.192.384.411.768.63 1.124.96 1.755 1.975 3.51 2.962 5.182l.082.165c.11-.028.164-.028.274-.055a1.455 1.455 0 0 1 .22.466.347.347 0 0 1 .027.164 1.377 1.377 0 0 1 .055.33.407.407 0 0 1 .027.191 1.565 1.565 0 0 1-.027.357v.11a2.131 2.131 0 0 1-.055.438l-.165.055c-.384.63-.904 1.288-1.343 1.947a7.717 7.717 0 0 0-.74 1.233c-.247.521-.302.96.054 1.234 0 0 .165-.082.466-.247.33-.164.796-.41 1.344-.74.302-.164.603-.356.932-.548 1.536-.932 3.236-2.111 3.729-3.016a1.596 1.596 0 0 0 .137-.439.407.407 0 0 0-.055-.247Z" opacity=".1"/><path fill="#f17398" d="m75.885 127.613 8.051-7.412c1.07-3.01 2.737-7.11 4.555-8.441a6.554 6.554 0 0 1 5.21-.854c-2.134 5.542-3.573 10.12-6.482 12.129-2.778 1.617-6.192 10.353-12.423 6.298Z"/><path fill="url(#c)" style="mix-blend-mode:color-burn" d="m75.885 127.613 8.051-7.412c1.07-3.01 2.737-7.11 4.555-8.441a6.554 6.554 0 0 1 5.21-.854c-2.134 5.542-3.573 10.12-6.482 12.129-2.778 1.617-6.192 10.353-12.423 6.298Z" opacity=".5"/><path fill="#fbd783" d="M80.177 153.59c.693 1.04.025 2.892.025 2.892s4.23-1.735 3.619-2.621-1.447-.758-1.547-1.793-2.097 1.521-2.097 1.521Z"/><path fill="#842d72" d="M79.899 153.633c-4.67-7.958-10.212-17.906-9.734-21.004.992-3.843 7.516-1.88 18.876-2.617l6.854 3.107c-2.453 4.093-11.022 3.36-18.183 3.156l4.835 15.764a3.773 3.773 0 0 1-2.648 1.594zm3.516-.213c-.675 1.354-3.157 2.283-3.157 2.283-1.064 1.662-2.997 3.69-2.032 4.404 0 0 5.504-2.763 6.455-4.554.644-1.214-1.266-2.133-1.266-2.133z"/><path fill="url(#t)" style="mix-blend-mode:color-burn" d="m95.895 133.12-6.854-3.108c-11.36.737-17.883-1.226-18.876 2.616-.478 3.1 5.063 13.046 9.734 21.005.098-.012.188-.028.279-.045l-.001.001a2.916 2.916 0 0 1 .235 2.052c-.09.038-.154.062-.154.062-1.064 1.662-2.997 3.69-2.032 4.404 0 0 5.504-2.762 6.455-4.554.644-1.213-1.266-2.133-1.266-2.133l-.001.002c-.471-.395-.946-.526-1.096-1.14.075-.079.149-.155.229-.243l-4.835-15.764c7.161.204 15.73.937 18.183-3.156Z" opacity=".5"/><path fill="#fbd783" d="M86.665 161.114c.284 1.217-.991 2.718-.991 2.718s4.57-.14 4.308-1.185-1.088-1.217-.82-2.222-2.497.689-2.497.689Z"/><path fill="#842d72" d="M86.39 161.058c-1.58-9.092-3.277-20.352-1.743-23.085a30.983 30.983 0 0 1 10.643-9.048l5.798 4.382c-1.236 4.445-6.49 6.92-11.254 8.25l-.405 18.937a3.773 3.773 0 0 1-3.04.564zm3.367 1.034c-1.108 1.031-3.757 1.03-3.757 1.03-1.58 1.183-4.102 2.402-3.449 3.41 0 0 6.599-.759 7.85-2.008.973-.97-.644-2.432-.644-2.432z"/><path fill="url(#u)" style="mix-blend-mode:color-burn" d="m89.43 160.494.404-18.937c4.765-1.33 10.018-3.805 11.254-8.25l-5.798-4.382a30.984 30.984 0 0 0-10.643 9.048c-1.534 2.733.163 13.993 1.743 23.085.105.025.194.028.292.046l-.017.01a2.916 2.916 0 0 1-.5 2.004l-.165.004c-1.58 1.183-4.102 2.402-3.449 3.41 0 0 6.599-.759 7.85-2.008.973-.97-.644-2.432-.644-2.432l-.002.001c-.304-.537-.704-.827-.624-1.46.103-.05.186-.081.298-.14Z" opacity=".5"/><path fill="#f17398" d="M88.171 130.268c3.592 2.898 11.894 3.608 13.412 2.98a58.686 58.686 0 0 0 1.772-21.218c-4.553-1.735-11.634-1.553-12.678-1.14-1.67 4.438-2.42 11.727-2.506 19.378Z"/><path fill="url(#v)" style="mix-blend-mode:color-burn" d="M88.171 130.268c3.592 2.898 11.894 3.608 13.412 2.98a58.686 58.686 0 0 0 1.772-21.218c-4.553-1.735-11.634-1.553-12.678-1.14-1.67 4.438-2.42 11.727-2.506 19.378Z" opacity=".5"/><path fill="#35d2e1" d="M88.217 133.84H76.536a2.1 2.1 0 0 1-1.915-1.354l-2.255-7.296a1.014 1.014 0 0 1 1.078-1.353h11.682a2.1 2.1 0 0 1 1.915 1.353l2.255 7.296a1.014 1.014 0 0 1-1.079 1.353Z"/><path fill="#fff" d="M82.037 128.473a.894.894 0 0 1-.95 1.193 1.85 1.85 0 0 1-1.689-1.193.894.894 0 0 1 .951-1.193 1.85 1.85 0 0 1 1.688 1.193Z"/><rect width="20.069" height="1.554" x="76.22" y="133.811" fill="#35d2e1" rx=".484"/><path fill="#f17398" d="m93.122 132.95 12.406-7.311c-1.926-2.547-4.618-7.35-4.73-9.6a5.391 5.391 0 0 1 2.557-4.01c4.87 3.56 6.914 10.089 6.826 13.775-.175 3.209-9.408 6.023-16.22 9Z"/><path fill="#fbd783" d="M93.122 132.95c-1.013-.479-2.915.89-2.915.89s-.95 1.04-.475 1.525 4.23.135 4.23-.561a4.61 4.61 0 0 0-.84-1.854Z"/><path fill="url(#w)" style="mix-blend-mode:color-burn" d="M103.355 112.03a5.392 5.392 0 0 0-2.558 4.008c.113 2.251 2.805 7.054 4.731 9.6l-12.406 7.312c-1.013-.479-2.915.89-2.915.89s-.95 1.04-.475 1.525 4.23.135 4.23-.561c6.81-2.977 16.044-5.791 16.219-9 .088-3.686-1.956-10.214-6.826-13.774Z" opacity=".5"/><path fill="#fbd783" d="M94.846 110.76a6.355 6.355 0 0 0 .934-3.586l2.465-.018a11.911 11.911 0 0 0 .733 4.036c-1.254 1.212-3.701 1.089-4.132-.432Z"/><path fill="url(#x)" style="mix-blend-mode:color-burn" d="M94.846 110.76a6.355 6.355 0 0 0 .934-3.586l2.465-.018a11.911 11.911 0 0 0 .733 4.036c-1.254 1.212-3.701 1.089-4.132-.432Z" opacity=".5"/><path fill="#fbd783" d="M94.12 110.064c.726.406 2.634-.44 3.674-1.193l1.29-6.757-4.942-2.666-4.016 3.323c1.003 2.926 2.121 5.68 3.994 7.293Z"/><path fill="url(#y)" style="mix-blend-mode:color-burn" d="M94.12 110.064c.726.406 2.634-.44 3.674-1.193l1.29-6.757-4.942-2.666-4.016 3.323c1.003 2.926 2.121 5.68 3.994 7.293Z" opacity=".5"/><path fill="#2a195b" d="M90.315 104.852a6.692 6.692 0 0 0 4.052-.37l.186 2.048.716-.132s.057-1.601.809-1.467c1.41.252-.09.917-.065 2.183.014.707 1.781 1.757 1.781 1.757s1.31-.152 1.19-2.164 1.643-6.008-1.127-6.901-4.91-1.057-5.584.277a3.124 3.124 0 0 1-3.53 1.7c-1.234-.436.18 2.574 1.572 3.069Z"/><path fill="#2a195b" d="M94.553 106.53s.462 2.475-.317 2.741-1.168-.269-.937.167.855 1.086 1.256.912c1.311-.567 1.09-2.246.714-3.952Z"/><path d="M101.925 131.956c-.1.437-.218.857-.336 1.295a1.844 1.844 0 0 1-.521.117c-.017.034-.017.085-.05.118-1.094.068-3.23.135-3.516-.151l.017-.017h.017l2.32-.942 2.204-.891s-.076.286-.135.47Z" opacity=".1"/></g></g></svg>