<svg xmlns="http://www.w3.org/2000/svg" viewBox="0 0 4680 3120"><g data-name="6"><rect width="4680" height="3120" fill="#fff" data-name="6" opacity="0"/><path fill="#50a88d" d="M3800.79,1272.73s-4.83-121.15,49.3-157.53,83.61.78,110.62-44.13,55.85-79.7,101.68-90.74,78.36,4.38,136.81-19.19,113.93-21.23,137.2,12.38-20.33,92.76-61.93,93.13-30.21,56.16-86.62,87.38-83.19.75-117.05,36.65S4070.43,1362.32,3800.79,1272.73Z"/><path fill="#036b4d" d="M4313.83,1025.32c-40.77-19.9-72-22.58-91.51-21.15,32.33-11,64.06-18.12,94.06-19.84a1.73,1.73,0,0,0,1.71-1.77,1.79,1.79,0,0,0-1.94-1.57c-35.79,2-74,11.74-112.75,26.39a38.91,38.91,0,0,0-4.17,1.43,1.65,1.65,0,0,0-.6.43,761.81,761.81,0,0,0-84.75,39.56c6.31-12,19.53-44.13-4.3-66.87a2,2,0,0,0-2.59-.06,1.57,1.57,0,0,0-.05,2.36c27.75,26.49,1.34,67.24,1.07,67.65,0,0,0,.08-.05.11-28.31,15.49-56.07,32.49-82.54,49.92l-1.15.43a1.73,1.73,0,0,0-1,1c-31.75,21-61.6,42.55-88.23,62.84,6.61-12.8,18.7-41.52,12.69-71.37a1.82,1.82,0,0,0-2.13-1.33,1.68,1.68,0,0,0-1.47,1.94c7.8,38.71-15.92,75.64-16.16,76,0,.08-.05.16-.09.23-24.86,19.14-46.65,36.93-64.3,51.8a1.71,1.71,0,0,0-.9.76c-29.05,24.5-46.56,40.82-47.26,41.48a1.57,1.57,0,0,0,0,2.36,1.95,1.95,0,0,0,2.58,0c.55-.52,11.43-10.66,30.06-26.8.06,0,.11.06.16.06a2.25,2.25,0,0,0,.68-.07c1-.29,100.73-28.15,164.11,10.12a1.92,1.92,0,0,0,2.53-.47,1.58,1.58,0,0,0-.51-2.31c-56.07-33.86-139.39-17.27-161.59-12,3.76-3.22,7.78-6.65,12-10.24,7.43-2.46,89.06-27.88,151.84,15.16a2,2,0,0,0,2.56-.33,1.57,1.57,0,0,0-.37-2.33c-55.07-37.77-124.08-24.17-147.61-17.89,37.94-31.7,92.9-75,155.05-116,10.77-3.91,89.49-29.86,168.12,15.55a2,2,0,0,0,.86.25,1.87,1.87,0,0,0,1.67-.77,1.58,1.58,0,0,0-.57-2.3c-66.24-38.26-132.53-26.83-159.82-19.43,52.74-34.1,110.13-66,166.37-87.35,10.53-3.15,49.67-11.3,108.45,17.4a2.19,2.19,0,0,0,.74.19,1.87,1.87,0,0,0,1.74-.88A1.6,1.6,0,0,0,4313.83,1025.32Z"/><path fill="#3f8b83" d="M3698.59,1262.05s-104.6-84.71-95.6-148.83,61.43-57.59,43.59-109-25.9-96.79-1.78-136.7,60.62-51.33,83.45-109.13,65.11-94.68,110.08-86.44,62.61,81.59,32.68,110.79,24.9,61.85,9.94,123.78-59.86,58.42-54.52,108.08S3969.38,1139.62,3698.59,1262.05Z"/><path fill="#1fa47c" d="M3865.14,725.29c-46.25,13.89-71.2,33.67-84.18,48.28,14.36-30.46,31.45-57.74,51.83-79.86a1.66,1.66,0,0,0-.24-2.48,2.07,2.07,0,0,0-2.71.21c-24.31,26.4-44,60-60,97.63a33.42,33.42,0,0,0-1.83,3.93,1.67,1.67,0,0,0-.09.73,662.08,662.08,0,0,0-28.6,87.72c-5.45-13.13-22.62-45.67-58.93-45.63a1.77,1.77,0,1,0,0,3.52c42.28-.05,57.08,47.95,57.22,48.43a1.27,1.27,0,0,0,.07.12c-7.66,31-13.66,62.63-18.37,93.71l-.47,1.11a1.64,1.64,0,0,0,.11,1.39c-5.57,37.34-9.28,73.78-11.71,107.06-5.87-13.9-21.05-43.19-50.33-60.71a2,2,0,0,0-2.66.51,1.67,1.67,0,0,0,.56,2.43c38,22.73,51.54,66.07,51.67,66.5a1,1,0,0,0,.13.23c-2.11,31.21-3.11,59.31-3.54,82.39a1.61,1.61,0,0,0,0,1.18c-.67,38,.21,62.06.25,63a1.87,1.87,0,0,0,2,1.69,2,2,0,0,0,1.23-.46,1.67,1.67,0,0,0,.62-1.36c0-.76-.58-15.69-.5-40.39.05,0,.12,0,.17-.07a1.75,1.75,0,0,0,.42-.52c.49-.91,49.75-90.54,127.77-106.81a1.76,1.76,0,0,0,1.45-2.1,1.93,1.93,0,0,0-2.3-1.32c-69,14.38-115.75,84.41-127.46,103.71q.06-7.44.2-15.83c3.35-7,41.49-82.22,123.05-94.59a2,2,0,0,0,1-.44,1.67,1.67,0,0,0,.6-1.58,1.91,1.91,0,0,0-2.21-1.45c-71.55,10.86-110.38,68.75-122.25,89.69,1.14-49.45,4.93-119.19,15.92-192.21,4.56-10.34,40.15-84,135.2-105.66a1.84,1.84,0,0,0,.84-.41,1.66,1.66,0,0,0,.57-1.72,2,2,0,0,0-2.34-1.28c-80.07,18.27-118.73,72.7-132.4,97.06,9.89-61.48,25-124.58,48.07-179.25,5-9.61,26.67-42.76,93.36-62.79a1.9,1.9,0,0,0,.7-.38,1.66,1.66,0,0,0,.53-1.84A2,2,0,0,0,3865.14,725.29Z"/><path fill="#9bcea8" d="M3790.18,1280.89s-82.39-139.21-42.09-210.37,98.32-43.23,101.49-110,14.87-122.74,61.51-159.86,94.46-36.25,147.93-94.7,119.86-85,168.38-58,35,119.28-13.48,141.68.22,81.66-46,148-96.87,44.8-113.75,104.7S4162.43,1243.34,3790.18,1280.89Z"/><path fill="#1fa47c" d="M4233.79,720.49c-60.3-1.77-98.56,11.59-120.47,23.57,30.89-29.9,63.48-55,97.5-72.89a2.07,2.07,0,0,0,.88-3,2.53,2.53,0,0,0-3.26-.81c-40.59,21.3-79.16,52.82-115.22,90.42a46.78,46.78,0,0,0-4,3.86,2.09,2.09,0,0,0-.44.83c-26.11,27.74-50.87,58.61-74.11,91-.23-17.4-5.09-61.95-47.39-76a2.44,2.44,0,0,0-3,1.3,2.12,2.12,0,0,0,1.42,2.79c49.26,16.34,44.16,78,44.1,78.59,0,.06,0,.11,0,.16-23.32,33.08-45,67.62-65,102-.66.67-1,1.06-1.07,1.11a2,2,0,0,0-.52,1.65c-23.86,41.32-45.13,82.32-63.44,120.12-.37-18.47-4.42-58.45-30.35-90.2a2.53,2.53,0,0,0-3.34-.45,2.05,2.05,0,0,0-.48,3c33.64,41.19,29.28,96.91,29.23,97.47a1.75,1.75,0,0,0,0,.32c-17,35.52-31.21,67.85-42.44,94.55a2.1,2.1,0,0,0-.58,1.38c-18.46,44-28.62,72.34-29,73.48a2.15,2.15,0,0,0,1.54,2.75,2.62,2.62,0,0,0,1.64-.06,2.3,2.3,0,0,0,1.36-1.35c.32-.89,6.62-18.49,18.21-47.22.07,0,.15,0,.22,0a2.42,2.42,0,0,0,.74-.44c1-.87,100-86.13,198.45-74.81a2.35,2.35,0,0,0,2.67-1.89,2.23,2.23,0,0,0-2.07-2.43c-87.06-10-174,53.4-196.65,71.32,2.35-5.75,4.89-11.88,7.6-18.34,7.13-6.79,86.55-79.64,187.27-62.43a2.65,2.65,0,0,0,1.35-.12,2.14,2.14,0,0,0-.47-4.16c-88.36-15.11-160.5,37.24-184.06,57,24.32-57.14,61.18-136.87,108-217.64,10.12-10.27,85.8-82.19,206.57-70.58a2.62,2.62,0,0,0,1.16-.15,2.14,2.14,0,0,0-.65-4.18c-101.74-9.79-172.07,38.59-199.32,61.66,40.11-67.75,87.08-135.36,139.35-190.07,10.34-9.24,51-39.45,137.92-36.91a2.71,2.71,0,0,0,1-.16,2.18,2.18,0,0,0,1.47-1.95A2.26,2.26,0,0,0,4233.79,720.49Z"/><path fill="#50a88d" d="M879.21,2447.43s4.83-121.15-49.3-157.54-83.61.79-110.62-44.12-55.85-79.7-101.68-90.74-78.36,4.38-136.81-19.2-113.93-21.23-137.2,12.39,20.33,92.76,61.93,93.13,30.21,56.16,86.62,87.38,83.19.74,117.05,36.65S609.57,2537,879.21,2447.43Z"/><path fill="#036b4d" d="M366.17,2200c40.77-19.9,72-22.59,91.51-21.15-32.33-11-64.06-18.13-94.06-19.84a1.73,1.73,0,0,1-1.71-1.78,1.79,1.79,0,0,1,1.94-1.56c35.79,2,74,11.74,112.75,26.39a38.91,38.91,0,0,1,4.17,1.43,1.65,1.65,0,0,1,.6.43,761.81,761.81,0,0,1,84.75,39.56c-6.31-12-19.53-44.13,4.3-66.88a2,2,0,0,1,2.59,0,1.57,1.57,0,0,1,0,2.36c-27.75,26.49-1.34,67.24-1.07,67.65,0,0,0,.07,0,.11,28.31,15.49,56.07,32.49,82.54,49.92l1.15.43a1.74,1.74,0,0,1,1,1c31.75,21,61.6,42.56,88.23,62.85-6.61-12.8-18.7-41.52-12.69-71.37a1.84,1.84,0,0,1,2.13-1.34,1.69,1.69,0,0,1,1.47,1.95c-7.8,38.71,15.92,75.63,16.16,76,0,.07,0,.16.09.23,24.86,19.14,46.65,36.93,64.3,51.8a1.71,1.71,0,0,1,.9.76c29.05,24.5,46.56,40.82,47.26,41.48a1.57,1.57,0,0,1,0,2.36,2,2,0,0,1-2.58,0c-.55-.51-11.43-10.65-30.06-26.79-.06,0-.11,0-.16.06a2.25,2.25,0,0,1-.68-.07c-1-.29-100.73-28.15-164.11,10.12a1.93,1.93,0,0,1-2.53-.47,1.58,1.58,0,0,1,.51-2.31c56.07-33.86,139.39-17.27,161.59-12-3.76-3.22-7.78-6.65-12-10.25-7.43-2.45-89.06-27.87-151.84,15.17a2,2,0,0,1-2.56-.33,1.58,1.58,0,0,1,.37-2.34c55.07-37.76,124.08-24.16,147.61-17.88-37.94-31.7-92.9-75-155-116-10.77-3.92-89.49-29.86-168.12,15.54a1.94,1.94,0,0,1-2.53-.51,1.58,1.58,0,0,1,.57-2.3c66.24-38.26,132.53-26.83,159.82-19.43-52.74-34.1-110.13-66-166.37-87.36-10.53-3.14-49.67-11.3-108.45,17.4a2,2,0,0,1-.74.2,1.87,1.87,0,0,1-1.74-.88A1.6,1.6,0,0,1,366.17,2200Z"/><path fill="#3f8b83" d="M981.41,2436.75S1086,2352,1077,2287.92s-61.43-57.59-43.59-109,25.9-96.79,1.78-136.71-60.62-51.32-83.45-109.12-65.11-94.69-110.08-86.44S779.06,1928.2,809,1957.41s-24.9,61.85-9.94,123.78,59.86,58.42,54.52,108.08S710.62,2314.31,981.41,2436.75Z"/><path fill="#1fa47c" d="M814.86,1900c46.25,13.89,71.2,33.68,84.18,48.29-14.36-30.46-31.45-57.75-51.83-79.86a1.66,1.66,0,0,1,.24-2.48,2.06,2.06,0,0,1,2.71.21c24.31,26.39,44,60,60,97.63a31.84,31.84,0,0,1,1.83,3.93,1.67,1.67,0,0,1,.09.73,662.08,662.08,0,0,1,28.6,87.72c5.45-13.13,22.62-45.68,58.93-45.63a1.76,1.76,0,1,1,0,3.51c-42.28,0-57.08,48-57.22,48.44l-.07.11c7.66,31,13.66,62.63,18.37,93.72l.47,1.11a1.62,1.62,0,0,1-.11,1.38c5.57,37.35,9.28,73.79,11.71,107.07,5.87-13.91,21-43.19,50.33-60.71a2,2,0,0,1,2.66.51,1.67,1.67,0,0,1-.56,2.43c-38,22.72-51.54,66.06-51.67,66.5a1.34,1.34,0,0,1-.13.23c2.11,31.21,3.11,59.3,3.54,82.38a1.63,1.63,0,0,1,0,1.19c.67,38-.21,62.06-.25,63a1.87,1.87,0,0,1-2,1.69,2.08,2.08,0,0,1-1.23-.46,1.69,1.69,0,0,1-.62-1.36c0-.76.58-15.69.5-40.4,0,0-.12,0-.17-.07a1.53,1.53,0,0,1-.42-.52c-.49-.9-49.75-90.54-127.77-106.8a1.76,1.76,0,0,1-1.45-2.1,1.94,1.94,0,0,1,2.3-1.33c69,14.39,115.75,84.42,127.46,103.71,0-5-.1-10.24-.2-15.82-3.35-6.95-41.49-82.22-123-94.6a2,2,0,0,1-1-.43,1.69,1.69,0,0,1-.6-1.59,1.91,1.91,0,0,1,2.21-1.44c71.55,10.85,110.38,68.75,122.25,89.69-1.14-49.45-4.93-119.19-15.92-192.22-4.56-10.34-40.15-84-135.2-105.65a2,2,0,0,1-.84-.41,1.66,1.66,0,0,1-.57-1.72,2,2,0,0,1,2.34-1.28c80.07,18.26,118.73,72.69,132.4,97.06-9.89-61.48-25-124.58-48.07-179.25-5-9.61-26.67-42.77-93.36-62.8a1.88,1.88,0,0,1-.7-.37,1.67,1.67,0,0,1-.53-1.85A2,2,0,0,1,814.86,1900Z"/><path fill="#9bcea8" d="M889.82,2455.58s82.39-139.2,42.09-210.36-98.32-43.23-101.49-110-14.87-122.74-61.51-159.87-94.46-36.24-147.93-94.7-119.86-85-168.38-57.95-35,119.28,13.48,141.68-.22,81.66,46,148S609,2157.11,625.84,2217,517.57,2418,889.82,2455.58Z"/><path fill="#1fa47c" d="M446.21,1895.18c60.3-1.76,98.56,11.6,120.47,23.57-30.89-29.89-63.48-55-97.5-72.88a2.08,2.08,0,0,1-.88-3,2.54,2.54,0,0,1,3.26-.8c40.59,21.3,79.16,52.81,115.22,90.42a45.09,45.09,0,0,1,4,3.86,2,2,0,0,1,.44.83c26.11,27.74,50.87,58.6,74.11,91,.23-17.4,5.09-62,47.39-76a2.44,2.44,0,0,1,3,1.3,2.12,2.12,0,0,1-1.42,2.79c-49.26,16.34-44.16,78-44.1,78.59,0,0,0,.1,0,.16,23.32,33.07,45,67.62,65,102,.66.67,1,1.05,1.07,1.11a2,2,0,0,1,.52,1.65c23.86,41.32,45.13,82.31,63.44,120.12.37-18.47,4.42-58.46,30.35-90.21a2.54,2.54,0,0,1,3.34-.44,2.05,2.05,0,0,1,.48,3.05c-33.64,41.18-29.28,96.91-29.23,97.47a1.55,1.55,0,0,1,0,.31c17,35.53,31.21,67.85,42.44,94.56a2.08,2.08,0,0,1,.58,1.37c18.46,44,28.62,72.35,29,73.49a2.14,2.14,0,0,1-1.54,2.74,2.55,2.55,0,0,1-1.64-.06,2.25,2.25,0,0,1-1.36-1.34c-.32-.9-6.62-18.5-18.21-47.22-.07,0-.15,0-.22,0a2.42,2.42,0,0,1-.74-.44c-1-.87-100-86.13-198.45-74.81a2.35,2.35,0,0,1-2.67-1.89,2.22,2.22,0,0,1,2.07-2.43c87.06-10,174,53.39,196.65,71.32-2.35-5.75-4.89-11.88-7.6-18.34-7.13-6.8-86.55-79.65-187.27-62.43a2.65,2.65,0,0,1-1.35-.12,2.23,2.23,0,0,1-1.43-1.62,2.19,2.19,0,0,1,1.9-2.54c88.36-15.11,160.5,37.24,184.06,57-24.32-57.13-61.18-136.87-108-217.63-10.12-10.27-85.8-82.19-206.57-70.58a2.48,2.48,0,0,1-1.16-.16,2.21,2.21,0,0,1-1.47-1.78,2.25,2.25,0,0,1,2.12-2.4c101.74-9.79,172.07,38.6,199.32,61.67-40.11-67.76-87.08-135.36-139.35-190.07-10.34-9.24-51-39.45-137.92-36.91a2.71,2.71,0,0,1-1-.16,2.18,2.18,0,0,1-1.47-2A2.27,2.27,0,0,1,446.21,1895.18Z"/><ellipse cx="2314.72" cy="2552.45" fill="#0b99d1" rx="1852.09" ry="273.83"/><path fill="#699fcc" d="M3144.2,2515.79V1194.92a58.94,58.94,0,0,1,58.92-59h840.67a58.94,58.94,0,0,1,58.92,59V2515.79Z"/><path fill="#fff" d="M3204.43,2002.12v-727.9a51.54,51.54,0,0,1,51.52-51.55h735a51.54,51.54,0,0,1,51.52,51.55v727.9Z"/><path fill="#3641ab" d="M3277.76,1559.21V1333.4a42.52,42.52,0,0,1,42.5-42.53h606.39a42.52,42.52,0,0,1,42.5,42.53v225.81Z"/><path fill="#1d2289" d="M3320.26,1290.87h606.39a42.52,42.52,0,0,1,42.5,42.53v14.34c0-22-19-39.84-42.5-39.84H3320.26c-23.47,0-42.5,17.84-42.5,39.84V1333.4A42.52,42.52,0,0,1,3320.26,1290.87Z"/><ellipse cx="3834.6" cy="1736.44" fill="#699fcc" rx="126.69" ry="126.78"/><ellipse cx="3834.6" cy="1736.44" fill="#3641ab" rx="103.12" ry="103.19"/><path fill="#f79831" d="M3834.6,1633.24a103.15,103.15,0,0,1,103.12,103.2H3731.49A103.15,103.15,0,0,1,3834.6,1633.24Z"/><path fill="#ffcd4c" d="M3834.6,1680.42a56,56,0,0,1,56,56h-112A56,56,0,0,1,3834.6,1680.42Z"/><ellipse cx="3415.58" cy="1736.44" fill="#699fcc" rx="126.69" ry="126.78"/><ellipse cx="3415.58" cy="1736.44" fill="#3641ab" rx="103.12" ry="103.19"/><path fill="#f79831" d="M3415.58,1633.24a103.16,103.16,0,0,1,103.12,103.2H3312.46A103.16,103.16,0,0,1,3415.58,1633.24Z"/><rect width="56.6" height="39.31" x="3852.32" y="1466.17" fill="#fff" transform="rotate(180 3880.615 1485.825)"/><rect width="56.6" height="132.35" x="3766.81" y="1373.13" fill="#fff" transform="rotate(180 3795.115 1439.31)"/><rect width="56.6" height="114" x="3681.31" y="1391.48" fill="#fff" transform="rotate(180 3709.61 1448.48)"/><rect width="56.6" height="87.8" x="3595.81" y="1417.69" fill="#fff" transform="rotate(180 3624.11 1461.585)"/><rect width="56.6" height="154.63" x="3510.31" y="1350.86" fill="#fff" transform="rotate(180 3538.61 1428.17)"/><rect width="56.6" height="94.35" x="3424.81" y="1411.14" fill="#fff" transform="rotate(180 3453.105 1458.31)"/><rect width="56.6" height="52.42" x="3339.31" y="1453.07" fill="#fff" transform="rotate(180 3367.605 1479.275)"/><path fill="#ffcd4c" d="M3415.58,1680.42a56,56,0,0,1,56,56h-112A56,56,0,0,1,3415.58,1680.42Z"/><path fill="#fff" d="M3437.19,1736.44H3394c0-11.94,21.61-78.13,21.61-78.13S3437.19,1724.5,3437.19,1736.44Z"/><path fill="#fff" d="M3856.21,1736.44H3813c0-11.94,21.6-78.13,21.6-78.13S3856.21,1724.5,3856.21,1736.44Z"/><path d="M3054.59,1658.66a6,6,0,0,0-4.32,7.27l1.12,4.41a6,6,0,0,0,7.22,4.34l85.78-21.58a6,6,0,0,0,4.35-7.25l-1.11-4.43a6,6,0,0,0-7.26-4.34Z"/><path d="M3066.54,1634.14a6,6,0,0,0-3.62,7.61l1.53,4.3a5.93,5.93,0,0,0,7.6,3.62l83.37-29.53a6,6,0,0,0,3.63-7.62l-1.51-4.28a6,6,0,0,0-7.63-3.64Z"/><path d="M3086.1,1702.84a6,6,0,0,0-.95,8.37l2.84,3.58a6,6,0,0,0,8.35,1l69.36-54.92a6,6,0,0,0,1-8.38l-2.84-3.57a6,6,0,0,0-8.37-1Z"/><path d="M3062.67,1686.52a6,6,0,0,0-2.43,8.07l2.13,4a6,6,0,0,0,8.06,2.45l78.06-41.59a6,6,0,0,0,2.47-8.07l-2.15-4a6,6,0,0,0-8.08-2.47Z"/><path d="M3203.83,1313.77a19,19,0,0,0,26.33,5.29l12.12-8.07a19,19,0,0,0,5.28-26.32L3175.24,1176a19,19,0,0,0-26.32-5.28l-12.13,8.07a19,19,0,0,0-5.28,26.32Z"/><path d="M3146.44,1604.25a16.05,16.05,0,0,0,9.83,20.43l11.6,4a16,16,0,0,0,20.41-9.84l36.25-103.95a16,16,0,0,0-9.84-20.39l-11.59-4a16,16,0,0,0-20.42,9.85Z"/><path fill="#f1f2f2" d="M3030.54,1107.24A93.91,93.91,0,1,0,3134.77,1025,93.9,93.9,0,0,0,3030.54,1107.24Z"/><path fill="#006dac" d="M3030.54,1107.24A93.91,93.91,0,1,0,3134.77,1025,93.9,93.9,0,0,0,3030.54,1107.24Z"/><path fill="#140a7f" d="M3098.57,1027.78a93.87,93.87,0,0,0,69.23,173.35,93.88,93.88,0,1,1-69.23-173.35Z"/><path fill="#006dac" d="M3107.93,1620.57a49.54,49.54,0,1,0,55-43.41A49.54,49.54,0,0,0,3107.93,1620.57Z"/><path fill="#140a7f" d="M3137.81,1581a49.3,49.3,0,0,0,47.52,85.89,49.36,49.36,0,1,1-47.52-85.89Z"/><path fill="#fff" d="M3141.83,1474.45a57,57,0,0,0,49.9,63.23l9.46,1.11a57,57,0,0,0,63.21-49.92l20.51-174.42a56.94,56.94,0,0,0-49.9-63.22l-9.45-1.11a57,57,0,0,0-63.23,49.91Z"/><path fill="#7e98fa" d="M3189.88,1257.75a56.63,56.63,0,0,0-14.52,31.67l-20.5,174.41a57,57,0,0,0,49.92,63.23l9.43,1.12a56.65,56.65,0,0,0,35.69-7.66,56.77,56.77,0,0,1-48.71,18.27l-9.46-1.11a57,57,0,0,1-49.9-63.23l20.5-174.42A56.91,56.91,0,0,1,3189.88,1257.75Z" opacity=".42"/><path d="M3106.93,1662.73a7,7,0,0,0-.7,9.91l3.53,4.08a7,7,0,0,0,9.91.69l36.51-31.67a7,7,0,0,0,.71-9.92l-3.54-4.08a7,7,0,0,0-9.92-.69Z"/><path fill="#3387d2" d="M3159.37,1045.84c-16.53,4.75-23.78,30-16.2,56.41s27.14,44,43.68,39.2,23.78-30,16.2-56.4S3175.91,1041.09,3159.37,1045.84Z"/><path fill="#3387d2" d="M3172.33,1592.16c-11,3.17-16.36,18.43-11.86,34.07s17.09,25.76,28.14,22.58,16.37-18.43,11.87-34.08S3183.39,1589,3172.33,1592.16Z"/><path d="M2097.78,977a6,6,0,0,0-6.91-4.87l-4.48.76a6,6,0,0,0-4.9,6.86l14.72,87.22a6,6,0,0,0,6.88,4.9l4.51-.75a6,6,0,0,0,4.9-6.89Z"/><path d="M2121.28,990.86a6,6,0,0,0-7.3-4.21l-4.41,1.18a6,6,0,0,0-4.21,7.3l22.84,85.44a6,6,0,0,0,7.3,4.22l4.39-1.17a6,6,0,0,0,4.23-7.32Z"/><path d="M2051.24,1004.93a6,6,0,0,0-8.27-1.61l-3.79,2.54a6,6,0,0,0-1.64,8.25l49.25,73.49a6,6,0,0,0,8.27,1.63l3.8-2.55a6,6,0,0,0,1.64-8.27Z"/><path d="M2069.37,982.86a6,6,0,0,0-7.85-3.06l-4.19,1.81a6,6,0,0,0-3.09,7.83l35.29,81.1a6,6,0,0,0,7.85,3.11l4.18-1.83a6,6,0,0,0,3.1-7.85Z"/><path d="M2429.77,1153.08a19,19,0,0,0-7.36,25.82l7.09,12.73a19,19,0,0,0,25.83,7.34l114-63.49a19,19,0,0,0,7.35-25.82l-7.08-12.73a19,19,0,0,0-25.82-7.35Z"/><path d="M2144.74,1072.87a16.07,16.07,0,0,0-21.14,8.19l-4.92,11.24a16,16,0,0,0,8.19,21.13l100.75,44.36a16,16,0,0,0,21.11-8.19l4.95-11.24a16,16,0,0,0-8.21-21.13Z"/><path fill="#f1f2f2" d="M2649.37,996.67a93.91,93.91,0,1,0,73.78,110.42A93.91,93.91,0,0,0,2649.37,996.67Z"/><path fill="#3387d2" d="M2649.37,996.67a93.91,93.91,0,1,0,73.78,110.42A93.91,93.91,0,0,0,2649.37,996.67Z"/><path fill="#006dac" d="M2723.2,1070.78a93.88,93.88,0,0,0-178.29,55.29,93.88,93.88,0,1,1,178.29-55.29Z"/><path fill="#006dac" d="M2131.52,1033.19a49.54,49.54,0,1,0,38.92,58.26A49.53,49.53,0,0,0,2131.52,1033.19Z"/><path fill="#140a7f" d="M2168.62,1066.12a49.3,49.3,0,0,0-89.38,40.57,49.36,49.36,0,1,1,89.38-40.57Z"/><path fill="#fff" d="M2274.5,1078.55a57,57,0,0,0-67,44.75l-1.85,9.34a57,57,0,0,0,44.76,67l172.25,34.25a56.94,56.94,0,0,0,67-44.74l1.86-9.33a57,57,0,0,0-44.75-67Z"/><path fill="#7e98fa" d="M2486.72,1143.6a56.58,56.58,0,0,0-30.41-17l-172.25-34.25a57,57,0,0,0-67,44.76l-1.86,9.32a56.63,56.63,0,0,0,4.81,36.18,56.75,56.75,0,0,1-14.36-50l1.85-9.34a57,57,0,0,1,67-44.75l172.26,34.25A56.87,56.87,0,0,1,2486.72,1143.6Z" opacity=".42"/><path d="M2089.58,1028.87a7,7,0,0,0-9.82-1.49l-4.35,3.19a7,7,0,0,0-1.48,9.83l28.69,38.9a7,7,0,0,0,9.83,1.49l4.34-3.2a7,7,0,0,0,1.48-9.84Z"/><path fill="#fff" d="M2700.38,1130c-3.43-16.86-28-26.09-55-20.62s-46,23.58-42.54,40.44,28,26.08,55,20.61S2703.81,1146.82,2700.38,1130Z" opacity=".5"/><path fill="#3387d2" d="M2154.75,1099.65c-2.29-11.27-17.07-17.77-33-14.53s-27,15-24.73,26.27,17.08,17.77,33,14.53S2157.05,1110.91,2154.75,1099.65Z"/><path fill="#fff" d="M3079.05,1474.92a74.6,74.6,0,0,1-74.6,74.6H2705.88a74.61,74.61,0,0,1-74.61-74.6L2594,1036.15a74.6,74.6,0,0,1,74.59-74.6h373.18a74.61,74.61,0,0,1,74.61,74.6Z"/><path fill="#7e98fa" d="M3072.6,968.39l-37,435.18a74.6,74.6,0,0,1-74.6,74.6H2662.42a74,74,0,0,1-31.48-7.19l.34,3.94a74.6,74.6,0,0,0,74.6,74.6h298.57a74.6,74.6,0,0,0,74.6-74.6l37.31-438.77A74.48,74.48,0,0,0,3072.6,968.39Z" opacity=".42"/><path fill="#3387d2" d="M3104,995a74.5,74.5,0,0,0-62.22-33.47H2668.57a74.52,74.52,0,0,0-21.77,3.25c-2.63.92-5.26,1.84-7.65,2.79a74.73,74.73,0,0,0-30.49,24.25,13.41,13.41,0,0,0-.55,2.46c0,30.48,111,55.18,248,55.18C2992,1049.48,3102.22,1025.16,3104,995Z"/><path fill="#3a87c4" d="M3099.46,1234.9l1.73-20.35-98.36,52.64a100.59,100.59,0,0,0-48.24,57.31l-19.76,59.59a83.92,83.92,0,0,1-159.33,0l-19.75-59.59a100.68,100.68,0,0,0-48.25-57.31l-98.36-52.64,1.73,20.35,88.55,47.38a83.65,83.65,0,0,1,40.06,47.61l19.76,59.59a101.06,101.06,0,0,0,191.86,0l19.75-59.59a83.57,83.57,0,0,1,40.06-47.61Z"/><path fill="#006dac" d="M2991.13,1111H2719.2a10.89,10.89,0,0,0-9.32,16.53l44.18,73a52.09,52.09,0,0,0,44.56,25.11h113.09a52.06,52.06,0,0,0,44.55-25.11l44.18-73A10.89,10.89,0,0,0,2991.13,1111Z"/><path fill="#3387d2" d="M2798.62,1208a34.67,34.67,0,0,1-29.49-16.62L2744.7,1151a14.78,14.78,0,0,1,12.64-22.43H2953a14.78,14.78,0,0,1,12.63,22.43l-24.43,40.36a34.65,34.65,0,0,1-29.48,16.62Z"/><path fill="#140a7f" d="M2745,935.32A11,11,0,0,1,2756,924.27a11.06,11.06,0,0,1,0-22.11h200a11.06,11.06,0,0,1,0,22.11,11,11,0,1,1,0,22.1,11.05,11.05,0,0,1,11.05,11h0A11.05,11.05,0,0,1,2956,968.47H2756A11.05,11.05,0,0,1,2745,957.42h0a11.05,11.05,0,0,1,11.05-11A11.05,11.05,0,0,1,2745,935.32Z"/><path fill="#006dac" d="M3027,966.35c0,26.91-76.92,48.72-171.8,48.72s-171.79-21.81-171.79-48.72a15.71,15.71,0,0,1,2.25-7.9h339.09A15.71,15.71,0,0,1,3027,966.35Z"/><path fill="#3387d2" d="M3119.76,813.25c13.38-14.57,19.23-40.81,21.44-54.18a50.51,50.51,0,0,0,0-16.64c-2.21-13.37-8.06-39.61-21.44-54.17-17.66-13.43-57.92-6.68-57.92-6.68V819.92S3102.1,826.67,3119.76,813.25Z"/><path fill="#006dac" d="M3135.43,783.37c-15.13,7.32-34.68,9-33.56-4.4,6.18-36.64-12.88-79.82-22.71-99a149,149,0,0,0-17.32,1.59V819.92s40.26,6.75,57.92-6.67C3127,805.4,3132,794.16,3135.43,783.37Z"/><path fill="#3387d2" d="M2592.09,813.25c-13.38-14.57-19.23-40.81-21.44-54.18a50.51,50.51,0,0,1,0-16.64c2.21-13.37,8.06-39.61,21.44-54.17,17.66-13.43,57.92-6.68,57.92-6.68V819.92S2609.75,826.67,2592.09,813.25Z"/><path fill="#006dac" d="M2576.42,783.37c15.13,7.32,34.69,9,33.57-4.4-6.19-36.64,12.87-79.82,22.71-99a149,149,0,0,1,17.31,1.59V819.92s-40.26,6.75-57.92-6.67C2584.88,805.4,2579.87,794.16,2576.42,783.37Z"/><path fill="#fff" d="M3089.09,748.82c0,93.32-104.39,169-233.16,169s-233.16-75.65-233.16-169,104.38-169,233.16-169S3089.09,655.5,3089.09,748.82Z"/><path fill="#7e98fa" d="M3048.35,653.41c12.69,20.85,19.79,43.88,19.79,68.13,0,93.32-104.39,169-233.16,169-79.92,0-150.4-29.15-192.42-73.56,36.16,59.38,118.06,100.84,213.37,100.84,128.77,0,233.16-75.65,233.16-169C3089.09,713.41,3074,680.56,3048.35,653.41Z" opacity=".42"/><path fill="#3387d2" d="M2920.09,613c0,13.17-28.73,23.84-64.17,23.84-3.7,0-7.33-.12-10.87-.34-30.25-1.92-53.28-11.71-53.28-23.5s22.63-50,52.49-58.42a42.78,42.78,0,0,1,11.66-1.66C2891.36,552.88,2920.09,599.8,2920.09,613Z"/><rect width="358.8" height="142.28" x="2676.53" y="677.68" fill="#006dac" rx="66.13"/><rect width="330.59" height="114.07" x="2690.64" y="691.78" fill="#140a7f" rx="52.02"/><path fill="#bce6f7" d="M2791.77,748.82a32.37,32.37,0,1,1-32.36-32.36A32.36,32.36,0,0,1,2791.77,748.82Z"/><circle cx="2952.45" cy="748.82" r="32.36" fill="#bce6f7"/><polygon fill="#fff" points="2806.15 805.86 2851.18 805.86 2883.89 691.78 2838.86 691.78 2806.15 805.86" opacity=".5"/><polygon fill="#fff" points="2860.03 805.86 2870.45 805.86 2903.16 691.78 2892.74 691.78 2860.03 805.86" opacity=".5"/><path fill="gray" fill-rule="evenodd" d="M2814.05,833.16h0a5.12,5.12,0,0,1,5.17,5.17v35.54a5.12,5.12,0,0,1-5.17,5.17h0a5.32,5.32,0,0,1-5.16-5.17V838.33a5.32,5.32,0,0,1,5.16-5.17Z"/><path fill="gray" fill-rule="evenodd" d="M2836.53,833.16h0a5.33,5.33,0,0,1,5.17,5.17v35.54a5.33,5.33,0,0,1-5.17,5.17h0a5.12,5.12,0,0,1-5.16-5.17V838.33a5.12,5.12,0,0,1,5.16-5.17Z"/><path fill="gray" fill-rule="evenodd" d="M2858.71,833.16h0a5.33,5.33,0,0,1,5.17,5.17v35.54a5.33,5.33,0,0,1-5.17,5.17h0a5.32,5.32,0,0,1-5.16-5.17V838.33a5.32,5.32,0,0,1,5.16-5.17Z"/><path fill="gray" fill-rule="evenodd" d="M2880.89,833.16h0a5.12,5.12,0,0,1,5.16,5.17v35.54a5.12,5.12,0,0,1-5.16,5.17h0a5.33,5.33,0,0,1-5.17-5.17V838.33a5.33,5.33,0,0,1,5.17-5.17Z"/><path fill="#006dac" d="M2920.09,613c0,13.17-28.73,23.84-64.17,23.84-3.7,0-7.33-.12-10.87-.34,9.23-5.58,20.7-14.24,26.23-25.3,6.52-13-12-38.74-27-56.62a42.78,42.78,0,0,1,11.66-1.66C2891.36,552.88,2920.09,599.8,2920.09,613Z"/><path fill="#231f20" d="M2288.5,1131a19.27,19.27,0,1,1-22.85,14.86A19.29,19.29,0,0,1,2288.5,1131Z" opacity=".3"/><path fill="#06486d" d="M2286.57,1132.86a19.27,19.27,0,1,1-22.85,14.85A19.28,19.28,0,0,1,2286.57,1132.86Z"/><path fill="#3a87c4" d="M2285.48,1138a14,14,0,1,1-16.62,10.8A14,14,0,0,1,2285.48,1138Z"/><path fill="#06486d" d="M2284.64,1142a10,10,0,1,1-11.81,7.68A10,10,0,0,1,2284.64,1142Z"/><path fill="#06486d" d="M2400.63,1141.48a34.52,34.52,0,1,1-40.93,26.6A34.5,34.5,0,0,1,2400.63,1141.48Z"/><path fill="#fff" d="M2398.68,1150.67A25.12,25.12,0,1,1,2368.9,1170,25.13,25.13,0,0,1,2398.68,1150.67Z"/><path fill="#06486d" d="M2397.17,1157.79a17.84,17.84,0,1,1-21.15,13.75A17.85,17.85,0,0,1,2397.17,1157.79Z"/><path fill="#231f20" d="M3184.38,1456.72A19.27,19.27,0,1,1,3200.1,1479,19.28,19.28,0,0,1,3184.38,1456.72Z" opacity=".3"/><path fill="#06486d" d="M3186.29,1458.58a19.27,19.27,0,1,1,15.72,22.26A19.28,19.28,0,0,1,3186.29,1458.58Z"/><path fill="#3a87c4" d="M3191.46,1459.47a14,14,0,1,1,11.45,16.19A14,14,0,0,1,3191.46,1459.47Z"/><path fill="#06486d" d="M3195.47,1460.15a10,10,0,1,1,8.12,11.51A10,10,0,0,1,3195.47,1460.15Z"/><path fill="#06486d" d="M3190.49,1344.27a34.52,34.52,0,1,1,28.16,39.87A34.51,34.51,0,0,1,3190.49,1344.27Z"/><path fill="#fff" d="M3199.76,1345.87a25.11,25.11,0,1,1,20.49,29A25.12,25.12,0,0,1,3199.76,1345.87Z"/><path fill="#06486d" d="M3206.93,1347.1a17.84,17.84,0,1,1,14.55,20.6A17.84,17.84,0,0,1,3206.93,1347.1Z"/><path fill="#3641ab" d="M868,1764.57l2098.79,5.55a87.65,87.65,0,0,0,87.85-87.45h0a87.66,87.66,0,0,0-87.39-87.92L868.5,1589.2a87.66,87.66,0,0,0-87.86,87.46h0A87.65,87.65,0,0,0,868,1764.57Z"/><path fill="#212c4a" d="M868.45,1606.42,2967.24,1612a70.47,70.47,0,0,1-.37,140.93l-2098.79-5.55a70.47,70.47,0,0,1,.37-140.93Zm0-17.22a87.66,87.66,0,0,0-87.86,87.46h0A87.65,87.65,0,0,0,868,1764.57l2098.79,5.55a87.65,87.65,0,0,0,87.85-87.45h0a87.66,87.66,0,0,0-87.39-87.92L868.5,1589.2Z"/><ellipse cx="2965.76" cy="1682.43" fill="#5863d2" rx="57.77" ry="57.81"/><ellipse cx="872.9" cy="1676.9" fill="#5863d2" rx="57.77" ry="57.81"/><rect width="95.41" height="144.08" x="1489.67" y="1605.69" fill="#1d2289" transform="rotate(-179.85 1537.359 1677.745)"/><rect width="141.59" height="95.41" x="1262.15" y="1630.49" fill="#1d285c" transform="rotate(-89.85 1332.916 1678.192)"/><rect width="141.59" height="95.41" x="1045.88" y="1629.94" fill="#1d285c" transform="rotate(-89.85 1116.637 1677.64)"/><rect width="141.59" height="95.41" x="2730.79" y="1634.55" fill="#1d2289" transform="rotate(-89.85 2801.531 1682.273)"/><rect width="141.59" height="95.41" x="2515.44" y="1633.98" fill="#1d2289" transform="rotate(-89.85 2586.183 1681.698)"/><rect width="141.59" height="95.41" x="2308.26" y="1633.44" fill="#1d2289" transform="rotate(-89.85 2379.01 1681.148)"/><rect width="141.59" height="95.41" x="2107.55" y="1634.8" fill="#1d2289" transform="rotate(-89.85 2178.3 1682.513)"/><rect width="141.59" height="95.41" x="1895.92" y="1630.7" fill="#1d2289" transform="rotate(-89.85 1966.677 1678.414)"/><rect width="141.59" height="95.41" x="1681.56" y="1627.97" fill="#1d2289" transform="rotate(-89.85 1752.317 1675.676)"/><polygon fill="#3641ab" points="2319.09 1801.21 2535.42 2018.84 1540.23 2016.21 1323.91 1798.58 2319.09 1801.21"/><polygon fill="#3641ab" points="2670.64 1802.14 2886.97 2019.77 2799.72 2019.54 2583.39 1801.91 2670.64 1802.14"/><path fill="#3641ab" d="M861.45,1799.37,1075.78,2015l-197.7-.52a75,75,0,0,1-74.8-75.25l.18-67A75,75,0,0,1,861.45,1799.37Z"/><path fill="#3641ab" d="M2979.36,1803a75,75,0,0,1,74.8,75.24l-.18,67a75.06,75.06,0,0,1-56.46,72.54l-214-215.26Z"/><polygon fill="#1061a0" points="1211 1798.28 1427.33 2015.91 1340.08 2015.68 1123.76 1798.05 1211 1798.28"/><polygon fill="#1d2289" points="2583.39 1801.91 2799.72 2019.54 2535.42 2018.84 2319.09 1801.21 2583.39 1801.91"/><path fill="#1d2289" d="M2783.55,1802.44l214,215.26a75.14,75.14,0,0,1-18.73,2.31l-91.82-.24-216.33-217.63Z"/><path fill="#1d2289" d="M878.65,1797.41l245.1.64,216.33,217.63-264.3-.7L861.45,1799.37A74.47,74.47,0,0,1,878.65,1797.41Z"/><polygon fill="#1d2289" points="1323.91 1798.58 1540.23 2016.21 1427.33 2015.91 1211 1798.28 1323.91 1798.58"/><path fill="#1d2289" d="M2256.08,1970.62l-672.74-1.78a5.46,5.46,0,0,0-5.48,5.45l-.1,36.72a5.48,5.48,0,0,0,5.46,5.48l672.74,1.78a5.47,5.47,0,0,0,5.48-5.45l.1-36.72A5.48,5.48,0,0,0,2256.08,1970.62Z"/><path fill="#212c4a" d="M1604.66,1821.63l625.24,1.65a37.67,37.67,0,0,0,37.76-37.59h0a37.67,37.67,0,0,0-37.56-37.78l-625.24-1.65a37.67,37.67,0,0,0-37.76,37.58h0A37.68,37.68,0,0,0,1604.66,1821.63Z"/><rect width="163.84" height="504.18" x="2734.11" y="2018.02" fill="#212c4a"/><rect width="163.84" height="504.18" x="2326.32" y="2018.02" fill="#212c4a"/><rect width="163.84" height="504.18" x="1884.85" y="2018.02" fill="#212c4a"/><rect width="163.84" height="504.18" x="1444.29" y="2016.2" fill="#212c4a"/><rect width="163.84" height="504.18" x="972.79" y="2007.09" fill="#212c4a"/><rect width="229.44" height="262.89" x="2743.99" y="1330.76" fill="#f9689d"/><rect width="229.44" height="210.63" x="2743.99" y="1360.85" fill="#fcbc68"/><rect width="244.77" height="9.09" x="2736.32" y="1330.76" fill="#e75c5b" rx="3.13"/><rect width="140.94" height="17.87" x="2793.32" y="1392.19" fill="#ffebb6"/><rect width="71.88" height="17.87" x="2822.77" y="1430.43" fill="#ffebb6"/><rect width="244.77" height="9.09" x="2736.32" y="1584.56" fill="#e75c5b" rx="3.13"/><polygon fill="#e75c5b" points="2973.43 1584.56 2743.99 1584.56 2743.99 1339.85 2973.43 1339.85 2818.69 1349.9 2818.69 1574.63 2973.43 1584.56" opacity=".31"/><rect width="229.44" height="262.89" x="2216.97" y="1330.76" fill="#f9689d"/><rect width="229.44" height="210.63" x="2216.97" y="1360.85" fill="#fcbc68"/><rect width="244.77" height="9.09" x="2209.31" y="1330.76" fill="#e75c5b" rx="3.13"/><rect width="140.94" height="17.87" x="2266.3" y="1392.19" fill="#ffebb6"/><rect width="71.88" height="17.87" x="2295.75" y="1430.43" fill="#ffebb6"/><rect width="244.77" height="9.09" x="2209.31" y="1584.56" fill="#e75c5b" rx="3.13"/><polygon fill="#e75c5b" points="2446.42 1584.56 2216.97 1584.56 2216.97 1339.85 2446.42 1339.85 2291.67 1349.9 2291.67 1574.63 2446.42 1584.56" opacity=".31"/><rect width="229.44" height="262.89" x="1958.02" y="713.95" fill="#f9689d"/><rect width="229.44" height="210.63" x="1958.02" y="744.04" fill="#fcbc68"/><rect width="244.77" height="9.09" x="1950.36" y="713.95" fill="#e75c5b" rx="3.13"/><rect width="140.94" height="17.87" x="2007.35" y="775.39" fill="#ffebb6"/><rect width="71.88" height="17.87" x="2036.8" y="813.62" fill="#ffebb6"/><rect width="244.77" height="9.09" x="1950.36" y="967.75" fill="#89cfc0" rx="3.13"/><polygon fill="#e75c5b" points="2187.46 967.75 1958.02 967.75 1958.02 723.04 2187.46 723.04 2032.72 733.09 2032.72 957.82 2187.46 967.75" opacity=".31"/><rect width="229.44" height="262.89" x="1755.08" y="1330.76" fill="#f9689d"/><rect width="229.44" height="210.63" x="1755.08" y="1360.85" fill="#fcbc68"/><rect width="244.77" height="9.09" x="1747.42" y="1330.76" fill="#e75c5b" rx="3.13"/><rect width="140.94" height="17.87" x="1804.42" y="1392.19" fill="#ffebb6"/><rect width="71.88" height="17.87" x="1833.86" y="1430.43" fill="#ffebb6"/><rect width="244.77" height="9.09" x="1747.42" y="1584.56" fill="#e75c5b" rx="3.13"/><polygon fill="#e75c5b" points="1984.53 1584.56 1755.08 1584.56 1755.08 1339.85 1984.53 1339.85 1829.79 1349.9 1829.79 1574.63 1984.53 1584.56" opacity=".31"/><path fill="#fab995" d="M1690.52,891.26l45.83,43.87s-104.19,283.19-127.13,321.17-110.53,8.73-96.44-42.47S1690.52,891.26,1690.52,891.26Z"/><path fill="#fab995" d="M1345.69,857.09c-7.2,10.46-26.1,50.21-7.37,88.26s152.49,291.85,196.44,316.74c14.27,8.08,95.39-3.55,78.22-68.17,0,0-106.32-278.19-144.63-320.07C1430.9,832.9,1380.26,806.8,1345.69,857.09Z"/><path fill="#fab995" d="M1045.24,1626.89,987,1609.83S945.47,1311,947.4,1266.69s88.41-59.83,99.89-8S1045.24,1626.89,1045.24,1626.89Z"/><polygon fill="#fff" points="1353.58 2498.62 1354.2 2551.83 1291.75 2552.45 1289.89 2496.76 1353.58 2498.62"/><path fill="#e1314c" d="M1447,2586.67s-4.88-14.65-10.51-18.78-45-9.77-52.93-14.65c-6.28-3.89-17.31-19-21.55-25a5.83,5.83,0,0,0-4.77-2.47H1333.9a5.85,5.85,0,0,0-5.78,6.68c.4,2.88.35,5.81-1.2,6.85-3.38,2.25-16,2.18-21,1.13-3.32-.71-12-8.7-14.26-7.89-5.34,1.91-7.4,54.48-5.29,53.69Z"/><path fill="#223952" d="M1287.67,2584.95h158.71a3.33,3.33,0,0,1,3.33,3.33v10.33a3.32,3.32,0,0,1-3.32,3.32H1287.67a3.32,3.32,0,0,1-3.32-3.32v-10.33a3.33,3.33,0,0,1,3.33-3.33Z"/><polygon fill="#fff" points="999.08 2502.85 998.46 2556.06 1060.91 2556.68 1062.76 2500.99 999.08 2502.85"/><path fill="#e1314c" d="M949,2589.89s5.11-18.57,9.22-22.7,24.44-8.61,30.19-13.5c4.58-3.89,2.89-19.55,6-25.53a4.09,4.09,0,0,1,3.48-2.47l37.89.06c2.6,0,3.52,3.2,4.22,6.68.63,3.15,2,7.85,3.18,8.88,2.46,2.26,5.11,3.43,8.78,2.37,2.42-.7,8.77-8.69,10.4-7.89,3.89,1.92,4,54.14,2.46,53.34Z"/><path fill="#223952" d="M951.25,2584.95H1065a4,4,0,0,1,4,4V2598a4,4,0,0,1-4,4H951.25a4,4,0,0,1-4-4v-9.07a4,4,0,0,1,4-4Z"/><path fill="#242424" d="M1454.85,1422.27s-14.61,465.56-23.75,534.69-19.1,562.86-19.1,562.86l-154.5-2.9s-4.74-394.83,2.12-435.35,8.78-151.08,6.49-177.3-17.3-480.67-17.3-480.67Z"/><path fill="#242424" d="M1299.05,1426.58l-21,248.38s-60.71,350.64-64,368.86c-6.86,38.14-90.27,472.52-90.27,472.52l-146.45.72s36.49-392.44,54.78-494.93S1095,1433.21,1095,1433.21Z"/><path d="M1246,1800.46a5.31,5.31,0,0,0,5.21-4.22l42.1-198.48,43.91-28.8a5.34,5.34,0,1,0-5.84-8.93l-45.74,30a5.38,5.38,0,0,0-2.3,3.37L1240.75,1794a5.33,5.33,0,0,0,4.11,6.33A6.71,6.71,0,0,0,1246,1800.46Z"/><path fill="#f19a6d" d="M1327.8,793.45c-2.84-8.79-30.37-28.23-30.37-28.23l-22.14-56s-39,57.8-45.57,70.35-51.64,20-51.64,20c65.63,135.24,215.67,170.57,175.76,6.08C1351.85,803.08,1330.65,802.25,1327.8,793.45Z"/><path fill="#e1314c" d="M1101.66,1428.29,1113,1245.88,1077.56,837.5c41.82-25.15,112.55-42.75,112.55-42.75s147.48,106.51,161.74,105.67c10.36-.61-8-103-8-103s83.79,38.67,87.33,43.7c3.33,5,30.8,109.29,30.8,132.83,0,19.19-24.56,335-30,452.15Z"/><path fill="#e1314c" d="M1568.53,1077.43c-30,51.8-64.62,103.91-123.74,141.69l-19.91-121.61,6.3-256.35s20.77,4.72,43.32,35.19S1568.53,1077.43,1568.53,1077.43Z"/><path fill="#fab995" d="M1067.27,851.26c-11.38,3.65-47.83,32.6-57.39,73.92s-74.84,343-58.63,389.87c5.27,15.21,65.64,31.35,92.26-29.67,0,0,91.65-282.9,89.64-339.44C1131.19,890.68,1122,833.75,1067.27,851.26Z"/><path fill="#fab995" d="M1043.61,1574c7.7,1.83,41.82,31.57,44,34.34,2.47,3.19,9.58,15.31,11.57,18.71s13.47,16.59,13.18,18.52-3.19,5.83-11.63,3.64-20-16.09-23-19.38-14.36-10.09-16.82-9.36,2.19,31.51,2.19,31.51l6.6,27.79s8.17,20.53,8.5,22,3.95,12.64.71,15.55c-1.91,1.72-6.1,3.14-7.92,1.86a31.36,31.36,0,0,1-7-7.45l-9-19.18-12.91-28.08,6.63,25.68,7.64,21.18s7.71,4.84,6.29,7.54-9.55,5.18-12.85,4.19c-2.41-.71-8-5.9-8-5.9s-11.51,1.21-14.08.29-11.32-14.14-11.32-14.14a20,20,0,0,1-3.83,2.25c-1.69.66-9.26-1.33-11.58-3.87s-14-27.43-15.25-32.64c-1.22-4.91-4.81-87.78-1.27-94.18S1035.92,1572.2,1043.61,1574Z"/><path fill="#e37a64" d="M1040.43,1716.9c1.62-.61,1.94-1.65,1.51-2.48l-10-19.55-10.2-29.28a1.72,1.72,0,0,0-2.17-1.07,1.69,1.69,0,0,0-1,2.17l10.29,29.5,10.11,19.76A1.66,1.66,0,0,0,1040.43,1716.9Z"/><path fill="#e37a64" d="M1015.65,1702.76c1.51-.48,1.94-1.46,1.57-2.35L1004,1667.7a1.84,1.84,0,0,0-2.22-1,1.71,1.71,0,0,0-.93,2.24l13.25,32.7A1.67,1.67,0,0,0,1015.65,1702.76Z"/><path fill="#e1314c" d="M1100.85,1187.68l-149.34-17.09s36.78-252.94,75.17-294.85c34.48-37.64,50.88-38.24,50.88-38.24l90.5,12.83Z"/><path fill="#cecece" d="M1111.07,1170.4a5.31,5.31,0,0,0,5.26-4.47l29.46-178.47a5.31,5.31,0,0,0-4.39-6.12,5.13,5.13,0,0,0-6.13,4.41l-29.46,178.47a5.33,5.33,0,0,0,4.39,6.12A4.34,4.34,0,0,0,1111.07,1170.4Z"/><path fill="#cecece" d="M1456.18,1145.31a5.31,5.31,0,0,0,5.32-5l8.07-145.64a5.3,5.3,0,0,0-5-5.63,5.49,5.49,0,0,0-5.61,5l-8.07,145.64a5.31,5.31,0,0,0,5,5.63Z"/><path d="M1232.91,922.08c-19.12-71.3-80.27-116.53-80.27-116.53l24.68-7.4s59,39.87,81.14,116.37c8.9,30.8,10.6,119.43,10.6,119.43l-26.44-1.26C1242.22,987,1237.44,939,1232.91,922.08Z"/><path d="M1417.73,925.2c-19.13-71.3-65.58-124.51-65.58-124.51L1379,811.62s40,28.9,62.07,105.4c8.89,30.8,8,117.43,8,117.43l-26.45-1.26C1422.17,987.47,1422.26,942.1,1417.73,925.2Z"/><path fill="#242424" d="M1099.49,1348.74c5.64-32.23,10.08-71.46,10.08-71.46s97.16-67.83,112.76-100.16c7.58-15.75,14.11-102,16.67-147.41h211.12l-6.42,118,6.5,79.69s12.83,69.81,4.2,201.15l-359.4,4.7c1.6-12.33-4.79-29.26-4.45-47.14C1090.66,1380.11,1096.67,1364.88,1099.49,1348.74Z"/><path fill="#41608c" d="M1420.75,1052.81c-.39,6.72,3.35,12.41,8.34,12.7s9.37-4.93,9.75-11.66-3.34-12.41-8.34-12.7S1421.14,1046.08,1420.75,1052.81Z"/><path fill="#41608c" d="M1246.21,1049.69c-.39,6.73,3.35,12.41,8.35,12.7s9.36-4.93,9.75-11.65S1261,1038.32,1256,1038,1246.6,1043,1246.21,1049.69Z"/><path d="M1119.07,1406.12h304.61a5.32,5.32,0,1,0,0-10.64H1119.07a5.32,5.32,0,1,0,0,10.64Z"/><path fill="#9399cc" d="M1778,713.82l-156.85.42c-7.94,0-15.88,6.44-17.74,14.35l-64.66,263.68c-1.86,7.91,3.08,14.3,11,14.27l156.84-.41c7.95,0,15.89-6.45,17.74-14.35l64.67-263.69C1790.9,720.19,1786,713.8,1778,713.82Z"/><path fill="#1061a0" d="M1778.34,713.82l-147,.4c-7.78,0-15.55,6.21-17.35,13.82l-65.48,264.73c-1.8,7.62,3,13.77,10.83,13.76l147-.4c7.78,0,15.55-6.21,17.35-13.83l65.48-264.73C1791,720,1786.12,713.8,1778.34,713.82Z"/><polygon fill="#fab995" points="1771.09 803.91 1785.16 818.35 1758.1 832.45 1771.09 803.91"/><path fill="#fab995" d="M1772.82,887.69c-1.26,2.64-6,6.61-8.49,11.2-1.55,3.09-2.69,6.43-4.86,8.85-1.83,2.13-24.14,2.22-31.44.43-6-1.47-20.24-9.92-21.54-12.56-1.54-3.17-.54-10.16,2.83-12.18,1.4-.84,8.4,1.7,8.4,1.7s-10.83-5.6-11-6.37c-1-4.24-.47-12.52,4.93-14.59.87-.51,11.15,2.47,11.15,2.47s-6.35-2.12-6.87-2.75c-1.93-2.18-.21-14,4.8-16.9a26.67,26.67,0,0,1,4.59-1.46c-1.06-3.22-.34-14.58,5.49-18.7,2.64-1.86,25.24-2.37,25.24-2.37s28.32-6.65,29.09-6.12c3.66,2.58,5.1,13,2.78,17.27-3.09,5.91-1.79,12.88-3.39,18.66-.38,1.27-5.39,10.77-6.29,14.1C1776.78,873.8,1774.84,883.93,1772.82,887.69Z"/><path fill="#e37a64" d="M1751.77,852.31c.86-.12,27.63-7.31,27.63-7.31a3.33,3.33,0,0,0-1.72-6.43l-26.09,7-23.81-3.67a3.23,3.23,0,0,0-3.79,2.75,3.31,3.31,0,0,0,2.79,3.79l24.49,3.8A2.73,2.73,0,0,0,1751.77,852.31Z"/><path fill="#e37a64" d="M1748.56,873.12c.86-.13,27.63-7.32,27.63-7.32a3.32,3.32,0,0,0-1.72-6.42l-26.09,7-23.82-3.71a3.31,3.31,0,1,0-1,6.55l24.51,3.83A2.84,2.84,0,0,0,1748.56,873.12Z"/><path fill="#e37a64" d="M1743.87,892.61c.85-.12,27.62-7.32,27.62-7.32a3.33,3.33,0,0,0,2.36-4.07,3.36,3.36,0,0,0-4.07-2.35l-26.1,7-23.81-3.67a3.31,3.31,0,1,0-1,6.54l24.5,3.79A2.24,2.24,0,0,0,1743.87,892.61Z"/><path fill="#f19a6d" d="M1239,665.14a692.2,692.2,0,0,1-3.2,139.37,25.37,25.37,0,0,0,10.52,24c21.28,14.91,48.43,21.5,74,17.65a25.08,25.08,0,0,0,21-27,832.33,832.33,0,0,1-2.53-89.58C1313.35,697.38,1278.06,677.71,1239,665.14Z"/><path fill="#ef7c59" d="M1338.76,729.6c-25.41-32.22-60.7-51.89-99.76-64.46,1.55,19.79,2.18,39.64,2,59.48,17.68,48.39,49.68,94.5,92.81,114.62a25.33,25.33,0,0,0,7.46-20.06A832.33,832.33,0,0,1,1338.76,729.6Z"/><path fill="#f19a6d" d="M1273.86,487.31c59.67-10.36,97.32,7.57,116.37,68.87,1,3.11,1.71,6.26,2.52,9.41,3.78,14.84,6.86,33,3,41.48,0,0,32.89,77.22-28.31,144.48-7,7.67-41,3.87-50.59,2.05-80.46-15.39-73.17-103.81-73.17-103.81-1.84-5.33-31.66-7.12-33.41-12.64C1193.46,584.21,1201,500,1273.86,487.31Z"/><path fill="#ef7c59" d="M1376.29,654.69c.16,19.57,8.18,36.94,20.57,48.24,17.94-51.06-1.09-95.86-1.09-95.86.15-.34.27-.71.41-1.07C1383.91,617.51,1376.12,635.06,1376.29,654.69Z"/><path fill="#ef7c59" d="M1247.51,625.65c-10.94.1-20.67,6.42-27.22,16.29,9.43,2.44,22.22,4.41,23.41,7.85,0,0-2.92,35.86,15.72,65.88,14.45-6.13,24.8-23.6,24.63-44.13C1283.83,646,1267.48,625.49,1247.51,625.65Z"/><path d="M1309.1,580.56c-5.12-5-29.88,6.48-30.89,7.11-7.66,4.79-4.76,10-3.58,11.71.69,1,3.54-.65,10.68-2.66,15.21-4.28,21.84-2.31,24.56-7.13C1311.48,586.75,1311.14,582.57,1309.1,580.56Z"/><path d="M1359.76,578.22c2.79-5.25,22.07.29,22.94.7,6.63,3.07,6.86,9,6.33,10.7-.32,1-2.76,0-8.44-.72-12.12-1.47-16.64,1.3-19.61-2.56C1359.22,584.07,1358.65,580.31,1359.76,578.22Z"/><path fill="#38261f" d="M1294.71,623.9c1.06,3.94,4,6.59,6.48,5.91s3.69-4.43,2.63-8.38-4-6.59-6.49-5.91S1293.64,620,1294.71,623.9Z"/><path fill="#38261f" d="M1367.93,613.89c1.07,3.93,3.79,6.62,6.08,6s3.29-4.31,2.22-8.25-3.78-6.62-6.07-6S1366.87,610,1367.93,613.89Z"/><path d="M1390.23,556.18s41.15-66.7,7.84-76.43-89.54-29.59-142.8,2.31-67.63,70.59-75.51,82.73c-10.09,15.53,21.4,76,42.16,112.36,6.61,11.6,18.48,9.29,23.34-3.16l-2.43-5.75,4.43-24.94,2.31-93.16s101.74,4.28,127.34-20A68.32,68.32,0,0,1,1390.23,556.18Z"/><path d="M1214.09,531.52s5.88-33.09-5.44-30.77-7.65,28.42-7.65,28.42-19.51-3.78-22.4,3.64,12.94,14.19,22.27,9.67S1214.09,531.52,1214.09,531.52Z"/><path d="M1224.56,511.71c61.85-77.24,169.22-45.83,170.29-45.5l1-3.33c-1.09-.34-110.71-32.41-174,46.66Z"/><path fill="#ef7c59" d="M1197.77,660c5.82,17.71,23.5,27.81,39.5,22.55s24.25-23.87,18.43-41.58-23.5-27.81-39.5-22.55S1192,642.31,1197.77,660Z"/><path fill="#38261f" d="M1224.56,660.81c1.66-4.71,10.21-7.08,13.37-7.6l2.2-.36-.89-2.05c-3.28-7.6-7.71-12.32-13.16-14a16.8,16.8,0,0,0-13,1.57l1.83,3a13.55,13.55,0,0,1,10.2-1.19c4,1.26,7.35,4.67,10.07,10.14-3.92,1-11.85,3.63-13.88,9.41Z"/><path d="M1254,528.66s26.09,100.88-6.42,107l-1.8-89Z"/><path fill="#38261f" d="M1353.16,652.22c.41-.25,10.19-6.24,14.22-13.47a4.34,4.34,0,0,0,.15-4.08c-2.89-6.07-21.3-9.64-25-10.29l-.61,3.43c8.38,1.5,20.87,5.07,22.43,8.36a.83.83,0,0,1-.05.88c-3.57,6.42-12.89,12.13-13,12.19Z"/><path fill="#38261f" d="M1315.69,688.9c20.88,14.64,54.15,1,54.48.81l1.28,3c-1.43.6-35.28,14.54-57.66-1.15Z"/><rect width="441.36" height="362.92" x="1646.86" y="2339.17" fill="#fcbc68"/><rect width="156.15" height="362.92" x="1646.86" y="2339.17" fill="#e67c25"/><rect width="94.28" height="48.31" x="1893.91" y="2339.17" fill="#eeeeb3"/><rect width="441.36" height="362.92" x="1299.66" y="2339.17" fill="#fcbc68"/><rect width="156.15" height="362.92" x="1299.66" y="2339.17" fill="#f79831"/><rect width="94.28" height="48.31" x="1546.72" y="2339.17" fill="#eeeeb3"/><rect width="512.35" height="362.92" x="1468.76" y="1976.25" fill="#ffcd6b"/><rect width="181.26" height="362.92" x="1468.76" y="1976.25" fill="#f79831"/><rect width="109.44" height="48.31" x="1755.55" y="1976.25" fill="#eeeeb3"/><ellipse cx="3147.58" cy="583.66" fill="#e75c5b" rx="30.52" ry="31.49"/><path fill="#e75c5b" d="M3086.39,543.62c33.36-36.47,87.83-37.83,122.37-2.25,15.65,16.13,39.94-8.91,24.27-25-47.38-48.81-124.81-48.16-170.91,2.26-15.16,16.57,9.07,41.66,24.27,25Z"/><path fill="#e75c5b" d="M2982.06,397.54c46.23-41.61,101.52-67.93,163.56-68.39,61.49-.45,122.23,21.78,167.47,65.2,16.16,15.52,40.49-9.48,24.27-25-51.81-49.74-121.12-76.1-191.74-75.58-71.4.53-134.71,30.94-187.83,78.77-16.68,15,7.68,40,24.27,25Z"/><path fill="#e75c5b" d="M3023.34,478.58c31-34.86,74.46-56.8,120.55-58.1,47.33-1.34,93.13,18.55,126.2,53.28,15.51,16.29,39.78-8.76,24.27-25.05-39.13-41.09-94.43-65.24-150.47-63.65-54.82,1.55-107.83,26.82-144.83,68.47-14.9,16.78,9.31,41.89,24.28,25.05Z"/></g></svg>