<svg xmlns="http://www.w3.org/2000/svg" viewBox="0 0 64 64"><path fill="#ffd926" d="M32 25.84v12.32l-10.67 6.16-10.66-6.16V25.84l10.66-6.16z"/><path fill="#57bb6e" d="M53.33 25.84v12.32l-10.66 6.16L32 38.16V25.84l10.67-6.16z"/><path fill="#87d4f2" d="M42.67 44.32v12.31L32 62.79l-10.67-6.16V44.32L32 38.16z"/><path fill="#e82327" d="M42.67 7.36v12.32L32 25.84l-10.67-6.16V7.36L32 1.21z"/><path fill="#efefef" d="M34.53 9.97c0 1.4-1.13 2.53-2.53 2.53s-2.53-1.13-2.53-2.53S30.6 7.44 32 7.44s2.53 1.13 2.53 2.53zm2.67 7.74H26.8c0-2.87 2.33-5.21 5.2-5.21s5.2 2.33 5.2 5.21z"/><g fill="#efefef"><path d="M23.87 28.44c0 1.4-1.13 2.53-2.53 2.53s-2.53-1.13-2.53-2.53 1.13-2.53 2.53-2.53 2.53 1.14 2.53 2.53z"/><path d="M26.53 36.18h-10.4c0-2.87 2.33-5.21 5.2-5.21a5.21 5.21 0 0 1 5.2 5.21zM45.2 28.44c0 1.4-1.13 2.53-2.53 2.53s-2.53-1.13-2.53-2.53 1.13-2.53 2.53-2.53 2.53 1.14 2.53 2.53z"/><path d="M47.87 36.18h-10.4c0-2.87 2.33-5.21 5.2-5.21 2.87.01 5.2 2.34 5.2 5.21z"/></g><circle cx="32" cy="46.92" r="2.53" fill="#efefef"/><path fill="#efefef" d="M37.2 54.66H26.8c0-2.87 2.33-5.21 5.2-5.21s5.2 2.33 5.2 5.21z"/><path fill="#4272b7" d="M64 44.32v12.31l-10.67 6.16-10.66-6.16V44.32l10.66-6.16z"/><path fill="#efefef" d="M55.87 46.92c0 1.4-1.13 2.53-2.53 2.53s-2.53-1.13-2.53-2.53 1.13-2.53 2.53-2.53c1.39 0 2.53 1.13 2.53 2.53z"/><path fill="#efefef" d="M58.53 54.66h-10.4c0-2.87 2.33-5.21 5.2-5.21 2.88 0 5.2 2.33 5.2 5.21z"/><path fill="#4272b7" d="M21.33 44.32v12.31l-10.66 6.16L0 56.63V44.32l10.67-6.16z"/><path fill="#efefef" d="M8.14 46.92c0 1.4 1.13 2.53 2.53 2.53s2.53-1.13 2.53-2.53-1.13-2.53-2.53-2.53-2.53 1.13-2.53 2.53z"/><path fill="#efefef" d="M5.47 54.66h10.4c0-2.87-2.33-5.21-5.2-5.21-2.88 0-5.2 2.33-5.2 5.21z"/></svg>