<svg xmlns="http://www.w3.org/2000/svg" viewBox="0 0 512 512"><path fill="#485eff" d="m405.7 267.2-29.7-2.3-25.5-68.4-8.8-34v-17.7l-18.7-43L333.5 91l15.6 4.9 11.2 30.7c-.8-.9-30.5-36.7 17.3 76.8l10.4 23.7c9.2 10.3 26.5 18.9 58.8 13.6l2.8 11.8 2.6 12.7-46.5 2zM246.8 394.4l2.3-29.7 68.4-25.5 34-8.8h17.7l43-18.7 10.9 10.5-4.9 15.6-30.7 11.2c.9-.8 36.7-30.5-76.8 17.3L287 376.7c-10.3 9.2-18.9 26.5-13.6 58.8l-11.8 2.8-12.7 2.6-2.1-46.5zm-131.6-144 29.7 2.3 25.5 68.4 8.8 34v17.7l18.7 43-10.5 10.9-15.6-4.9-11.2-30.7c.8.9 30.5 36.7-17.3-76.8l-10.4-23.7c-9.2-10.3-26.5-18.9-58.8-13.6l-2.8-11.8-2.6-12.7 46.5-2.1zM264 114.7l-2.3 29.7-68.4 25.5-34 8.8h-17.7l-43 18.7-10.9-10.5 4.9-15.6 30.7-11.2c-.9.8-36.7 30.5 76.8-17.3l23.7-10.4c10.3-9.2 18.9-26.5 13.6-58.8l11.8-2.8L262 68l2 46.7z" opacity=".3"/><path fill="#485eff" d="M47.2 452.6H18v-102h25.8c-.7 10.9-.5 22.1.9 32.5l2.5 68.1v1.4z"/><path fill="#00d85c" d="M162.4 18v25.9c-11.4-.9-23-.7-33.9.8l-68.1 2.5V18h102z"/><path fill="#485eff" d="M369.3 122.1c-1.1-2.4-2.4-4.9-3.7-7.3C354.7 94 345.3 84.9 335.8 86c-11 1.3-15.4 6.3-17.3 10.4-2.8 6.2-.8 12.7 1.7 16.5.2.3.5.8.9 1.2 4.2 5.9 15.3 21.5 15.3 45.9v2.5H262v-102h107.1v55c0-.1.2 2.7.2 6.6z"/><path fill="#485eff" d="M373.6 144.8S352.4 89.1 335 91s-16.3 13.8-12.5 19c3.8 5.2 17.7 22.1 17.7 50v2.4h-3.7v-2.5c0-24.5-11.1-40.1-15.3-45.9-.3-.5-.6-.9-.9-1.2-2.6-3.7-4.6-10.2-1.7-16.5 1.8-4 6.3-9.1 17.3-10.4 9.5-1.1 18.9 8.1 29.8 28.8 1.3 2.5 2.5 4.9 3.7 7.3-.1-3.9-.2-6.7-.2-6.7V60.4h5v54.8c-.1 0 1 18.6-.6 29.6zm103.1 17.6c.6-10.4.4-20.9-1-30.8l-2.5-68.1s.1-1.3-.1-3H495l-.3 102h-18v-.1z"/><path fill="#00d85c" d="M459.9 264.7v96.9H399.3c-.1 0-2.8.1-6.7.2 2.4-1.1 4.9-2.4 7.3-3.7 20.7-10.9 29.9-20.3 28.8-29.8-1.2-10.9-6.3-15.3-10.3-17.2-6.2-2.8-12.8-.9-16.5 1.6-.4.3-.8.6-1.4 1-6 4.2-20.2 14.2-42.7 15.1v-64.2h102.1z"/><path fill="#00d85c" d="M459.9 361.6v5.2h-60.4s-18.6 1.2-29.5-.6c0 0 55.7-21.4 53.7-39-1.9-17.6-13.8-16.3-19-12.6-5 3.6-20.8 16.8-46.8 17.8v-3.5c22.5-.9 36.7-10.8 42.7-15.1.5-.4 1-.7 1.4-1 3.8-2.5 10.4-4.5 16.5-1.6 4 1.9 9 6.3 10.3 17.2 1.1 9.5-8.1 18.9-28.8 29.8-2.5 1.3-4.9 2.5-7.3 3.7 3.9-.1 6.6-.2 6.7-.2h60.5zm0 102.4v31H358v-25.5c8.5.2 17-.1 25.1-1.2l68.1-2.5s4.9.4 8.7-1.8z"/><path fill="#485eff" d="M249.3 350.7v101.9h-98.1v-53.4c0-.1-.1-2.8-.2-6.6 1.1 2.4 2.4 4.8 3.6 7.3 10.9 20.7 20.3 29.9 29.8 28.8 11-1.3 15.5-6.4 17.3-10.4 2.8-6.3.7-12.8-1.9-16.4-.2-.3-.5-.8-.9-1.2-4.2-5.9-15.3-21.5-15.3-45.9v-2.3c0-.6-.1-1.1-.1-1.7h65.8z"/><path fill="#485eff" d="M201.7 418.2c-1.8 4.1-6.3 9.2-17.3 10.4-9.4 1.1-18.9-8.1-29.8-28.8-1.3-2.5-2.5-4.9-3.6-7.3.1 3.9.2 6.6.2 6.6v53.4h-5v-53s-1.1-18.6.6-29.5c0 0 21.2 55.7 38.7 53.7 17.5-1.9 16.3-13.8 12.5-19-3.8-5.2-17.8-22.1-17.8-50 0-1.4 0-2.8-.1-4.1h3.4c0 .5 0 1.1.1 1.7v2.3c0 24.5 11.1 40.1 15.3 45.9.3.5.6.9.9 1.2 2.6 3.8 4.7 10.3 1.9 16.5z"/><path fill="#00d85c" d="M162.4 183.7v69h-102V151.2h52c.1 0 2.8-.1 6.7-.2-2.4 1.1-4.9 2.4-7.3 3.6C91 165.5 81.9 174.9 83 184.4c1.3 11 6.3 15.4 10.4 17.3 2.2 1 4.3 1.4 6.4 1.4 4 0 7.6-1.4 10-3.1.3-.2.8-.5 1.2-.9 5.9-4.2 21.5-15.3 45.9-15.3 1.9 0 3.8 0 5.5-.1z"/><path fill="#00d85c" d="M162.4 181.2v2.5c-1.7.1-3.6.1-5.5.1-24.5 0-40.1 11.1-45.9 15.3-.5.3-.9.6-1.2.9-2.4 1.7-6.1 3.1-10 3.1-2.1 0-4.3-.4-6.4-1.4-4-1.8-9.1-6.3-10.4-17.3-1.1-9.5 8.1-18.9 28.8-29.8 2.5-1.3 4.9-2.5 7.3-3.6-3.9.1-6.7.2-6.7.2h-52v-4.9h51.7s18.6-1.2 29.5.6c0 0-55.7 21.9-53.8 39.9 1.9 18 13.8 16.8 19 12.9 5.2-3.9 22.1-18.3 50-18.3 2.1-.1 3.9-.1 5.6-.2z"/><path fill="#464668" d="m480.7 131.1-2.5-67.6c0-.5 0-1.6-.1-3 0-.2 0-.4-.1-.6-.8-9.2-6.6-14.9-15-14.9h-.5c-3.3.1-6.3.9-8.8 2.4-.5-3.3-1.8-8.2-5.5-12-3.1-3.1-7.3-4.8-12.2-4.8-2.7 0-5.1.5-7.2 1.5-.6-4-2.1-8.8-5.4-12.3-3.1-3.3-7.3-5.1-12.2-5.1-4.9 0-9.1 1.8-12.2 5.1-3.2 3.5-4.7 8-5.4 11.9-2.2-.9-4.7-1.4-7.8-1.4-4.8 0-8.9 1.7-11.9 5-5.6 6.2-5.1 16-4.9 18.1V115.5c0 .1.1 2.8.2 6.7-1.1-2.4-2.4-4.9-3.7-7.3-10.9-20.8-20.3-29.9-29.8-28.8-11 1.3-15.4 6.3-17.3 10.4-2.8 6.2-.8 12.7 1.7 16.5.2.3.5.8.9 1.2 4.2 5.9 15.3 21.5 15.3 45.9v2.5c.3 16.7 3.5 25.3 9.5 40.7 3.7 9.6 8.3 21.6 13.9 40.1.1.5.3.9.6 1.3.1.1 5.8 9 5.5 20.1h10c.2-12.4-5.1-22.3-6.7-24.9-5.7-18.5-10.3-30.5-14-40.2-5.7-14.9-8.6-22.4-8.8-37.3V160c0-27.7-12.4-45.2-17.1-51.7-.3-.4-.6-.8-.8-1.1-.9-1.3-1.9-4.2-.8-6.6 1.4-3 5.8-4.2 9.3-4.6 3.2-.4 10.3 5.5 19.7 23.5 6.9 13.2 12 27 12 27.1.8 2.2 3 3.5 5.2 3.3 2.3-.2 4.1-2 4.4-4.2 1.6-10.9.8-28.6.6-30.5V52.6c-.2-1.9-.1-7.8 2.4-10.6.7-.7 1.8-1.7 4.4-1.7 4.7 0 6.9 1.8 7.3 6.1v75.8c0 2.8 2.2 5 5 5s5-2.2 5-5V39c-.2-2.2.1-9.1 3.2-12.4 1.2-1.3 2.8-1.9 4.9-1.9 2.8 0 4 1.1 4.8 1.9 3.1 3.3 3.3 10.5 3.1 12.7v82.9c0 2.8 2.2 5 5 5s5-2.2 5-5V49.5c.6-8.9 4.9-8.9 6.8-8.9 2.2 0 3.8.6 5 1.8 2.4 2.3 2.9 6.7 2.9 8.2v13.8c-.1.3-.1.7-.1 1v56.8c0 2.8 2.2 5 5 5s5-2.2 5-5V66.3c0-.2.1-.4.1-.6 0 0 .1-1.7.7-3.8 1.9-6 5.6-6.8 8.1-6.8 1.6 0 4.8-.1 5.4 6 .1 1.2.1 2 .1 2v.6l2.5 68.1v.5c1.2 9.4 1.6 19.8 1 30-1.4 24.3-7.8 48.1-15.9 59.3-9.9 13.6-12.8 34-13.6 43.3H452c.9-8.7 3.6-26.3 11.7-37.4 9.2-12.8 16.2-38.1 17.7-64.5v-.2c.2-3.4.3-6.8.3-10.3.3-7.5-.1-14.7-1-21.4zM495 415.9c-3.6 3.3-8.4 4.8-12.4 5.5 1 2.1 1.5 4.5 1.5 7.2 0 4.9-1.7 9.1-4.8 12.2-3.8 3.7-8.8 5-12 5.5 1.5 2.6 2.3 5.6 2.3 8.8.1 5.8-2.4 10.5-7.2 13.2-.8.5-1.7.8-2.5 1.1-3.8 1.4-7.6 1.4-8.8 1.3l-67.6 2.5c-6.5.9-13.2 1.3-20 1.3-1.8 0-3.6 0-5.5-.1h-.2c-28.3-.8-56.6-8-70.3-17.9-11.5-8.3-29.8-10.9-38.1-11.7v-10c8.9.8 30 3.6 44 13.7 12.1 8.7 38.8 15.3 64.8 16.1 8.3.3 16.5-.1 24.3-1.2h.5l68.1-2.5h.6c.9.1 3.8 0 5.8-1.2 1.1-.7 2.2-1.7 2.2-4.3-.1-2.7-1-4.7-2.8-6-3.1-2.5-7.7-2.8-7.7-2.8-.3 0-.5-.1-.7-.1h-62.9c-2.8 0-5-2.2-5-5s2.2-5 5-5H460c.3 0 .7 0 1 .1h3.2c1.5 0 5.9-.5 8.2-2.8 1.2-1.2 1.8-2.9 1.8-5.1 0-1.9 0-6.2-8.9-6.8h-79.7c-2.8 0-5-2.2-5-5s2.2-5 5-5H475.4c2.3.2 9.5-.1 12.9-3.2 1.3-1.2 1.9-2.7 1.9-4.8 0-2.1-.6-3.7-1.9-4.9-3.3-3.1-10.3-3.3-12.4-3.2h-6.1c-.3.1-.7.1-1 .1h-83.1c-2.8 0-5-2.2-5-5s2.2-5 5-5H468c.1 0 .3-.1.4-.1 4.4-.4 6.2-2.5 6.2-7.3 0-2.6-1-3.8-1.7-4.4-2.8-2.5-8.8-2.6-10.6-2.4h-62.5c-1.9.1-19.5.9-30.4-.6-2.3-.3-4-2.2-4.2-4.4-.2-2.3 1.1-4.4 3.3-5.2.1 0 13.8-5.1 27-12 17.9-9.4 23.8-16.5 23.4-19.7-.4-3.5-1.5-7.9-4.5-9.3-2.4-1.1-5.3-.1-6.7.8-.3.2-.8.5-1.2.8-6.2 4.3-22.6 15.9-48 16.9-1.2.1-2.4.1-3.5.1-16.5 0-23.8 2.8-39.6 8.9-9.7 3.7-21.7 8.3-40.2 14-2.7 1.6-12.9 7.1-25.6 6.6v-10c11.5.5 20.8-5.4 20.8-5.4.4-.3.8-.4 1.3-.6 18.5-5.7 30.5-10.3 40.2-14 16-6.1 24.8-9.5 43.2-9.5 1 0 2 0 2.7-.1h.4c22.5-.9 36.7-10.8 42.7-15.1.5-.4 1-.7 1.4-1 3.8-2.5 10.4-4.5 16.5-1.6 4 1.9 9 6.3 10.3 17.2 1.1 9.5-8.1 18.9-28.8 29.8-2.5 1.3-4.9 2.5-7.3 3.7 3.9-.1 6.6-.2 6.7-.2H461.9c2.1-.2 11.8-.7 18 4.9 3.3 2.9 5 7 5 11.9 0 3-.5 5.6-1.4 7.8 3.9.7 8.5 2.2 11.9 5.4 3.3 3.1 5.1 7.3 5.1 12.2-.4 4.7-2.2 8.9-5.5 11.9zm-295.2-14.1c-.2-.3-.5-.8-.9-1.2-4.2-5.9-15.3-21.5-15.3-45.9v-2.3c0-.6-.1-1.1-.1-1.7v-.3c-.5-15.5-3.9-24.3-9.5-38.9-3.7-9.6-8.3-21.6-14-40.1-.1-.4-.3-.9-.6-1.3-.1-.1-4.9-7.6-5.4-17.5h-10c.5 11.1 5.2 19.9 6.6 22.3 5.7 18.5 10.3 30.5 14 40.2 5.5 14.5 8.3 21.8 8.8 35.6 0 .7 0 1.4.1 2.1v1.9c0 27.7 12.4 45.1 17.1 51.7.3.4.6.8.8 1.2 1.2 1.6 1.8 4.4.9 6.6-1.1 2.4-4.4 4-9.3 4.6-3.3.4-10.3-5.5-19.7-23.4-6.9-13.2-12-26.9-12-27-.8-2.2-2.9-3.5-5.2-3.3-2.3.2-4.1 2-4.4 4.2-1.6 10.9-.8 28.5-.6 30.4v62.5c.2 1.9.1 7.8-2.4 10.6-.7.7-1.8 1.7-4.4 1.7-4.5 0-6.7-1.7-7.2-5.5V386.6c0-2.8-2.2-5-5-5s-5 2.2-5 5v81.1c-.1.3-.1.7-.1 1V475.8c.2 2.2-.1 9.1-3.2 12.4-1.2 1.3-2.8 1.9-4.9 1.9-2.8 0-4-1.1-4.8-1.9-3.1-3.3-3.3-10.5-3.1-12.7v-8.9c.1-.3.1-.6.1-1v-79c0-2.8-2.2-5-5-5s-5 2.2-5 5v78c0 .2-.1.4-.1.5-.6 9-4.9 9-6.8 9-2.2 0-3.8-.6-5-1.8-2.3-2.3-2.8-6.7-2.8-8.2v-13.5c.1-.4.2-.9.2-1.3v-62.8c0-2.8-2.2-5-5-5s-5 2.2-5 5v61.4c-.1.3-.2.7-.2 1 0 0-.1 1.1-.4 2.5-1.2 5.3-4.1 8.1-8.5 8.2-1.4 0-5.3.1-5.5-7.2V451l-2.5-68.1v-.5c-1.3-9.7-1.6-20.3-.9-31.5 1.6-23.6 7.9-46.8 15.7-57.6 8.9-12.5 12.2-30.5 13.3-40.7H67.5c-1.1 9.3-4.1 24.7-11.4 34.8-8.9 12.4-15.8 37.1-17.5 62.8v.3c-.7 11.7-.4 22.7.9 32.9l2.5 67.8v1.4c.3 10.6 6.3 17.1 15.7 16.9 3.3-.1 6.3-.9 8.9-2.4.4 3.3 1.7 8.3 5.5 12.1 3.1 3.1 7.3 4.8 12.2 4.8 2.7 0 5.1-.5 7.2-1.5.6 4 2.1 8.8 5.4 12.3 3.1 3.3 7.3 5.1 12.2 5.1 4.9 0 9.1-1.8 12.2-5.1 3.2-3.5 4.7-8 5.4-11.9 2.2.9 4.7 1.4 7.8 1.4 4.8 0 8.9-1.7 11.9-5 5.6-6.2 5.1-16 4.9-18V399.1c0-.1-.1-2.8-.2-6.6 1.1 2.4 2.4 4.8 3.6 7.3 10.9 20.7 20.3 29.9 29.8 28.8 11-1.3 15.5-6.4 17.3-10.4 2.7-6.2.6-12.7-2-16.4zM224 56.2c-12.1-8.7-36.2-15.6-61.4-17.4h-.3c-12.5-.9-24-.6-34.4.8l-67.6 2.5h-.1C58.4 42 51 42 46 46.7c-2 1.9-4.4 5.4-4.3 11.1.1 3.3.9 6.2 2.4 8.8-3.3.5-8.3 1.8-12 5.5-3.1 3.1-4.8 7.3-4.8 12.2 0 2.7.5 5.1 1.5 7.2-4 .6-8.8 2.1-12.3 5.4-3.3 3.1-5.1 7.3-5.1 12.2 0 4.9 1.8 9.1 5.1 12.2 3.5 3.2 8 4.7 11.9 5.4-.9 2.2-1.4 4.7-1.4 7.8 0 4.8 1.7 8.9 5 11.9 6.2 5.6 16 5.1 18 4.9H112.2c.1 0 2.8-.1 6.7-.2-2.4 1.1-4.9 2.4-7.3 3.6-20.8 10.9-29.9 20.3-28.8 29.8 1.3 11 6.3 15.4 10.4 17.3 2.2 1 4.3 1.4 6.4 1.4 4 0 7.6-1.4 10-3.1.3-.2.8-.5 1.2-.9 5.9-4.2 21.5-15.3 45.9-15.3 1.9 0 3.8 0 5.5-.1h.2c14.7-.6 23.3-3.9 37.6-9.4 9.6-3.7 21.6-8.3 40.1-13.9.4-.1.9-.3 1.3-.6.1-.1 9.3-5.8 20.5-5.5V68c-8.5-.8-26.4-3.4-37.9-11.8zm37.7 88.1c-12.4-.2-22.4 5.1-25 6.7-18.5 5.7-30.5 10.3-40.1 14-13.8 5.3-21.4 8.2-34.5 8.8-1.6.1-3.3.1-5.2.1-27.7 0-45.2 12.4-51.7 17.1-.4.3-.8.6-1.1.8-1.3.9-4.2 1.9-6.6.8-3-1.4-4.2-5.8-4.6-9.3-.4-3.2 5.5-10.3 23.5-19.7 13.2-6.9 27-12 27.1-12 2.2-.8 3.5-2.9 3.3-5.2-.2-2.3-2-4.1-4.2-4.4-5.1-.8-11.8-1-17.6-1-6.5 0-11.9.3-12.9.3H49.5c-1.9.2-7.8.1-10.6-2.4-.7-.7-1.7-1.8-1.7-4.4 0-4.5 1.6-6.7 5.5-7.2h78c2.8 0 5-2.2 5-5s-2.2-5-5-5H44c-.3-.1-.6-.1-1-.1h-7c-2.4.2-9.2-.1-12.5-3.2-1.3-1.2-1.9-2.8-1.9-4.9 0-2.8 1.1-4 1.9-4.8 3.3-3.1 10.5-3.3 12.7-3.1h9c.3.1.6.1 1 .1h74.5c2.8 0 5-2.2 5-5s-2.2-5-5-5H47.1c-.2 0-.4-.1-.5-.1-9-.6-9-4.9-9-6.8 0-2.2.6-3.8 1.8-5 2.3-2.3 6.7-2.8 8.2-2.8h11.6c.4.1.9.2 1.3.2h60.3c2.8 0 5-2.2 5-5s-2.2-5-5-5h-57c-.4-.1-.9-.2-1.3-.2-.1 0-.5 0-1.1-.1-6.1-1.1-9.2-4-9.4-8.7-.1-2.2.6-3.1 1.1-3.6 1.8-1.8 5.7-2 6.9-1.9h.5l68.1-2.5h.5c9.8-1.3 20.9-1.6 32.8-.8 23.4 1.7 45.5 7.8 56.2 15.6 13.7 10 34.3 12.9 43.5 13.7v66z"/></svg>