<svg xmlns="http://www.w3.org/2000/svg" enable-background="new 0 0 600 500" viewBox="0 0 600 500"><path fill="#c2d5ff" d="M427.72 404.868 556 359.59H44l128.28 45.28z"/><path fill="#e7ecff" d="M556 359.589 447.295 95.58h-294.59L44 359.589z"/><path fill="#78a7ff" d="M276.82 397.628c0 1.126-9.758 2.042-21.8 2.042-12.032 0-21.79-.916-21.79-2.042 0-1.125 9.758-2.042 21.79-2.042 12.042 0 21.8.917 21.8 2.042z"/><ellipse cx="317.662" cy="385.118" fill="#78a7ff" rx="51.248" ry="4.338"/><path fill="#c2cee3" d="M229.764 239.345c22.506 21.247 0 120.193 0 120.193H112.111s-22.506-98.946 0-120.193c20.798-19.636 96.855-19.636 117.653 0z"/><path fill="#d7e3f4" d="M127.776 239.344c-22.5 21.25 0 120.194 0 120.194h-15.668s-22.5-98.945 0-120.194c11.523-10.878 40.01-15.732 66.663-14.554-21.453.948-41.717 5.794-50.995 14.554z"/><path fill="#fc6865" d="M254.442 359.538h-98.68v-101.41l4.7-1.97 42.82-17.98s11.39 5.53 23.48 12.74c.86.51 1.72 1.03 2.58 1.56 10.69 6.56 19.33 14.73 22.45 22.12 7.6 18.02 3.77 71.39 2.65 84.94z"/><path fill="#47090e" d="M237.087 187.956s4.077 9.861-2.113 20.213l-9.918-12.352 6.95-14.59 5.081 6.73z"/><path fill="#f1ab97" d="m222.185 235.34.271 17.9h-29.934v-68.724s35.01-6.563 39.954 3.82c0 0 10.33 47.653-10.291 47.005z"/><path fill="#5f1113" d="M227.243 190.134c-14.8-1.63-21.75-7.1-21.96-7.25.14.52 3.17 12.39-9.2 14.77-.17.04-.35.07-.53.1l.45 8.33.09 1.69-1.48.09-9.502.6s-8.998-31.41 17.452-34.28c3.02-.33 6.5-.28 10.5.22 0 0 8.93-6.95 20.48-1.54 9.65 4.51 8.73 18.92-6.3 17.27z"/><path fill="#47090e" d="M219.436 173.847c1.763-1 3.884-.946 5.83-.81 1.973.164 3.951.513 5.85 1.176 1.892.644 3.76 1.59 5.22 3.029 1.452 1.418 2.572 3.24 2.938 5.212l-.095.032a14.29 14.29 0 0 0-3.521-4.508c-1.432-1.233-3.035-2.291-4.824-3.016-1.783-.727-3.69-1.168-5.622-1.427-1.912-.264-3.94-.456-5.729.4l-.047-.088zM202.673 183.274a14.01 14.01 0 0 1-1.56 3.49c-1.79 2.91-4.66 5.37-5.07 8.75-.09.71-.06 1.43.04 2.14.25 2.14 1.02 4.27.66 6.39-.13.73-.38 1.41-.74 2.04a7.92 7.92 0 0 1-1.39 1.78l-9.502.6s-8.998-31.41 17.452-34.28c.05.8.38 1.56.52 2.38.37 2.23.23 4.54-.41 6.71z"/><path fill="#ec8b73" d="M220.549 204.16c-.582 2.58.197 5.36 1.916 7.239.408.471 1.007.816 1.399 1.54.18.36.245.815.15 1.21-.091.401-.298.745-.547 1.035-.524.567-1.284.86-1.978.894-.707.044-1.375-.075-2.024-.237a.038.038 0 0 1 .007-.075c.667-.05 1.332-.062 1.941-.205.612-.141 1.147-.405 1.485-.865.356-.438.496-.98.294-1.44-.197-.489-.748-.915-1.179-1.463-1.758-2.128-2.338-5.1-1.537-7.652a.038.038 0 0 1 .073.02z"/><path fill="#2b1b15" d="M217.399 199.214c-.091.546-.632 1.117-1.171 1.013-3.233-.62-6.414.159-9.276 1.258-.47.18-.583-.866-.49-1.367.09-.59.513-1.065.898-1.493a7.613 7.613 0 0 1 4.35-2.053 7.331 7.331 0 0 1 4.653 1.036c.296.163.554.373.774.63.18.26.323.612.262.976zM233.13 199.973c-.177.482-.77.91-1.243.722-2.843-1.125-5.88-.964-8.682-.456-.46.083-.382-.892-.21-1.332.183-.524.652-.884 1.077-1.207a7.07 7.07 0 0 1 4.325-1.121 6.808 6.808 0 0 1 4.066 1.75c.242.2.441.435.598.708.118.269.188.614.07.936z"/><path fill="#ec8b73" d="M213.176 217.867c.401 1.565 2 4.686 8.328 2.74a.578.578 0 0 1 .726.706c-.533 1.835-2.24 5.355-7.334 3.778-4.568-1.414-4.265-5.822-2.708-7.471a.58.58 0 0 1 .988.247zM222.185 235.34s-5.323 1.29-16.908-2.564c0 0 1.89 7.607 16.908 9.168v-6.603z"/><path fill="#f1ab97" d="M194.972 201.147c-1.41-1.334-3.201-2.358-5.139-2.485-1.937-.127-4.003.783-4.904 2.503-.715 1.365-.63 3.004-.395 4.527a26.764 26.764 0 0 0 2.702 8.246c.642 1.235 1.405 2.446 2.504 3.3 1.099.854 2.592 1.302 3.915.868 1.151-.378 2.02-1.368 2.532-2.466s.714-2.312.911-3.508l.605-3.676c.135-.818.486-1.751.482-2.581-.007-1.67-2.081-3.657-3.213-4.728z"/><path fill="#ec8b73" d="M189.172 203.301a6.447 6.447 0 0 0-1.023 2.955 6.593 6.593 0 0 0 .563 3.171c.449.99.98 1.912 1.64 2.682.665.778 1.37 1.528 2.233 2.163l.095-.07c-.34-1.015-.84-1.915-1.378-2.787-.534-.884-1.27-1.58-1.751-2.414-.974-1.624-1.115-3.79-.276-5.642l-.103-.058z"/><path fill="#ec8b73" d="M188.408 202.645c.641-.913 2.04-1.073 2.745-.395.365.318.601.788.628 1.25.042.466-.16.866-.448 1.355-.294.465-.612 1.115-.689 1.773-.074.66.028 1.352.348 1.947.633 1.202 2 1.898 3.195 1.669l.01-.117c-1.066-.43-1.814-1.186-2.14-2.05-.304-.885-.408-1.809.113-2.794.237-.497.512-1.202.369-1.882a2.521 2.521 0 0 0-1.03-1.619c-1.127-.764-2.668-.245-3.201.803l.1.06z"/><path fill="#f24e4e" d="M192.442 351.578c-.79 2.18-1.54 4.75-.26 6.69.34.51.78.92 1.27 1.27h-37.69v-101.41l4.7-1.97c2.2 1.79 3.99 4.03 5.11 6.57 1.3 2.96 1.03 6.19 2.37 9.21 1.92 4.33 3.45 8.73 4.3 13.41.94 5.2 1.12 10.54.48 15.79-.39 3.21-1.06 6.55-.05 9.62 1.79 5.44 8.1 7.94 13.79 8.6 5.7.66 11.72.24 16.85 2.8-6.7 1.49-13.4 2.98-20.1 4.48-.36 3.13 3.38 5.08 6.51 5.42 3.14.34 6.77.22 8.83 2.6-2.04 5.64-4.07 11.28-6.11 16.92zM229.34 252.477c-.411 4.02-2.21 14.808-5.765 21.28 0 0-1.741-16.147-10.366-20.15-.095-.038-.19-.085-.29-.127l.31-.127 3.166-1.277 8.409-1.545 1.957.39c.86.507 1.72 1.029 2.58 1.556z"/><path fill="#f24e4e" d="M213.266 253.376c-.017.075-.046.155-.058.231-1.687 10.513-6.488 17.523-13.219 22.904-3.203-10.948-10.45-22.388-18.281-29.264l1.234-.556 26.495 4.263 3.794 2.398.035.024z"/><path fill="#fc6865" d="m191.828 236.71 21.44 16.666c-1.96 8-5.9 14.95-12.697 20.384-3.35-11.46-9.384-20.33-17.63-27.07l8.887-9.98z"/><path fill="#fc6865" d="m223.225 246.79 4.958 4.997s-1.004 11.67-4.143 20.438c0 0-1.898-15.083-10.773-18.849l9.958-6.586z"/><path fill="#f1ab97" d="M227.062 343.528c-.06 2.06-5.39 1.89-9.1 1.52l.38.59s4.5 3.79-.35 6.25c0 0 2.75 2.35-.91 5.22 0 0 1.62 2.42-2.35 2.42-4.48 0-14.29-.4-19.11-6.03l.97-15.28c2.19-1.34 7.4-2.172 9.7-2.03 6.03.34 20.94 1.76 20.77 7.34z"/><path fill="#ec8b73" d="M208.11 350.487a24.953 24.953 0 0 0 4.88 1.29c.831.114 1.664.155 2.491.191.831.038 1.652-.012 2.503-.104l.015.048c-.782.371-1.656.505-2.519.556-.868.029-1.723-.127-2.56-.296a21.703 21.703 0 0 1-4.831-1.639l.02-.046zM208.878 344.074a24.956 24.956 0 0 0 4.797 1.57c.824.162 1.653.251 2.477.335.827.086 1.65.084 2.505.042l.011.048c-.802.326-1.682.408-2.546.41-.869-.022-1.713-.227-2.54-.445a21.7 21.7 0 0 1-4.727-1.916l.023-.044zM207.266 355.676a24.961 24.961 0 0 0 4.88 1.29c.832.114 1.664.154 2.492.19.83.039 1.652-.011 2.503-.103l.014.048c-.781.371-1.656.505-2.518.556-.868.029-1.723-.127-2.561-.297a21.696 21.696 0 0 1-4.83-1.638l.02-.046z"/><path fill="#fc6865" d="M198.242 356.868c-6.02 1.43-16.16 1.38-26.96.5-11.7-.95-24.19-2.88-33.07-4.94-4.94-1.15-8.22-5.9-7.45-10.81 0 0 2.34-61.12 14.53-76.62 4.01-5.1 17.67-9.85 17.67-9.85l10.1 9.3-8.48 62.62s20.1 2.74 32.26 5.69c1.33.32 2.56.65 3.66.97 5.7 1.68 3.43 21.79-2.26 23.14z"/><path fill="#f24e4e" d="M162.962 255.148s-13.66 4.75-17.67 9.85c-12.19 15.5-14.53 76.62-14.53 76.62-.31 1.95.03 3.88.86 5.56 0-.4.03-.8.1-1.2 0 0 2.34-61.13 14.53-76.62 3.603-4.572 6.597-7.98 8.907-8.82l7.803-5.39z"/><ellipse cx="194.299" cy="375.649" rx="27.07" ry="4.468"/><ellipse cx="194.299" cy="374.811" fill="#78a7ff" rx="27.07" ry="4.468"/><path fill="#5c5ca0" d="M179.62 375.146v.017c0 .704.595 1.266 1.3 1.266h25.451c.704 0 1.3-.562 1.3-1.266v-.017c0-1.232-.16-2.423-.462-3.554a14.016 14.016 0 0 0-9.188-9.767 13.753 13.753 0 0 0-4.376-.704c-7.746 0-14.025 6.28-14.025 14.025z"/><path fill="#434389" d="M196.462 365.371c0 3.496 4.057 6.33 9.07 6.33.57 0 1.132-.034 1.677-.11a14.016 14.016 0 0 0-9.188-9.766c-.989 1.006-1.56 2.239-1.56 3.546z"/><path fill="#f24e4e" d="M194.759 333.66a28.693 28.693 0 0 1 1.243 6.01c.175 2.051.103 4.132-.231 6.177-.328 2.042-.864 4.079-1.778 5.946-.913 1.863-2.063 3.604-3.461 5.115l-.082-.057c.948-1.821 1.871-3.612 2.63-5.468.762-1.848 1.48-3.72 1.905-5.685.842-3.926.653-8.061-.322-12.011l.096-.027zM227.007 300.413c-10.089 8.336-19.244 23.11-46.399 20.232 21.114 6.903 36.647.303 46.4-20.232z"/><path fill="#2b1b15" d="M216.156 206.242a1.925 1.925 0 0 1-1.926 1.927 1.925 1.925 0 0 1-1.927-1.927c0-1.066.861-1.927 1.927-1.927 1.065 0 1.926.861 1.926 1.927z"/><path fill="#2b1b15" d="M209.775 206.962c.446-.618.923-1.218 1.483-1.76.58-.52 1.164-1.067 2.148-1.28.954-.088 1.677.105 2.406.404.712.305 1.395.665 1.998 1.207l-.043.111c-.803.01-1.545-.114-2.274-.24-.713-.098-1.455-.359-2.01-.423-.529-.04-1.233.336-1.827.723-.617.393-1.225.843-1.79 1.337l-.09-.08zM232.625 206.152c-.523-.554-1.074-1.086-1.701-1.55-.643-.438-1.295-.904-2.298-.986-.958.038-1.648.325-2.331.717-.666.396-1.296.843-1.823 1.459l.058.105c.797-.097 1.516-.317 2.222-.538.695-.19 1.395-.547 1.938-.684.518-.108 1.265.172 1.905.477.664.309 1.326.675 1.951 1.09l.08-.09z"/><path fill="#2b1b15" d="M226.677 205.854c0 .962.778 1.74 1.74 1.74.961 0 1.739-.778 1.739-1.74s-.778-1.74-1.74-1.74c-.961 0-1.74.778-1.74 1.74z"/><path fill="#434389" d="M238.286 273.684h7.997v88.16h-7.997z"/><path fill="#5c5ca0" d="M246.301 273.681h125.352v88.167H246.301z"/><path fill="#434389" d="m298.3 322.877 18.857 61.339h29.979l-18.858-61.34z"/><path fill="#434389" d="M285.042 379.304v4.912h41.937v-9.336h-37.512a4.425 4.425 0 0 0-4.425 4.424zM321.079 280.54h43.31v12.978h-43.31z"/><path fill="#5c5ca0" d="M325.356 283.003h2.437v8.053h-2.437zM331.819 283.003h2.437v8.053h-2.437zM338.283 283.003h2.437v8.053h-2.437zM344.747 283.003h2.437v8.053h-2.437zM351.211 283.003h2.437v8.053h-2.437zM357.675 283.003h2.437v8.053h-2.437z"/><path fill="#434389" d="m394.685 328.507-17.527 55.371h41.697l17.527-55.371z"/><path fill="#5c5ca0" d="m398.497 328.507-17.527 55.371h41.696l17.527-55.371z"/><path fill="#434389" d="m404.618 339.437-10.607 33.512h18.833l10.607-33.512z"/><path fill="#434389" d="M409.755 354.944h.05l-.04.14z"/><path fill="#78a7ff" d="M416.691 383.878h-15.396l6.664-26.487z"/><path fill="#3d79f3" d="M419.868 383.875h-3.178l-8.734-26.488h3.177z"/><path fill="#8ba53a" d="m269.772 377.926-1.346 8.504h-27.351l-1.346-8.504z"/><path fill="#ffdc8e" d="m259.323 365.9 6.646-24.461-10.8-2.935-7.444 27.396z"/><path fill="#f9c55f" d="M261.89 341.813h1.71v4.774h-1.71z" transform="rotate(-74.798 262.745 344.2)"/><path fill="#f9c55f" d="M260.439 347.154h1.71v4.774h-1.71z" transform="rotate(-74.798 261.294 349.541)"/><path fill="#f9c55f" d="M258.988 352.495h1.71v4.774h-1.71z" transform="rotate(-74.798 259.843 354.883)"/><path fill="#f9c55f" d="M257.536 357.837h1.71v4.774h-1.71z" transform="rotate(-74.798 258.391 360.224)"/><path fill="#f9c55f" d="m259.323 365.9.145-.534-4.607-1.252-.449 1.65.5.136z"/><path fill="#78a7ff" d="M243.5 365.9h6.404l-3.054-15.752a3.264 3.264 0 0 0-.778-1.579l-3.203-3.63a.267.267 0 0 0-.447.087l-1.614 4.564a3.262 3.262 0 0 0-.131 1.755l2.822 14.555z"/><path fill="#ffdc8e" d="m246.844 350.117-6.173 1.197a3.269 3.269 0 0 1 .137-1.724l.776-2.201.055-.16.783-2.203a.267.267 0 0 1 .447-.087l1.542 1.752.12.134 1.541 1.744c.392.443.66.973.772 1.548z"/><path fill="#5f1113" d="M243.147 347.55a1.968 1.968 0 0 1-1.508-.321l.783-2.203a.267.267 0 0 1 .447-.087l1.542 1.752a1.92 1.92 0 0 1-1.264.858z"/><path fill="#78a7ff" d="m268.099 365.9 2.198-11.337-6.173-1.197-2.43 12.534z"/><path fill="#f97b78" d="m270.926 351.329-.626 3.231-6.178-1.198.613-3.162c.336-1.731 2.036-2.915 3.76-2.547a3.147 3.147 0 0 1 2.431 3.676z"/><path fill="#a7c161" d="m270.926 351.329-.333 1.717-6.177-1.198.32-1.648c.335-1.731 2.035-2.915 3.76-2.547a3.147 3.147 0 0 1 2.43 3.676z"/><path fill="#f97b78" d="m271.629 366.209-1.857 11.717-1.346 8.504-1.666 10.54a1.38 1.38 0 0 1-1.363 1.167h-21.293a1.38 1.38 0 0 1-1.363-1.167l-1.666-10.54-1.346-8.504-1.857-11.717a1.386 1.386 0 0 1 1.363-1.6h31.03c.848 0 1.493.764 1.364 1.6z"/><path fill="#ffdc8e" d="m242.006 392.325.735 4.645a1.38 1.38 0 0 0 1.363 1.167h21.293a1.38 1.38 0 0 0 1.363-1.167l.734-4.645h-25.488z"/><path fill="#c2d5ff" d="M273.707 103.947H495.99v163.216H273.707z"/><path fill="#d7e3f4" d="M281.425 111.666h206.846v147.779H281.425z"/><path fill="#fff" d="M286.698 116.937h196.301v137.239H286.698z"/><path fill="#ffdc8e" d="M419.001 207.173h8.094v38.373h-8.094z"/><path fill="#c2d5ff" d="M430.305 217.722h8.094v27.824h-8.094z"/><path fill="#f97b78" d="M441.609 203.988h8.094v41.558h-8.094z"/><path fill="#9a9afc" d="M452.914 226.917h8.094v18.629h-8.094z"/><path fill="#a7c161" d="M464.218 212.414h8.094v33.131h-8.094z"/><path fill="none" d="M378.026 187.112v.68c-.185 6.376-2.825 12.073-6.994 16.196-4.276 4.26-10.19 6.87-16.752 6.87-13.092 0-23.745-10.653-23.745-23.746 0-6.515 2.64-12.428 6.901-16.72 4.308-4.339 10.267-7.04 16.844-7.04.232 0 .464 0 .695.015 12.769.37 23.051 10.884 23.051 23.745z"/><path fill="#f97b78" d="M393.157 186.85v.262c0 .386 0 .757-.015 1.127-.294 10.407-4.586 19.701-11.395 26.479l-10.715-10.73c4.169-4.123 6.809-9.82 6.994-16.196v-.68c0-12.86-10.282-23.375-23.05-23.745-.232-.016-.464-.016-.696-.016v-15.115c.232 0 .464 0 .695.015 21.029.37 38.043 17.509 38.182 38.599z"/><path fill="#777fed" d="M373.961 162.108a.726.726 0 0 1-.574-1.171l14.116-18.26a.727.727 0 0 1 .575-.282h21.237a.727.727 0 1 1 0 1.454h-20.88l-13.898 17.977a.727.727 0 0 1-.576.282z"/><path fill="#ffdc8e" d="M381.747 214.718c-7.01 6.979-16.705 11.27-27.467 11.27v-15.13c6.562 0 12.476-2.61 16.752-6.87l10.715 10.73z"/><path fill="#a9b1ff" d="M337.436 170.391c-4.261 4.293-6.901 10.206-6.901 16.721 0 13.093 10.653 23.746 23.745 23.746v15.13h-.015c-21.43 0-38.846-17.43-38.846-38.876 0-10.684 4.324-20.38 11.318-27.405 7.04-7.086 16.782-11.471 27.528-11.471h.015v15.115c-6.577 0-12.536 2.702-16.844 7.04z"/><path fill="#777fed" d="M321.492 231.76h-21.236a.727.727 0 1 1 0-1.454h20.879l13.898-17.977a.726.726 0 1 1 1.15.889l-14.116 18.26a.727.727 0 0 1-.575.282zM377.543 239.55h21.237a.727.727 0 1 0 0-1.455H377.9l-13.898-17.977a.726.726 0 1 0-1.15.889l14.116 18.26c.138.178.35.282.575.282zM299.53 235.641h15.89v1.782h-15.89zM299.53 239.381h15.89v1.782h-15.89zM383.617 242.641h15.89v1.782h-15.89zM383.617 246.381h15.89v1.782h-15.89zM394.153 133.902h15.89v1.782h-15.89zM394.153 137.641h15.89v1.782h-15.89z"/><path fill="#f97b78" d="M297.95 127.192h13.42v13.42h-13.42z"/><path fill="#ffdc8e" d="M316.88 127.192h13.42v13.42h-13.42z"/><path fill="#a9b1ff" d="M335.809 127.192h13.42v13.42h-13.42zM373.467 187.105c0 .02-.01.03-.01.05h-5.9v-.05c0-3.66-1.48-6.96-3.87-9.36l4.18-4.18c3.46 3.47 5.6 8.26 5.6 13.54z"/><path fill="#a7c161" d="M354.277 167.924v5.91c-3.67 0-7 1.49-9.4 3.91l-4.18-4.18c3.47-3.48 8.27-5.64 13.58-5.64z"/><path fill="#c2d5ff" d="M344.877 177.744c-2.4 2.4-3.87 5.7-3.87 9.36v.05h-5.91v-.05c0-5.29 2.14-10.07 5.6-13.54l4.18 4.18z"/><path fill="#ffdc8e" d="m367.867 173.565-4.18 4.18a13.239 13.239 0 0 0-9.41-3.91v-5.91c5.31 0 10.12 2.16 13.59 5.64z"/><path fill="#5c5ca0" d="M357.7 187.105a3.42 3.42 0 1 1-6.839-.002 3.42 3.42 0 0 1 6.839.002z"/><path fill="#f97b78" d="M355.988 187.105a1.707 1.707 0 0 1-3.415 0c0-.758 1.103-5.672 1.536-7.57.042-.183.3-.183.342 0 .433 1.898 1.537 6.812 1.537 7.57z"/><path fill="#c2d5ff" d="M360.393 196.138v2.989a.793.793 0 0 1-.793.793h-10.64a.793.793 0 0 1-.792-.793v-2.99c0-.438.355-.793.793-.793H359.6c.438 0 .793.355.793.794zM419.001 131.285h16.27v16.27h-16.27zM442.807 134.854h29.51v3.058h-29.51zM442.807 140.927h20.301v3.058h-20.301zM419.001 155.216h16.27v16.27h-16.27zM442.807 158.786h29.51v3.058h-29.51zM442.807 164.859h20.301v3.058h-20.301zM419.001 179.148h16.27v16.27h-16.27zM442.807 182.717h29.51v3.058h-29.51zM442.807 188.79h20.301v3.058h-20.301z"/><path fill="#b3b3ff" d="M112.97 126.766v52.579h19.19l23.372 14.094v-14.094h19.206v-52.579z"/><path fill="#8f8fea" d="m165.831 156.971-2.448-.636a11.19 11.19 0 0 0-1.472-3.545l1.28-2.187a.396.396 0 0 0-.06-.488l-1.978-1.977a.41.41 0 0 0-.488-.07l-2.186 1.29a10.996 10.996 0 0 0-3.546-1.473l-.636-2.448a.41.41 0 0 0-.4-.305h-2.788a.4.4 0 0 0-.392.305l-.645 2.448a10.95 10.95 0 0 0-3.537 1.472l-2.186-1.289a.421.421 0 0 0-.497.07l-1.977 1.977a.396.396 0 0 0-.061.488l1.28 2.187a11.19 11.19 0 0 0-1.472 3.545l-2.44.636a.409.409 0 0 0-.313.392v2.797c0 .183.13.348.314.392l2.44.644a11.227 11.227 0 0 0 1.471 3.537l-1.28 2.187a.409.409 0 0 0 .06.496l1.978 1.978c.13.13.331.157.497.06l2.186-1.289a10.755 10.755 0 0 0 3.537 1.473l.645 2.448a.4.4 0 0 0 .392.305h2.788a.41.41 0 0 0 .4-.305l.636-2.448a10.8 10.8 0 0 0 3.546-1.473l2.186 1.29c.157.096.358.07.488-.061l1.978-1.978c.13-.13.157-.34.06-.496l-1.28-2.187a11.228 11.228 0 0 0 1.472-3.537l2.448-.644a.4.4 0 0 0 .305-.392v-2.797a.4.4 0 0 0-.305-.392zm-13.328 6.926a5.136 5.136 0 1 1 0-10.271 5.136 5.136 0 1 1 0 10.27z"/><path fill="#fff" d="M152.503 151.466c-4.025 0-7.292 3.266-7.292 7.3a7.294 7.294 0 0 0 7.292 7.291 7.289 7.289 0 0 0 7.291-7.291 7.29 7.29 0 0 0-7.291-7.3zm0 12.43a5.136 5.136 0 1 1 0-10.27 5.136 5.136 0 1 1 0 10.27z"/><path fill="#8f8fea" d="m142.636 143.734-1.913-.497c-.224-1-.62-1.933-1.15-2.77l1-1.709a.31.31 0 0 0-.047-.38l-1.545-1.546a.32.32 0 0 0-.381-.054l-1.709 1.007a8.59 8.59 0 0 0-2.77-1.15l-.496-1.912a.32.32 0 0 0-.314-.239h-2.177a.313.313 0 0 0-.307.239l-.503 1.912c-1 .225-1.926.613-2.764 1.15l-1.708-1.007a.33.33 0 0 0-.388.054l-1.545 1.545a.31.31 0 0 0-.047.381l1 1.709a8.742 8.742 0 0 0-1.15 2.77l-1.906.497a.32.32 0 0 0-.245.306v2.185a.32.32 0 0 0 .245.306l1.906.504c.224.993.62 1.926 1.15 2.763l-1 1.708a.32.32 0 0 0 .047.388l1.545 1.545a.318.318 0 0 0 .388.048l1.708-1.008a8.403 8.403 0 0 0 2.764 1.15l.503 1.913a.313.313 0 0 0 .307.238h2.177a.32.32 0 0 0 .314-.238l.496-1.912c1-.218 1.933-.613 2.77-1.15l1.709 1.007a.31.31 0 0 0 .38-.048l1.546-1.545a.32.32 0 0 0 .048-.388l-1.001-1.708c.53-.837.926-1.77 1.15-2.763l1.913-.504a.313.313 0 0 0 .238-.306v-2.185a.313.313 0 0 0-.238-.306zm-10.413 5.41a4.013 4.013 0 1 1 0-8.024 4.013 4.013 0 1 1 0 8.024z"/><path fill="#fff" d="M132.223 139.432a5.7 5.7 0 0 0 0 11.4 5.695 5.695 0 0 0 5.696-5.696 5.696 5.696 0 0 0-5.696-5.704zm0 9.712a4.013 4.013 0 1 1 0-8.024 4.013 4.013 0 1 1 0 8.024z"/><path fill="#ffdc8e" d="M260.252 379.283c0 3.22-2.62 5.83-5.84 5.83-3.23 0-5.84-2.61-5.84-5.83 0-3.23 2.61-5.84 5.84-5.84a5.84 5.84 0 0 1 5.84 5.84z"/><path fill="#c2d5ff" d="M135.725 108.83a1 1 0 0 1-1-1v-3.001a1 1 0 0 1 2 0v3a1 1 0 0 1-1 1zM135.725 100.133a1 1 0 0 1-1-1v-3.001a1 1 0 0 1 2 0v3a1 1 0 0 1-1 1zM132.877 102.98h-3a1 1 0 0 1 0-2h3a1 1 0 0 1 0 2zM141.575 102.98h-3.001a1 1 0 0 1 0-2h3a1 1 0 0 1 0 2z"/><path fill="#fff" d="m218.935 132.305-.574 5.683 4.353 3.686a.594.594 0 0 1-.254 1.034l-5.578 1.211-2.164 5.282a.583.583 0 0 1-.172.23.586.586 0 0 1-.891-.159l-2.877-4.924-5.691-.428a.6.6 0 0 1-.506-.372.593.593 0 0 1 .104-.614l3.804-4.259-1.353-5.544c-.108-.444.4-.87.814-.683l5.228 2.294 4.851-3a.6.6 0 0 1 .628 0 .6.6 0 0 1 .278.563zM253.275 205.903l5.95 4.683 7.22-2.25a.788.788 0 0 1 .976 1.02l-2.61 7.103 4.372 6.177c.078.108.118.23.134.355a.777.777 0 0 1-.81.884l-7.556-.282-4.525 6.065a.795.795 0 0 1-.777.3.787.787 0 0 1-.613-.553l-2.06-7.284-7.167-2.428c-.572-.193-.688-1.066-.185-1.395l6.285-4.22.09-7.562a.796.796 0 0 1 .447-.701.794.794 0 0 1 .829.088zM120 213.378l-.28 2.775 2.126 1.8a.29.29 0 0 1-.124.504l-2.724.592-1.057 2.58a.285.285 0 0 1-.084.111.286.286 0 0 1-.435-.077l-1.405-2.405-2.779-.208a.293.293 0 0 1-.247-.182.29.29 0 0 1 .051-.3l1.858-2.08-.661-2.707c-.053-.217.195-.425.397-.333l2.553 1.12 2.37-1.466a.293.293 0 0 1 .306 0 .293.293 0 0 1 .136.276z"/><path fill="#c2d5ff" d="m513.412 173.214-.41 4.06 3.11 2.632a.425.425 0 0 1-.182.74l-3.985.865-1.546 3.773a.417.417 0 0 1-.122.164.419.419 0 0 1-.637-.113l-2.055-3.518-4.066-.306a.424.424 0 0 1-.287-.705l2.718-3.042-.967-3.96c-.077-.317.286-.622.581-.488l3.736 1.639 3.465-2.144a.43.43 0 0 1 .448 0 .428.428 0 0 1 .2.403z"/><path fill="#fff" d="m417.384 283.438-.383 3.79 2.903 2.46a.396.396 0 0 1-.17.69l-3.72.807-1.444 3.524a.39.39 0 0 1-.115.153.391.391 0 0 1-.594-.106l-1.919-3.285-3.796-.285a.4.4 0 0 1-.338-.248.396.396 0 0 1 .07-.41l2.537-2.84-.902-3.7c-.073-.295.267-.58.542-.454l3.488 1.53 3.236-2.002a.4.4 0 0 1 .418 0 .4.4 0 0 1 .187.376zM243.53 120.615a1 1 0 0 1-.707-1.707l2.706-2.707a1 1 0 1 1 1.414 1.414l-2.707 2.707a.997.997 0 0 1-.707.293zM251.375 112.77a1 1 0 0 1-.707-1.707l2.707-2.708a1 1 0 1 1 1.414 1.414l-2.707 2.708a.997.997 0 0 1-.707.292zM246.236 112.77a.997.997 0 0 1-.707-.293l-2.707-2.708a1 1 0 1 1 1.414-1.414l2.707 2.707a1 1 0 0 1-.707 1.707zM254.082 120.615a.997.997 0 0 1-.707-.293l-2.707-2.707a1 1 0 1 1 1.414-1.414l2.707 2.707a1 1 0 0 1-.707 1.707zM482.082 310.526a1 1 0 0 1-1-1v-3.001a1 1 0 0 1 2 0v3a1 1 0 0 1-1 1zM482.082 301.829a1 1 0 0 1-1-1v-3.001a1 1 0 0 1 2 0v3a1 1 0 0 1-1 1zM479.233 304.677h-3a1 1 0 0 1 0-2h3a1 1 0 0 1 0 2zM487.93 304.677h-3a1 1 0 0 1 0-2h3a1 1 0 0 1 0 2z"/></svg>