<svg xmlns="http://www.w3.org/2000/svg" enable-background="new 0 0 3000 3000" viewBox="0 0 3000 3000"><path fill="#f4b037" d="M1553.1,1961.5L1553.1,1961.5c-20.7-2.1-40.7,8.1-51.2,26l-54.5,93.3l29-1.2c9.6-0.4,14.3,11.6,6.9,17.8
						c-45.8,38-146.5,128.5-197.8,228.1l99.3-14.4c0,0-174,323.1,20.8,475.7c133.9,104.9,77.2,188.1,77.2,188.1
						s205.2-109.7,151.7-321.6c0,0,59.4-13.3,115.1,68c0,0,46.6-118.6-72.1-260.3l126.6,24.6c-135.4-76.5-199-238.9-203.2-472.2
						C1600.3,1986.6,1579.8,1964.2,1553.1,1961.5z"/><path fill="#e25651" d="M1537.3,2091.6L1537.3,2091.6c-12.6-1.3-24.9,4.9-31.3,15.9l-33.3,57l17.7-0.7c5.9-0.2,8.7,7.1,4.2,10.8
						c-28,23.2-89.5,78.6-120.9,139.4l60.7-8.8c0,0-106.4,197.5,12.7,290.8c81.8,64.1,47.2,115,47.2,115s125.4-67.1,92.7-196.6
						c0,0,36.3-8.1,70.3,41.5c0,0,28.5-72.5-44.1-159.1l77.4,15.1c-82.8-46.8-121.6-146-124.2-288.6
						C1566.1,2106.9,1553.6,2093.2,1537.3,2091.6z"/><path fill="#414143" d="M1472.1,1995.6h145.2c20.9,0,37.8-16.9,37.8-37.8l0-100.3l-220.7,0v100.3
					C1434.4,1978.7,1451.3,1995.6,1472.1,1995.6z"/><rect width="182.8" height="484.8" x="673" y="528.9" fill="#3f98d7"/><rect width="67.1" height="484.8" x="788.6" y="528.9" fill="#2a84b5"/><path fill="#e2e2e2" d="M866.7,545.4H662c-2.5,0-4.5-2-4.5-4.5v-23.5c0-2.5,2-4.5,4.5-4.5h204.7c2.5,0,4.5,2,4.5,4.5v23.5
								C871.2,543.4,869.2,545.4,866.7,545.4z"/><polygon fill="#ededed" points="1302.8 1041.5 1302.8 1894.4 631.7 1894.4 631.7 1041.5 837.1 800.7 837.8 799.9 973.4 640.9 979.1 647.8"/><rect width="1045" height="916.8" x="1302.8" y="977.6" fill="#e0e0e0"/><polygon fill="#b6b7b7" points="2347.7 1031.4 2347.7 1182 1344.1 1182 1302.8 1132.7 973.4 740.1 631.7 1132.9 631.7 1041.5 837.1 800.7 837.8 799.9 973.4 647.1 979.1 647.8 1703.4 729.7 1924.4 729.7 2272.1 977.6"/><polygon fill="#2a84b5" points="2475.7 1077.2 2440.6 1136.5 1344.1 1136.5 973.4 694.6 580 1146.9 524.3 1107.6 973.4 601.7 1703.4 684.3 1924.4 684.3"/><polygon fill="#3f98d7" points="973.4 601.7 2057.6 601.7 2475.7 1077.2 1390 1077.2"/><rect width="287.6" height="558.8" x="815.3" y="1335.6" fill="#fabc3f"/><rect width="30.5" height="558.8" x="815.3" y="1335.6" fill="#eaa22f"/><rect width="266.4" height="370.2" x="1485.7" y="1338.9" fill="#3f98d7"/><rect width="103.3" height="142" x="1505.7" y="1370.7" fill="#eaa22f"/><rect width="90.5" height="129.6" x="1512.1" y="1376.9" fill="#f4b037"/><rect width="103.3" height="142" x="1628.8" y="1370.7" fill="#eaa22f"/><rect width="90.5" height="129.6" x="1635.2" y="1376.9" fill="#f4b037"/><rect width="103.3" height="142" x="1505.7" y="1535.2" fill="#eaa22f"/><rect width="90.5" height="129.6" x="1512.1" y="1541.4" fill="#f4b037"/><rect width="103.3" height="142" x="1628.8" y="1535.2" fill="#eaa22f"/><rect width="90.5" height="129.6" x="1635.2" y="1541.4" fill="#f4b037"/><path fill="#2a84b5" d="M1760.3,1718.4h-282.8c-6,0-10.8-4.9-10.8-10.8l0,0c0-6,4.9-10.8,10.8-10.8h282.8
								c6,0,10.8,4.9,10.8,10.8l0,0C1771.1,1713.5,1766.3,1718.4,1760.3,1718.4z"/><g><rect width="266.4" height="370.2" x="1889.5" y="1338.9" fill="#3f98d7"/><rect width="103.3" height="142" x="1909.5" y="1370.7" fill="#eaa22f"/><rect width="90.5" height="129.6" x="1915.9" y="1376.9" fill="#f4b037"/><rect width="103.3" height="142" x="2032.6" y="1370.7" fill="#eaa22f"/><rect width="90.5" height="129.6" x="2039" y="1376.9" fill="#f4b037"/><rect width="103.3" height="142" x="1909.5" y="1535.2" fill="#eaa22f"/><rect width="90.5" height="129.6" x="1915.9" y="1541.4" fill="#f4b037"/><rect width="103.3" height="142" x="2032.6" y="1535.2" fill="#eaa22f"/><rect width="90.5" height="129.6" x="2039" y="1541.4" fill="#f4b037"/><path fill="#2a84b5" d="M2164.1,1718.4h-282.8c-6,0-10.8-4.9-10.8-10.8l0,0c0-6,4.9-10.8,10.8-10.8h282.8
								c6,0,10.8,4.9,10.8,10.8l0,0C2174.9,1713.5,2170.1,1718.4,2164.1,1718.4z"/></g><rect width="1907.6" height="26.8" x="538.1" y="1894.4" fill="#3f98d7"/><g><path fill="#585a5e" d="M1861.3,2057.5c-4.7,96.7-5.2,194.2-1.5,290.4C1864.5,2251.2,1865,2153.7,1861.3,2057.5L1861.3,2057.5z"/><path fill="#585a5e" d="M1893.2,2151.1c-4.7,96.7-5.2,194.2-1.5,290.4C1896.4,2344.8,1896.8,2247.3,1893.2,2151.1L1893.2,2151.1z"/><path fill="#585a5e" d="M1917.2,2039.6L1917.2,2039.6c-3.4,70.6-2.6,140.8,2.4,210.5C1923,2179.5,1922.1,2109.3,1917.2,2039.6"/></g><g><path fill="#585a5e" d="M1106.8,2383.3c-4.7,96.7-5.2,194.2-1.5,290.4C1110,2576.9,1110.4,2479.5,1106.8,2383.3L1106.8,2383.3z"/><path fill="#585a5e" d="M1138.6,2476.9c-4.7,96.7-5.2,194.2-1.5,290.4C1141.8,2670.5,1142.3,2573,1138.6,2476.9L1138.6,2476.9z"/><path fill="#585a5e" d="M1162.6,2365.3L1162.6,2365.3c-3.4,70.6-2.6,140.8,2.4,210.5C1168.5,2505.2,1167.6,2435,1162.6,2365.3"/></g><g><rect width="43.1" height="42" x="1608.4" y="816.2" fill="#fdbab3" transform="matrix(.06106 -.9981 .9981 .06106 694.771 2412.969)"/><path fill="#2a2a2c" d="M1742.7,888.6c0,0,5.5,29.5-55.1,23.7c-5.9-0.6-11.8-1.7-17.6-3.3c-8.2-2.3-21.8-5.2-31.3-6.1l-0.4,9.9
						l-36.2-2c-3.9-0.4-6.7-3.7-6.6-7.6l1.8-22.1c0,0,60.8,1.8,61.8,2.3c1,0.5,52.7,11.6,52.7,11.6L1742.7,888.6z"/><path fill="#414143" d="M1713.1,908.1l-2,0.1c-6.2,0.3-13.6,0.1-22.4-0.8c-5.9-0.6-11.8-1.7-17.5-3.3c-8.2-2.3-21.8-5.8-31.4-6.7
						c0,0-7.2-0.1-15.7-0.6c-0.6,0-1.2-0.1-1.8-0.1c-1.4-0.1-2.9-0.1-4.4-0.3c-0.6,0-1.3-0.1-1.9-0.1c-1.1-0.1-2.2-0.1-3.3-0.3
						c-0.6-0.1-1.3-0.1-1.9-0.2c-7.8-0.7-14.1-1.7-14-3.2c-0.6-5.8-0.7-11.6-0.4-17.4c0.3-6.9,1.2-13.8,2.8-20.7
						c1-4.6,5.3-7.7,10-7.1l33,3.8c2.5,0.3,5-0.6,6.8-2.3c0.2-0.2,0.4-0.4,0.6-0.6l0.1-0.1l0.5-0.6l0-0.1l0.1-0.1l1.2-1.4l0,0
						l1.2-1.4l0.1-0.1c1.5-1.8,4.3-1.8,5.8,0c6.4,7.4,13.2,14.1,20.6,20c9.4,7.7,20.6,12.9,32.4,15c0.7,0.1,1.4,0.2,2.1,0.3
						c2.6,0.4,5.2,0.6,7.8,0.7c21.8,0.7,21.4,7.9,21.4,7.9S1747.3,906,1713.1,908.1z"/><path fill="#c6c7cd" d="M1647.8,852c-0.1,1.1,0.7,2,1.8,2.1c1.1,0.1,2-0.7,2.1-1.8c0.1-1.1-0.7-2-1.8-2.1
							C1648.9,850.1,1647.9,850.9,1647.8,852z"/><path fill="#2a2a2c" d="M1649.7,853.1c0.3,0,0.5-0.1,0.7-0.3l7.9-7.8c0.4-0.4,0.4-1,0-1.4c-0.4-0.4-1-0.4-1.4,0l-7.9,7.8
								c-0.4,0.4-0.4,1,0,1.4C1649.3,853,1649.5,853.1,1649.7,853.1z"/><path fill="#c6c7cd" d="M1652.6,855.7c-0.1,1.1,0.7,2,1.8,2.1c1.1,0.1,2-0.7,2.1-1.8c0.1-1.1-0.7-2-1.8-2.1
							C1653.6,853.8,1652.7,854.6,1652.6,855.7z"/><path fill="#2a2a2c" d="M1654.5,856.8c0.3,0,0.5-0.1,0.7-0.3l7.4-7.4c0.4-0.4,0.4-1,0-1.4s-1-0.4-1.4,0l-7.4,7.4
								c-0.4,0.4-0.4,1,0,1.4C1654,856.7,1654.2,856.8,1654.5,856.8z"/><path fill="#c6c7cd" d="M1657.3,859.7c-0.1,1.1,0.7,2,1.8,2.1c1.1,0.1,2-0.7,2.1-1.8c0.1-1.1-0.7-2-1.8-2.1
							C1658.3,857.8,1657.4,858.7,1657.3,859.7z"/><path fill="#2a2a2c" d="M1659.2,860.8c0.3,0,0.5-0.1,0.7-0.3l7-7.1c0.4-0.4,0.4-1,0-1.4c-0.4-0.4-1-0.4-1.4,0l-7,7.1
								c-0.4,0.4-0.4,1,0,1.4C1658.7,860.7,1659,860.8,1659.2,860.8z"/><path fill="#c6c7cd" d="M1661.7,863.8c0,1.1,0.8,2,1.9,2c1.1,0,2-0.8,2-1.9s-0.8-2-1.9-2C1662.6,861.9,1661.7,862.7,1661.7,863.8
							z"/><path fill="#2a2a2c" d="M1663.6,864.8c0.3,0,0.5-0.1,0.7-0.3l6.6-7.1c0.4-0.4,0.3-1,0-1.4c-0.4-0.4-1-0.3-1.4,0l-6.6,7.1
								c-0.4,0.4-0.3,1,0,1.4C1663.2,864.7,1663.4,864.8,1663.6,864.8z"/><path fill="#c6c7cd" d="M1666.6,867.4c0,1.1,0.8,2,1.9,2c1.1,0,2-0.8,2-1.9c0-1.1-0.8-2-1.9-2
							C1667.5,865.4,1666.6,866.3,1666.6,867.4z"/><path fill="#2a2a2c" d="M1668.5,868.4c0.3,0,0.5-0.1,0.7-0.3l6.4-6.8c0.4-0.4,0.3-1,0-1.4c-0.4-0.4-1-0.3-1.4,0l-6.4,6.8
								c-0.4,0.4-0.3,1,0,1.4C1668.1,868.3,1668.3,868.4,1668.5,868.4z"/><path fill="#c6c7cd" d="M1671.5,871.2c0,1.1,0.8,2,1.9,2c1.1,0,2-0.8,2-1.9c0-1.1-0.8-2-1.9-2
							C1672.4,869.2,1671.5,870.1,1671.5,871.2z"/><path fill="#2a2a2c" d="M1673.4,872.2c0.3,0,0.5-0.1,0.7-0.3l6.1-6.4c0.4-0.4,0.3-1,0-1.4c-0.4-0.4-1-0.3-1.4,0l-6.1,6.4
								c-0.4,0.4-0.3,1,0,1.4C1673,872.1,1673.2,872.2,1673.4,872.2z"/><path fill="#2a2a2c" d="M1681.7,875.9c0,3.3-1.4,6.5-3.9,8.7c-2.6,2.3-6.1,3.2-9.6,2.5l-32-6.4c-2.6-0.5-5.3,0.1-7.4,1.7
						c-2.1,1.5-3.5,4-3.8,6.6l-0.8,7.9c-0.6,0-1.2-0.1-1.8-0.1l0.8-8c0.4-3.1,2-6,4.6-7.9c2.5-1.8,5.8-2.6,8.9-1.9l32,6.4
						c2.9,0.6,5.8-0.2,8-2.1c2.1-1.8,3.3-4.5,3.3-7.3c0-2.8-1.3-5.4-3.5-7.2l-26.2-21.1l1.2-1.4l26.2,21.1
						C1680.1,869.4,1681.6,872.6,1681.7,875.9z"/><rect width="43.1" height="42" x="1571.7" y="837.4" fill="#fdbab3" transform="matrix(.06106 -.9981 .9981 .06106 639.165 2396.277)"/><path fill="#2a2a2c" d="M1706,909.8c0,0,5.5,29.5-55.1,23.7c-5.9-0.6-11.8-1.7-17.6-3.3c-8.2-2.3-21.8-5.2-31.3-6.1l-0.4,9.9
						l-36.2-2c-3.9-0.4-6.7-3.7-6.6-7.6l1.8-22.1c0,0,60.8,1.8,61.8,2.3c1,0.5,52.7,11.6,52.7,11.6L1706,909.8z"/><path fill="#414143" d="M1676.4,929.3l-2,0.1c-6.2,0.3-13.6,0.1-22.4-0.8c-5.9-0.6-11.8-1.7-17.5-3.3c-8.2-2.3-21.8-5.8-31.4-6.7
						c0,0-7.2-0.1-15.7-0.6c-0.6,0-1.2-0.1-1.8-0.1c-1.4-0.1-2.9-0.1-4.4-0.3c-0.6,0-1.3-0.1-1.9-0.1c-1.1-0.1-2.2-0.1-3.3-0.3
						c-0.6-0.1-1.3-0.1-1.9-0.2c-7.8-0.7-14.1-1.7-14-3.2c-0.6-5.8-0.7-11.6-0.4-17.4c0.3-6.9,1.2-13.8,2.8-20.7
						c1-4.6,5.3-7.7,10-7.1l33,3.8c2.5,0.3,5-0.6,6.8-2.3c0.2-0.2,0.4-0.4,0.6-0.6l0.1-0.1l0.5-0.6l0-0.1l0.1-0.1l1.2-1.4l0,0
						l1.2-1.4l0.1-0.1c1.5-1.8,4.3-1.8,5.8,0c6.4,7.4,13.2,14.1,20.6,20c9.4,7.7,20.6,12.9,32.4,15c0.7,0.1,1.4,0.2,2.1,0.3
						c2.6,0.4,5.2,0.6,7.8,0.7c21.8,0.7,21.4,7.9,21.4,7.9S1710.7,927.2,1676.4,929.3z"/><path fill="#c6c7cd" d="M1611.2,873.2c-0.1,1.1,0.7,2,1.8,2.1c1.1,0.1,2-0.7,2.1-1.8c0.1-1.1-0.7-2-1.8-2.1
							S1611.2,872.1,1611.2,873.2z"/><path fill="#2a2a2c" d="M1613,874.3c0.3,0,0.5-0.1,0.7-0.3l7.9-7.8c0.4-0.4,0.4-1,0-1.4c-0.4-0.4-1-0.4-1.4,0l-7.9,7.8
								c-0.4,0.4-0.4,1,0,1.4C1612.6,874.2,1612.8,874.3,1613,874.3z"/><path fill="#c6c7cd" d="M1615.9,876.9c-0.1,1.1,0.7,2,1.8,2.1c1.1,0.1,2-0.7,2.1-1.8c0.1-1.1-0.7-2-1.8-2.1
							C1616.9,875,1616,875.9,1615.9,876.9z"/><path fill="#2a2a2c" d="M1617.8,878c0.3,0,0.5-0.1,0.7-0.3l7.4-7.4c0.4-0.4,0.4-1,0-1.4c-0.4-0.4-1-0.4-1.4,0l-7.4,7.4
								c-0.4,0.4-0.4,1,0,1.4C1617.3,877.9,1617.6,878,1617.8,878z"/><path fill="#c6c7cd" d="M1620.6,880.9c-0.1,1.1,0.7,2,1.8,2.1c1.1,0.1,2-0.7,2.1-1.8c0.1-1.1-0.7-2-1.8-2.1
							C1621.6,879.1,1620.7,879.9,1620.6,880.9z"/><path fill="#2a2a2c" d="M1622.5,882.1c0.3,0,0.5-0.1,0.7-0.3l7-7.1c0.4-0.4,0.4-1,0-1.4c-0.4-0.4-1-0.4-1.4,0l-7,7.1
								c-0.4,0.4-0.4,1,0,1.4C1622.1,881.9,1622.3,882,1622.5,882.1z"/><path fill="#c6c7cd" d="M1625,885c0,1.1,0.8,2,1.9,2s2-0.8,2-1.9c0-1.1-0.8-2-1.9-2C1626,883.1,1625.1,883.9,1625,885z"/><path fill="#2a2a2c" d="M1627,886c0.3,0,0.5-0.1,0.7-0.3l6.6-7.1c0.4-0.4,0.3-1,0-1.4c-0.4-0.4-1-0.3-1.4,0l-6.6,7.1
								c-0.4,0.4-0.3,1,0,1.4C1626.5,886,1626.7,886,1627,886z"/><path fill="#c6c7cd" d="M1629.9,888.6c0,1.1,0.8,2,1.9,2s2-0.8,2-1.9c0-1.1-0.8-2-1.9-2C1630.9,886.6,1630,887.5,1629.9,888.6z"/><path fill="#2a2a2c" d="M1631.8,889.6c0.3,0,0.5-0.1,0.7-0.3l6.4-6.8c0.4-0.4,0.3-1,0-1.4c-0.4-0.4-1-0.3-1.4,0l-6.4,6.8
								c-0.4,0.4-0.3,1,0,1.4C1631.4,889.5,1631.6,889.6,1631.8,889.6z"/><path fill="#c6c7cd" d="M1634.8,892.4c0,1.1,0.8,2,1.9,2c1.1,0,2-0.8,2-1.9c0-1.1-0.8-2-1.9-2S1634.8,891.3,1634.8,892.4z"/><path fill="#2a2a2c" d="M1636.7,893.4c0.3,0,0.5-0.1,0.7-0.3l6.1-6.4c0.4-0.4,0.3-1,0-1.4s-1-0.3-1.4,0l-6.1,6.4
								c-0.4,0.4-0.3,1,0,1.4C1636.3,893.3,1636.5,893.4,1636.7,893.4z"/><g><path fill="#2a2a2c" d="M1645,897.2c0,3.3-1.4,6.5-3.9,8.7c-2.6,2.3-6.1,3.2-9.6,2.5l-32-6.4c-2.6-0.5-5.3,0.1-7.4,1.7
						c-2.1,1.5-3.5,4-3.8,6.6l-0.8,7.9c-0.6,0-1.2-0.1-1.8-0.1l0.8-8c0.4-3.1,2-6,4.6-7.9c2.5-1.8,5.8-2.6,8.9-1.9l32,6.4
						c2.9,0.6,5.8-0.2,8-2.1c2.1-1.8,3.3-4.5,3.3-7.3c0-2.8-1.3-5.4-3.5-7.2l-26.2-21.1l1.2-1.4l26.2,21.1
						C1643.4,890.6,1644.9,893.8,1645,897.2z"/></g><g><path fill="#353535" d="M1596.9,833h64.9l4.8-280.3c0.6-34.4-26.9-62.7-61.3-63.1l-204-0.9l25.9,37.7l103.7,32.1l45.7,58.3
					c0,0,11.1,42.3,11.1,43.4c0,1.1,18.3,96.1,18.3,96.1L1596.9,833z"/><path fill="#414143" d="M1238.5,457.6l-6.5,36.6c-10.7,60,35.1,115.3,96.1,115.9l209.7,2.1c6.1,0.1,11,4.8,11.4,10.8l14.1,233h60.4
					l9.5-280.8c1-29.7-20.1-55.6-49.4-60.5l-172.8-26.1c-9.7-1.6-16.7-10.1-16.6-20l-11.7-11.1
					C1319.5,471.7,1286.4,473.7,1238.5,457.6z"/></g><g><path fill="#fdbab3" d="M1563.4,409.2l30.7,20.2c3.3,2.2,6.5,4.7,9.4,7.4c9,8.2,34.1,26.2,60.8,1.7c4.1-3.8,2.4-10.6-3-11.7
				c-9.7-2.1-25.9-6.7-28.9-13.7l14.9-5.5c2.8-1,4.1-4.2,3-6.9l0,0c-0.9-2.1-3.2-3.4-5.5-3l-18.8,2.6c-4.6,0.6-9.3-0.2-13.4-2.4
				l-30-16"/><path fill="#585a5e" d="M1337.4,262.4l87.3,80.3c4,3.7,8.5,7,13.2,9.7l154.9,81.6l24.4-38.6L1473,303.6
				c-6.3-4.5-11.8-10.1-16.2-16.5L1394.5,182l-14.5,3.7l-45.8,41.5L1337.4,262.4z"/></g><g><rect width="47.2" height="84.3" x="1305" y="106.9" fill="#fdbab3"/><path fill="#fdbab3" d="M1386.4,94c2.8,37.8-19.8,57.4-44.4,57.4s-44.8-25.2-44.8-57.4s20-58.4,44.6-58.4S1384,61.8,1386.4,94z"/><path fill="#414143" d="M1363.3,32.5c-19.9-16-36.9-1.5-36.9-1.5c-29.2-8.1-33.9,24.1-33.9,24.1c-33.5-0.9,12.4,80.4,12.4,80.4
				l3.1-10.8c1.6-5.6,1.3-11.6-1-16.9c-4.5-10.2-5.6-22.8,5.1-24.5c9.2-1.5,14.2,12.4,16,19.1c0.5,1.9,2.5,3.1,4.4,2.6l0,0
				c1.8-0.5,3-2.2,2.7-4.1l-4.1-27c13.1,4,39.2-0.9,44.8-2.9c0,0,24.1-7.4,20-32.9c0,0-3.2,6.4-16.2,6.9c0,0,10.8-2.5,9.5-17.9
				C1389.2,27.1,1375,41.9,1363.3,32.5z"/></g><g><path fill="#e5e5e5" d="M1391.8,314.9c0,1.5,0,170.1,0,170.1c-52.1,24.9-99.7,6.4-99.5,6.8l2.5-286.5l10.3-49l36.9,24.6l23.2-19.4
					l14.9,13.1l3.1,66.9C1383.1,241.5,1391.8,313.4,1391.8,314.9z"/><path fill="#585a5e" d="M1221.6,507.1c-1.5,6.4-0.1,12.9,6.2,14.5c0,0,130.2,10.9,116.2-136.3l-6.7-149.2
					c0-27.5-8.7-56.2-28.9-74.9l-3.4-5l-25,10.5c-27.5,13.4-44.3,41.9-42.7,72.5l0.3,57.2C1239.9,343.5,1224.9,493.1,1221.6,507.1z"/><path fill="#585a5e" d="M1352.2,158.1l13,3.5c20.1,5.9,36.1,21.8,36.1,42.3v35.1c0,21.3,1.4,42.5,4.2,63.6l15.8,174.3
					c1,7.4-2.5,10.3-11,15.4l-32.2,13.2c-5.4,1.3-9.9-4.4-7.2-9.4l0,0c9.7-18.1,13.8-57,11.8-77.4L1371,300
					c-1-10.5-1.7-21.1-1.9-31.7L1352.2,158.1z"/><polygon fill="#c6c7cd" points="1352.2 158.1 1357 189.5 1328.9 192 1305 156.3 1342 180.9"/><path fill="#e25651" d="M1342,180.9l-5.9,7.1l2.2,8.9l-2.2,18c-6.1,50.3-35,95-78.4,121.1l-7.9,4.8c-23.9,14.4-43.6,34.8-57.2,59.2
				l-16.8,30.2l12.5,23l25.5-10.4l20.4-36.7c9.2-16.6,21.5-31.2,36.3-43l15.4-12.3c39-31.1,61.8-78.3,61.9-128.2l0.1-24.9l0.9-10.2
				L1342,180.9z"/></g><path fill="#414143" d="M1386.2,107.6L1386.2,107.6l-48.8-0.3l-3.1-12.6l-7.9,2.3l6.8,35.9c2.2,11.5,13,19.1,24.5,17.4h0
			C1376.8,147.3,1388.3,126.7,1386.2,107.6z"/><g><polyline fill="#b2b2b2" points="1406.5 496.8 1535.3 496.8 1522.7 509.7 1406.5 509.7"/><polygon fill="#e2e2e2" points="1588 371.7 1522.7 509.7 1690.3 509.7 1757.5 373.4"/><ellipse cx="1640.1" cy="440.7" fill="#b2b2b2" rx="13.5" ry="11.6" transform="rotate(-63.914 1640.117 440.734)"/></g><g><path fill="#fdbab3" d="M1493.8,426.2l33.5,15.1c3.6,1.6,7.1,3.6,10.5,5.8c10.2,6.7,37.8,20.4,60.3-8c3.4-4.4,0.7-10.8-4.9-11.1
				c-9.9-0.5-26.7-2.5-30.8-9l13.9-7.8c2.6-1.5,3.4-4.8,1.8-7.3l0,0c-1.3-2-3.7-2.8-5.9-2.1l-18.1,5.6c-4.4,1.4-9.2,1.3-13.6-0.2
				l-32.2-11.1"/><path fill="#585a5e" d="M1523.6,444.6c0,0-177.8-70.4-182.2-75.4c-10.1-11.3-34-35.3-55.8-56.8c-4.4-4.2-8.6-8.5-12.7-12.5
				c-16.7-16.4-29.7-28.9-29.7-28.9l34.1-48.9l35.7-0.4l68.4,98.2c2.3,4.2,167.2,82,167.2,82L1523.6,444.6z"/></g></g></svg>