<svg xmlns="http://www.w3.org/2000/svg" enable-background="new 0 0 50 50" viewBox="0 0 50 50"><path fill="none" stroke="#696DA3" stroke-linecap="round" stroke-linejoin="round" stroke-miterlimit="10" stroke-width="1.06" d="M29.4 4.5v9.9c3.8-.3 6.8-3.5 6.8-7.4 0-.9-.2-1.7-.4-2.5H29.4zM20.4 4.5v9.9c-3.8-.3-6.8-3.5-6.8-7.4 0-.9.2-1.7.4-2.5H20.4z"/><circle cx="13.2" cy="30.8" r="4.1" fill="#94D5FF"/><path fill="#FFD599" d="M12.8,28.4c0,0.8-0.7,1.5-1.5,1.5c-0.8,0-1.4-0.6-1.5-1.4c0.4-0.7,1.1-1.2,1.8-1.5C12.3,27.1,12.8,27.7,12.8,28.4z"/><path fill="#B4E2FF" d="M12.8,28.4c0,0.8-0.7,1.5-1.5,1.5c-0.8,0-1.4-0.6-1.5-1.4c0.4-0.7,1.1-1.2,1.8-1.5C12.3,27.1,12.8,27.7,12.8,28.4z"/><circle cx="13.2" cy="30.8" r="4.1" fill="none" stroke="#696DA3" stroke-linecap="round" stroke-linejoin="round" stroke-miterlimit="10" stroke-width=".98"/><path fill="#B1F1A8" d="M22.5,45.1L22.5,45.1c0,1.7-1.4,3-3,3H7c-1.6,0-3-1.3-3-2.9v0c0-1.2,0.2-2.3,0.4-3.2c0.9-2.7,2.9-4,5.4-4.5c1-0.2,2.2-0.3,3.4-0.3C18.3,37.1,22.5,38.7,22.5,45.1z"/><path fill="#A5E09C" d="M22.5,45.1L22.5,45.1c0,1.7-1.4,3-3,3h-5.7c2.7-1.7,4.5-4.7,4.5-8.1c0-0.7-0.1-1.5-0.3-2.2C20.7,38.7,22.5,40.9,22.5,45.1z"/><path fill="#C9F5C2" d="M10.5,39.4c0,2-1.6,3.5-3.5,3.5c-1,0-1.9-0.4-2.5-1c0.9-2.7,2.9-4,5.4-4.5C10.2,37.9,10.5,38.6,10.5,39.4z"/><path fill="none" stroke="#696DA3" stroke-linecap="round" stroke-linejoin="round" stroke-miterlimit="10" stroke-width=".98" d="M19.5,48c1.6,0,3-1.3,3-2.9c0,0,0,0,0,0c0-6.4-4.1-8-9.3-8c-5.1,0-9.3,1.6-9.3,8c0,0,0,0,0,0C4,46.7,5.3,48,7,48H19.5z"/><line x1="18.1" x2="18.1" y1="48" y2="45.2" fill="none" stroke="#696DA3" stroke-linecap="round" stroke-linejoin="round" stroke-miterlimit="10" stroke-width=".98"/><line x1="8.4" x2="8.4" y1="48" y2="45.2" fill="none" stroke="#696DA3" stroke-linecap="round" stroke-linejoin="round" stroke-miterlimit="10" stroke-width=".98"/><circle cx="36.8" cy="30.8" r="4.1" fill="#B1F1A8"/><path fill="#FFD599" d="M36.3,28.4c0,0.8-0.7,1.5-1.5,1.5c-0.8,0-1.4-0.6-1.5-1.4c0.4-0.7,1.1-1.2,1.8-1.5C35.9,27.1,36.3,27.7,36.3,28.4z"/><path fill="#C9F5C2" d="M36.3,28.4c0,0.8-0.7,1.5-1.5,1.5c-0.8,0-1.4-0.6-1.5-1.4c0.4-0.7,1.1-1.2,1.8-1.5C35.9,27.1,36.3,27.7,36.3,28.4z"/><circle cx="36.8" cy="30.8" r="4.1" fill="none" stroke="#696DA3" stroke-linecap="round" stroke-linejoin="round" stroke-miterlimit="10" stroke-width=".98"/><path fill="#FFD599" d="M46,45.1L46,45.1c0,1.7-1.4,3-3,3H30.5c-1.6,0-3-1.3-3-2.9v0c0-1.2,0.2-2.3,0.4-3.2c0.9-2.7,2.9-4,5.4-4.5c1-0.2,2.2-0.3,3.4-0.3C41.9,37.1,46,38.7,46,45.1z"/><path fill="#EDC68E" d="M46,45.1L46,45.1c0,1.7-1.4,3-3,3h-5.7c2.7-1.7,4.5-4.7,4.5-8.1c0-0.7-0.1-1.5-0.3-2.2C44.3,38.7,46,40.9,46,45.1z"/><path fill="#FFE2B8" d="M34,39.4c0,2-1.6,3.5-3.5,3.5c-1,0-1.9-0.4-2.5-1c0.9-2.7,2.9-4,5.4-4.5C33.8,37.9,34,38.6,34,39.4z"/><path fill="none" stroke="#696DA3" stroke-linecap="round" stroke-linejoin="round" stroke-miterlimit="10" stroke-width=".98" d="M43,48c1.6,0,3-1.3,3-2.9c0,0,0,0,0,0c0-6.4-4.1-8-9.3-8s-9.3,1.6-9.3,8c0,0,0,0,0,0c0,1.6,1.4,2.9,3,2.9H43z"/><line x1="41.7" x2="41.7" y1="48" y2="45.2" fill="none" stroke="#696DA3" stroke-linecap="round" stroke-linejoin="round" stroke-miterlimit="10" stroke-width=".98"/><line x1="31.9" x2="31.9" y1="48" y2="45.2" fill="none" stroke="#696DA3" stroke-linecap="round" stroke-linejoin="round" stroke-miterlimit="10" stroke-width=".98"/><circle cx="25" cy="33.9" r="3.4" fill="#D6B5B0"/><path fill="#FFD599" d="M24.6,31.9c0,0.7-0.5,1.2-1.2,1.2c-0.7,0-1.2-0.5-1.2-1.1c0.4-0.5,0.9-1,1.5-1.3C24.2,30.9,24.6,31.3,24.6,31.9z"/><path fill="#E2CBC8" d="M24.6,31.9c0,0.7-0.5,1.2-1.2,1.2c-0.7,0-1.2-0.5-1.2-1.1c0.4-0.5,0.9-1,1.5-1.3C24.2,30.9,24.6,31.3,24.6,31.9z"/><circle cx="25" cy="33.9" r="3.4" fill="none" stroke="#696DA3" stroke-linecap="round" stroke-linejoin="round" stroke-miterlimit="10" stroke-width=".98"/><path fill="#FF9797" d="M32.6,45.6L32.6,45.6c0,1.4-1.1,2.4-2.5,2.4H19.9c-1.3,0-2.5-1.1-2.5-2.4v0c0-1,0.1-1.9,0.4-2.6c0.7-2.2,2.4-3.3,4.5-3.7C23.1,39.1,24,39,25,39C29.2,39,32.6,40.3,32.6,45.6z"/><path fill="#ED8C8C" d="M32.6,45.6L32.6,45.6c0,1.4-1.1,2.4-2.5,2.4h-4.6c2.2-1.4,3.7-3.8,3.7-6.6c0-0.6-0.1-1.2-0.2-1.8C31.1,40.4,32.6,42.2,32.6,45.6z"/><path fill="#FFB6B6" d="M22.7,40.9c0,1.6-1.3,2.9-2.9,2.9c-0.8,0-1.5-0.3-2.1-0.9c0.7-2.2,2.4-3.3,4.5-3.7C22.6,39.7,22.7,40.3,22.7,40.9z"/><path fill="none" stroke="#696DA3" stroke-linecap="round" stroke-linejoin="round" stroke-miterlimit="10" stroke-width=".98" d="M30.1,48c1.3,0,2.5-1.1,2.5-2.4c0,0,0,0,0,0c0-5.2-3.4-6.6-7.6-6.6c-4.2,0-7.6,1.3-7.6,6.6c0,0,0,0,0,0c0,1.3,1.1,2.4,2.5,2.4H30.1z"/><line x1="29" x2="29" y1="48" y2="45.7" fill="none" stroke="#696DA3" stroke-linecap="round" stroke-linejoin="round" stroke-miterlimit="10" stroke-width=".98"/><line x1="21" x2="21" y1="48" y2="45.7" fill="none" stroke="#696DA3" stroke-linecap="round" stroke-linejoin="round" stroke-miterlimit="10" stroke-width=".98"/><line x1="40.1" x2="43.6" y1="7.2" y2="7.2" fill="none" stroke="#696DA3" stroke-linecap="round" stroke-linejoin="round" stroke-miterlimit="10" stroke-width=".98"/><line x1="39.1" x2="42.1" y1="9.5" y2="11.5" fill="none" stroke="#696DA3" stroke-linecap="round" stroke-linejoin="round" stroke-miterlimit="10" stroke-width=".98"/><line x1="39.1" x2="42.1" y1="5" y2="2.9" fill="none" stroke="#696DA3" stroke-linecap="round" stroke-linejoin="round" stroke-miterlimit="10" stroke-width=".98"/><line x1="8.8" x2="5.4" y1="7.2" y2="7.2" fill="none" stroke="#696DA3" stroke-linecap="round" stroke-linejoin="round" stroke-miterlimit="10" stroke-width=".98"/><line x1="9.8" x2="6.9" y1="9.5" y2="11.5" fill="none" stroke="#696DA3" stroke-linecap="round" stroke-linejoin="round" stroke-miterlimit="10" stroke-width=".98"/><line x1="9.8" x2="6.9" y1="5" y2="2.9" fill="none" stroke="#696DA3" stroke-linecap="round" stroke-linejoin="round" stroke-miterlimit="10" stroke-width=".98"/><path fill="#FFE2B8" d="M24,19.9c0.2,0.3,0.2,1.9,0.2,1.9h-0.4c0,0,0-1.6-0.3-1.9c-1.8-1.9-5.4-5.6-5.5-9.6c-0.1-1.7-0.1-6.4-0.2-7.8c0-0.2,0.2-0.4,0.4-0.4h2.4c-0.1,0-0.3,0.2-0.3,0.4c0,1.5,0.1,6.1,0.1,7.8C20.6,14.3,22.9,18,24,19.9z"/><path fill="#EDC68E" d="M31.9,2.5c0,1.5-0.1,6.1-0.2,7.8c-0.1,4-3.7,7.7-5.5,9.6c-0.3,0.3-0.3,1.9-0.3,1.9h-0.4c0,0,0-1.6,0.2-1.9c1.1-1.9,3.5-5.6,3.5-9.6c0-1.7,0.1-6.4,0.1-7.8c0-0.2-0.1-0.4-0.2-0.4h2.4C31.7,2,31.9,2.2,31.9,2.5z"/><path fill="#FFD599" d="M29.2,2h-8.5c-0.1,0-0.3,0.2-0.2,0.4c0,1.5,0.1,6.1,0.1,7.8c0.1,4,2.4,7.7,3.5,9.6c0.2,0.3,0.2,1.9,0.2,1.9h1.3c0,0,0-1.6,0.2-1.9c1.1-1.9,3.4-5.6,3.5-9.6c0-1.7,0.1-6.4,0.1-7.8C29.4,2.2,29.3,2,29.2,2z"/><path fill="none" stroke="#696DA3" stroke-linecap="round" stroke-linejoin="round" stroke-miterlimit="10" stroke-width="1.06" d="M31.5,2H18.3c-0.2,0-0.4,0.2-0.4,0.4c0,1.5,0.1,6.1,0.2,7.8c0.1,4,3.7,7.7,5.5,9.6c0.3,0.3,0.3,1.9,0.3,1.9h2.1c0,0,0-1.6,0.3-1.9c1.7-1.9,5.4-5.6,5.5-9.6c0-1.7,0.1-6.4,0.2-7.8C31.9,2.2,31.7,2,31.5,2z"/><polygon fill="#FF9797" stroke="#696DA3" stroke-linecap="round" stroke-linejoin="round" stroke-miterlimit="10" stroke-width="1.06" points="24.9 5.6 25.9 7.6 28 7.9 26.5 9.4 26.8 11.6 24.9 10.6 23 11.6 23.3 9.4 21.8 7.9 23.9 7.6"/><path fill="none" stroke="#696DA3" stroke-linecap="round" stroke-linejoin="round" stroke-miterlimit="10" stroke-width="1.06" d="M20.6,27.9"/><path fill="#AAB6D6" d="M28.1,27.2h-6.4c-0.9,0-1.6-0.7-1.6-1.6v-2.8c0-0.9,0.7-1.6,1.6-1.6h6.4c0.9,0,1.6,0.7,1.6,1.6v2.8C29.6,26.5,28.9,27.2,28.1,27.2z"/><path fill="#C4CCE2" d="M22.1,22.8v2.8c0,0.9,0.7,1.6,1.6,1.6h-1.9c-0.9,0-1.6-0.7-1.6-1.6v-2.8c0-0.9,0.7-1.6,1.6-1.6h1.9C22.8,21.3,22.1,22,22.1,22.8z"/><path fill="#9EA9C7" d="M29.7,22.8v2.8c0,0.9-0.7,1.6-1.6,1.6h-1.9c0.9,0,1.6-0.7,1.6-1.6v-2.8c0-0.9-0.7-1.6-1.6-1.6h1.9C28.9,21.3,29.7,22,29.7,22.8z"/><path fill="none" stroke="#696DA3" stroke-linecap="round" stroke-linejoin="round" stroke-miterlimit="10" stroke-width="1.06" d="M28.1,27.2h-6.4c-0.9,0-1.6-0.7-1.6-1.6v-2.8c0-0.9,0.7-1.6,1.6-1.6h6.4c0.9,0,1.6,0.7,1.6,1.6v2.8C29.6,26.5,28.9,27.2,28.1,27.2z"/></svg>