<svg xmlns="http://www.w3.org/2000/svg" enable-background="new 0 0 3000 2500" viewBox="0 0 3000 2500"><rect width="2918.6" height="2432.2" x="11.3" y="-2.5" fill="none"/><g opacity=".35"><path fill="#4c0000" d="M2521,1911.9c-0.6,70.5-316.1,127.8-704.7,128s-703.1-56.8-702.5-127.2c0.6-70.5,316.1-127.8,704.7-128    S2521.6,1841.5,2521,1911.9z" opacity="0"/><path fill="#4a0101" d="M2502.9,1911.9c-0.6,68.7-308,124.5-686.6,124.7s-685-55.3-684.4-123.9c0.6-68.7,308-124.5,686.6-124.7    S2503.5,1843.3,2502.9,1911.9z" opacity=".038"/><path fill="#480202" d="M2484.8,1912c-0.6,66.8-299.8,121.2-668.4,121.4c-368.6,0.2-666.9-53.8-666.3-120.7    c0.6-66.8,299.8-121.2,668.4-121.4S2485.3,1845.1,2484.8,1912z" opacity=".077"/><path fill="#460303" d="M2466.6,1912c-0.6,65-291.7,117.9-650.3,118.1c-358.6,0.2-648.7-52.4-648.2-117.4    c0.6-65,291.7-117.9,650.3-118.1C2177,1794.4,2467.2,1846.9,2466.6,1912z" opacity=".115"/><path fill="#440404" d="M2448.5,1912c-0.6,63.2-283.6,114.6-632.1,114.8c-348.5,0.2-630.6-50.9-630.1-114.1s283.6-114.6,632.1-114.8    C2167,1797.7,2449.1,1848.8,2448.5,1912z" opacity=".154"/><path fill="#420505" d="M2430.4,1912c-0.5,61.4-275.4,111.3-613.9,111.5c-338.5,0.2-612.5-49.4-612-110.8    c0.5-61.4,275.4-111.3,613.9-111.5C2156.9,1801,2430.9,1850.6,2430.4,1912z" opacity=".192"/><path fill="#400606" d="M2412.3,1912c-0.5,59.6-267.3,108-595.8,108.2c-328.5,0.2-594.4-48-593.9-107.6    c0.5-59.6,267.3-108,595.8-108.2C2146.9,1804.3,2412.8,1852.4,2412.3,1912z" opacity=".231"/><path fill="#3e0606" d="M2394.1,1912c-0.5,57.8-259.1,104.7-577.6,104.9c-318.5,0.2-576.3-46.5-575.8-104.3    c0.5-57.8,259.1-104.7,577.6-104.9C2136.9,1807.6,2394.6,1854.2,2394.1,1912z" opacity=".269"/><path fill="#3c0707" d="M2376,1912c-0.5,55.9-251,101.4-559.5,101.6s-558.2-45.1-557.7-101c0.5-55.9,251-101.4,559.5-101.6    C2126.8,1810.8,2376.5,1856.1,2376,1912z" opacity=".308"/><path fill="#3a0808" d="M2357.9,1912c-0.5,54.1-242.8,98.1-541.3,98.3c-298.5,0.2-540.1-43.6-539.6-97.7    c0.5-54.1,242.8-98.1,541.3-98.3C2116.8,1814.1,2358.4,1857.9,2357.9,1912z" opacity=".346"/><path fill="#380909" d="M2339.8,1912c-0.5,52.3-234.7,94.8-523.2,95s-522-42.1-521.5-94.5c0.5-52.3,234.7-94.8,523.2-95    S2340.2,1859.7,2339.8,1912z" opacity=".385"/><path fill="#360a0a" d="M2321.6,1912c-0.4,50.5-226.6,91.6-505,91.7s-503.9-40.7-503.4-91.2c0.4-50.5,226.6-91.6,505-91.7    S2322.1,1861.5,2321.6,1912z" opacity=".423"/><path fill="#340b0b" d="M2303.5,1912c-0.4,48.7-218.4,88.3-486.9,88.4s-485.8-39.2-485.3-87.9c0.4-48.7,218.4-88.3,486.9-88.4    S2303.9,1863.4,2303.5,1912z" opacity=".462"/><path fill="#330c0c" d="M2285.4,1912.1c-0.4,46.9-210.3,85-468.7,85.1c-258.5,0.1-467.6-37.7-467.2-84.6    c0.4-46.9,210.3-85,468.7-85.1S2285.8,1865.2,2285.4,1912.1z" opacity=".5"/><path fill="#310d0d" d="M2267.3,1912.1c-0.4,45.1-202.1,81.7-450.6,81.8s-449.5-36.3-449.1-81.3c0.4-45.1,202.1-81.7,450.6-81.8    C2066.6,1830.6,2267.7,1867,2267.3,1912.1z" opacity=".538"/><path fill="#2f0e0e" d="M2249.1,1912.1c-0.4,43.2-194,78.4-432.4,78.5s-431.4-34.8-431-78.1c0.4-43.2,194-78.4,432.4-78.5    C2056.5,1833.9,2249.5,1868.8,2249.1,1912.1z" opacity=".577"/><path fill="#2d0f0f" d="M2231,1912.1c-0.4,41.4-185.8,75.1-414.3,75.2c-228.4,0.1-413.3-33.4-412.9-74.8s185.8-75.1,414.3-75.2    C2046.5,1837.2,2231.4,1870.7,2231,1912.1z" opacity=".615"/><path fill="#2b1010" d="M2212.9,1912.1c-0.4,39.6-177.7,71.8-396.1,71.9c-218.4,0.1-395.2-31.9-394.8-71.5    c0.4-39.6,177.7-71.8,396.1-71.9C2036.5,1840.5,2213.2,1872.5,2212.9,1912.1z" opacity=".654"/><path fill="#291111" d="M2194.8,1912.1c-0.3,37.8-169.6,68.5-378,68.6c-208.4,0.1-377.1-30.4-376.8-68.2    c0.3-37.8,169.6-68.5,378-68.6C2026.4,1843.8,2195.1,1874.3,2194.8,1912.1z" opacity=".692"/><path fill="#271212" d="M2176.6,1912.1c-0.3,36-161.4,65.2-359.8,65.3c-198.4,0.1-359-29-358.7-65c0.3-36,161.4-65.2,359.8-65.3    S2177,1876.1,2176.6,1912.1z" opacity=".731"/><path fill="#251212" d="M2158.5,1912.1c-0.3,34.2-153.3,61.9-341.7,62s-340.9-27.5-340.6-61.7c0.3-34.2,153.3-61.9,341.7-62    C2006.3,1850.3,2158.8,1878,2158.5,1912.1z" opacity=".769"/><path fill="#231313" d="M2140.4,1912.1c-0.3,32.3-145.1,58.6-323.5,58.7c-178.4,0.1-322.8-26.1-322.5-58.4    c0.3-32.3,145.1-58.6,323.5-58.7S2140.7,1879.8,2140.4,1912.1z" opacity=".808"/><path fill="#211414" d="M2122.3,1912.1c-0.3,30.5-137,55.4-305.4,55.4c-168.4,0.1-304.6-24.6-304.4-55.1s137-55.4,305.4-55.4    S2122.5,1881.6,2122.3,1912.1z" opacity=".846"/><path fill="#1f1515" d="M2104.2,1912.2c-0.3,28.7-128.8,52.1-287.2,52.2c-158.4,0.1-286.5-23.1-286.3-51.8    c0.3-28.7,128.8-52.1,287.2-52.2S2104.4,1883.4,2104.2,1912.2z" opacity=".885"/><path fill="#1d1616" d="M2086,1912.2c-0.2,26.9-120.7,48.8-269,48.9s-268.4-21.7-268.2-48.6c0.2-26.9,120.7-48.8,269-48.9    C1966.2,1863.5,2086.3,1885.3,2086,1912.2z" opacity=".923"/><path fill="#1b1717" d="M2067.9,1912.2c-0.2,25.1-112.6,45.5-250.9,45.6s-250.3-20.2-250.1-45.3c0.2-25.1,112.6-45.5,250.9-45.6    C1956.2,1866.8,2068.1,1887.1,2067.9,1912.2z" opacity=".962"/><path fill="#191818" d="M2049.8,1912.2c-0.2,23.3-104.4,42.2-232.7,42.3c-128.3,0.1-232.2-18.7-232-42    c0.2-23.3,104.4-42.2,232.7-42.3C1946.1,1870.1,2050,1888.9,2049.8,1912.2z"/></g><g opacity=".35"><path fill="#4c0000" d="M1979.8,1682.9c-0.6,70.5-316.1,127.8-704.7,128s-703.1-56.8-702.5-127.2c0.6-70.5,316.1-127.8,704.7-128    S1980.5,1612.4,1979.8,1682.9z" opacity="0"/><path fill="#4a0101" d="M1961.7,1682.9c-0.6,68.7-308,124.5-686.6,124.7c-378.6,0.2-685-55.3-684.4-123.9s308-124.5,686.6-124.7    C1655.9,1558.7,1962.3,1614.2,1961.7,1682.9z" opacity=".038"/><path fill="#480202" d="M1943.6,1682.9c-0.6,66.8-299.8,121.2-668.4,121.4s-666.9-53.8-666.3-120.7c0.6-66.8,299.8-121.2,668.4-121.4    C1645.9,1562,1944.2,1616,1943.6,1682.9z" opacity=".077"/><path fill="#460303" d="M1925.5,1682.9c-0.6,65-291.7,117.9-650.3,118.1s-648.7-52.4-648.2-117.4c0.6-65,291.7-117.9,650.3-118.1    S1926,1617.9,1925.5,1682.9z" opacity=".115"/><path fill="#440404" d="M1907.3,1682.9c-0.6,63.2-283.6,114.6-632.1,114.8c-348.5,0.2-630.6-50.9-630.1-114.1    c0.6-63.2,283.6-114.6,632.1-114.8S1907.9,1619.7,1907.3,1682.9z" opacity=".154"/><path fill="#420505" d="M1889.2,1682.9c-0.5,61.4-275.4,111.3-613.9,111.5c-338.5,0.2-612.5-49.4-612-110.8    c0.5-61.4,275.4-111.3,613.9-111.5C1615.8,1571.9,1889.8,1621.5,1889.2,1682.9z" opacity=".192"/><path fill="#400606" d="M1871.1,1682.9c-0.5,59.6-267.3,108-595.8,108.2c-328.5,0.2-594.4-48-593.9-107.6    c0.5-59.6,267.3-108,595.8-108.2C1605.7,1575.2,1871.6,1623.3,1871.1,1682.9z" opacity=".231"/><path fill="#3e0606" d="M1853,1682.9c-0.5,57.8-259.1,104.7-577.6,104.9s-576.3-46.5-575.8-104.3c0.5-57.8,259.1-104.7,577.6-104.9    C1595.7,1578.5,1853.5,1625.2,1853,1682.9z" opacity=".269"/><path fill="#3c0707" d="M1834.8,1682.9c-0.5,55.9-251,101.4-559.5,101.6c-308.5,0.2-558.2-45.1-557.7-101    c0.5-55.9,251-101.4,559.5-101.6C1585.6,1581.8,1835.3,1627,1834.8,1682.9z" opacity=".308"/><path fill="#3a0808" d="M1816.7,1682.9c-0.5,54.1-242.8,98.1-541.3,98.3c-298.5,0.2-540.1-43.6-539.6-97.7    c0.5-54.1,242.8-98.1,541.3-98.3C1575.6,1585.1,1817.2,1628.8,1816.7,1682.9z" opacity=".346"/><path fill="#380909" d="M1798.6,1682.9c-0.5,52.3-234.7,94.8-523.2,95s-522-42.1-521.5-94.5c0.5-52.3,234.7-94.8,523.2-95    S1799.1,1630.6,1798.6,1682.9z" opacity=".385"/><path fill="#360a0a" d="M1780.5,1683c-0.4,50.5-226.6,91.6-505,91.7c-278.5,0.1-503.9-40.7-503.4-91.2s226.6-91.6,505-91.7    C1555.5,1591.6,1780.9,1632.5,1780.5,1683z" opacity=".423"/><path fill="#340b0b" d="M1762.3,1683c-0.4,48.7-218.4,88.3-486.9,88.4s-485.8-39.2-485.3-87.9s218.4-88.3,486.9-88.4    S1762.8,1634.3,1762.3,1683z" opacity=".462"/><path fill="#330c0c" d="M1744.2,1683c-0.4,46.9-210.3,85-468.7,85.1c-258.5,0.1-467.6-37.7-467.2-84.6c0.4-46.9,210.3-85,468.7-85.1    C1535.4,1598.2,1744.6,1636.1,1744.2,1683z" opacity=".5"/><path fill="#310d0d" d="M1726.1,1683c-0.4,45.1-202.1,81.7-450.6,81.8s-449.5-36.3-449.1-81.3s202.1-81.7,450.6-81.8    S1726.5,1637.9,1726.1,1683z" opacity=".538"/><path fill="#2f0e0e" d="M1708,1683c-0.4,43.2-194,78.4-432.4,78.5c-238.4,0.1-431.4-34.8-431-78.1c0.4-43.2,194-78.4,432.4-78.5    C1515.4,1604.8,1708.4,1639.8,1708,1683z" opacity=".577"/><path fill="#2d0f0f" d="M1689.8,1683c-0.4,41.4-185.8,75.1-414.3,75.2s-413.3-33.4-412.9-74.8c0.4-41.4,185.8-75.1,414.3-75.2    S1690.2,1641.6,1689.8,1683z" opacity=".615"/><path fill="#2b1010" d="M1671.7,1683c-0.4,39.6-177.7,71.8-396.1,71.9s-395.2-31.9-394.8-71.5c0.4-39.6,177.7-71.8,396.1-71.9    C1495.3,1611.4,1672.1,1643.4,1671.7,1683z" opacity=".654"/><path fill="#291111" d="M1653.6,1683c-0.3,37.8-169.6,68.5-378,68.6c-208.4,0.1-377.1-30.4-376.8-68.2c0.3-37.8,169.6-68.5,378-68.6    C1485.3,1614.7,1653.9,1645.2,1653.6,1683z" opacity=".692"/><path fill="#271212" d="M1635.5,1683c-0.3,36-161.4,65.2-359.8,65.3c-198.4,0.1-359-29-358.7-65c0.3-36,161.4-65.2,359.8-65.3    C1475.2,1618,1635.8,1647.1,1635.5,1683z" opacity=".731"/><path fill="#251212" d="M1617.3,1683c-0.3,34.2-153.3,61.9-341.7,62c-188.4,0.1-340.9-27.5-340.6-61.7c0.3-34.2,153.3-61.9,341.7-62    C1465.2,1621.3,1617.7,1648.9,1617.3,1683z" opacity=".769"/><path fill="#231313" d="M1599.2,1683c-0.3,32.3-145.1,58.6-323.5,58.7s-322.8-26.1-322.5-58.4c0.3-32.3,145.1-58.6,323.5-58.7    C1455.1,1624.6,1599.5,1650.7,1599.2,1683z" opacity=".808"/><path fill="#211414" d="M1581.1,1683.1c-0.3,30.5-137,55.4-305.4,55.4s-304.6-24.6-304.4-55.1c0.3-30.5,137-55.4,305.4-55.4    C1445.1,1627.8,1581.4,1652.5,1581.1,1683.1z" opacity=".846"/><path fill="#1f1515" d="M1563,1683.1c-0.3,28.7-128.8,52.1-287.2,52.2s-286.5-23.1-286.3-51.8c0.3-28.7,128.8-52.1,287.2-52.2    C1435.1,1631.1,1563.2,1654.4,1563,1683.1z" opacity=".885"/><path fill="#1d1616" d="M1544.9,1683.1c-0.2,26.9-120.7,48.8-269,48.9c-148.4,0.1-268.4-21.7-268.2-48.6    c0.2-26.9,120.7-48.8,269-48.9S1545.1,1656.2,1544.9,1683.1z" opacity=".923"/><path fill="#1b1717" d="M1526.7,1683.1c-0.2,25.1-112.6,45.5-250.9,45.6c-138.3,0.1-250.3-20.2-250.1-45.3    c0.2-25.1,112.6-45.5,250.9-45.6S1527,1658,1526.7,1683.1z" opacity=".962"/><path fill="#191818" d="M1508.6,1683.1c-0.2,23.3-104.4,42.2-232.7,42.3s-232.2-18.7-232-42c0.2-23.3,104.4-42.2,232.7-42.3    S1508.8,1659.8,1508.6,1683.1z"/></g><g opacity=".35"><path fill="#4c0000" d="M1172,2039.9c-0.4,46.7-158.8,85.1-353.7,85.8s-352.6-36.6-352.2-83.3c0.4-46.7,158.8-85.1,353.7-85.8    C1014.7,1955.9,1172.4,1993.2,1172,2039.9z" opacity="0"/><path fill="#4a0101" d="M1162.9,2039.9c-0.4,45.5-154.7,82.9-344.6,83.6c-189.9,0.7-343.5-35.7-343.1-81.1    c0.4-45.5,154.7-82.9,344.6-83.6S1163.3,1994.4,1162.9,2039.9z" opacity=".038"/><path fill="#480202" d="M1153.8,2039.9c-0.4,44.3-150.6,80.7-335.5,81.4s-334.4-34.7-334-79c0.4-44.3,150.6-80.7,335.5-81.4    S1154.2,1995.6,1153.8,2039.9z" opacity=".077"/><path fill="#460303" d="M1144.7,2040c-0.4,43.1-146.5,78.5-326.3,79.2s-325.3-33.8-325-76.9c0.4-43.1,146.5-78.5,326.3-79.2    S1145.1,1996.9,1144.7,2040z" opacity=".115"/><path fill="#440404" d="M1135.6,2040c-0.4,41.9-142.4,76.3-317.2,77s-316.3-32.8-315.9-74.7c0.4-41.9,142.4-76.3,317.2-77    S1136,1998.1,1135.6,2040z" opacity=".154"/><path fill="#420505" d="M1126.5,2040c-0.4,40.7-138.3,74.1-308.1,74.7s-307.2-31.9-306.8-72.6c0.4-40.7,138.3-74.1,308.1-74.7    S1126.9,1999.4,1126.5,2040z" opacity=".192"/><path fill="#400606" d="M1117.4,2040.1c-0.3,39.5-134.2,71.9-299,72.5c-164.8,0.6-298.1-30.9-297.8-70.4s134.2-71.9,299-72.5    C984.5,1969.1,1117.8,2000.6,1117.4,2040.1z" opacity=".231"/><path fill="#3e0606" d="M1108.3,2040.1c-0.3,38.3-130.1,69.8-289.9,70.3c-159.8,0.6-289-30-288.7-68.3    c0.3-38.3,130.1-69.8,289.9-70.3S1108.7,2001.8,1108.3,2040.1z" opacity=".269"/><path fill="#3c0707" d="M1099.2,2040.1c-0.3,37.1-126,67.6-280.8,68.1s-279.9-29.1-279.6-66.1c0.3-37.1,126-67.6,280.8-68.1    C974.4,1973.5,1099.6,2003.1,1099.2,2040.1z" opacity=".308"/><path fill="#3a0808" d="M1090.1,2040.2c-0.3,35.9-122,65.4-271.7,65.9c-149.7,0.5-270.9-28.1-270.5-64c0.3-35.9,122-65.4,271.7-65.9    C969.3,1975.6,1090.5,2004.3,1090.1,2040.2z" opacity=".346"/><path fill="#380909" d="M1081,2040.2c-0.3,34.7-117.9,63.2-262.6,63.7c-144.7,0.5-261.8-27.2-261.5-61.8    c0.3-34.7,117.9-63.2,262.6-63.7C964.3,1977.8,1081.4,2005.5,1081,2040.2z" opacity=".385"/><path fill="#360a0a" d="M1072,2040.2c-0.3,33.5-113.8,61-253.5,61.5c-139.7,0.5-252.7-26.2-252.4-59.7c0.3-33.5,113.8-61,253.5-61.5    C959.3,1980,1072.3,2006.8,1072,2040.2z" opacity=".423"/><path fill="#340b0b" d="M1062.9,2040.3c-0.3,32.3-109.7,58.8-244.4,59.3s-243.6-25.3-243.3-57.5c0.3-32.3,109.7-58.8,244.4-59.3    C954.2,1982.2,1063.2,2008,1062.9,2040.3z" opacity=".462"/><path fill="#330c0c" d="M1053.8,2040.3c-0.3,31.1-105.6,56.6-235.2,57.1S584,2073,584.3,2042c0.3-31.1,105.6-56.6,235.2-57.1    C949.2,1984.4,1054,2009.2,1053.8,2040.3z" opacity=".5"/><path fill="#310d0d" d="M1044.7,2040.3c-0.3,29.9-101.5,54.4-226.1,54.9s-225.4-23.4-225.2-53.3s101.5-54.4,226.1-54.9    C944.1,1986.6,1044.9,2010.5,1044.7,2040.3z" opacity=".538"/><path fill="#2f0e0e" d="M1035.6,2040.4c-0.3,28.7-97.4,52.2-217,52.6c-119.6,0.4-216.4-22.5-216.1-51.1c0.3-28.7,97.4-52.2,217-52.6    C939.1,1988.8,1035.8,2011.7,1035.6,2040.4z" opacity=".577"/><path fill="#2d0f0f" d="M1026.5,2040.4c-0.2,27.4-93.3,50-207.9,50.4c-114.6,0.4-207.3-21.5-207-49c0.2-27.4,93.3-50,207.9-50.4    C934.1,1991,1026.7,2012.9,1026.5,2040.4z" opacity=".615"/><path fill="#2b1010" d="M1017.4,2040.4c-0.2,26.2-89.2,47.8-198.8,48.2c-109.6,0.4-198.2-20.6-198-46.8s89.2-47.8,198.8-48.2    C929,1993.2,1017.6,2014.2,1017.4,2040.4z" opacity=".654"/><path fill="#291111" d="M1008.3,2040.5c-0.2,25-85.1,45.6-189.7,46c-104.5,0.4-189.1-19.6-188.9-44.7c0.2-25,85.2-45.6,189.7-46    C924,1995.4,1008.5,2015.4,1008.3,2040.5z" opacity=".692"/><path fill="#271212" d="M999.2,2040.5c-0.2,23.8-81.1,43.5-180.6,43.8c-99.5,0.4-180-18.7-179.8-42.5c0.2-23.8,81.1-43.5,180.6-43.8    C918.9,1997.6,999.4,2016.6,999.2,2040.5z" opacity=".731"/><path fill="#251212" d="M990.1,2040.5c-0.2,22.6-77,41.3-171.5,41.6c-94.5,0.3-170.9-17.7-170.7-40.4c0.2-22.6,77-41.3,171.5-41.6    C913.9,1999.8,990.3,2017.9,990.1,2040.5z" opacity=".769"/><path fill="#231313" d="M981,2040.5c-0.2,21.4-72.9,39.1-162.4,39.4c-89.5,0.3-161.9-16.8-161.7-38.2c0.2-21.4,72.9-39.1,162.4-39.4    C908.9,2002,981.2,2019.1,981,2040.5z" opacity=".808"/><path fill="#211414" d="M972,2040.6c-0.2,20.2-68.8,36.9-153.3,37.2c-84.5,0.3-152.8-15.9-152.6-36.1c0.2-20.2,68.8-36.9,153.3-37.2    S972.1,2020.3,972,2040.6z" opacity=".846"/><path fill="#1f1515" d="M962.9,2040.6c-0.2,19-64.7,34.7-144.1,35c-79.4,0.3-143.7-14.9-143.5-33.9c0.2-19,64.7-34.7,144.1-35    C898.8,2006.4,963,2021.6,962.9,2040.6z" opacity=".885"/><path fill="#1d1616" d="M953.8,2040.6c-0.2,17.8-60.6,32.5-135,32.8c-74.4,0.3-134.6-14-134.5-31.8c0.2-17.8,60.6-32.5,135-32.8    C893.7,2008.6,953.9,2022.8,953.8,2040.6z" opacity=".923"/><path fill="#1b1717" d="M944.7,2040.7c-0.1,16.6-56.5,30.3-125.9,30.5c-69.4,0.2-125.5-13-125.4-29.7s56.5-30.3,125.9-30.5    S944.8,2024.1,944.7,2040.7z" opacity=".962"/><path fill="#191818" d="M935.6,2040.7c-0.1,15.4-52.4,28.1-116.8,28.3s-116.5-12.1-116.3-27.5c0.1-15.4,52.4-28.1,116.8-28.3    S935.7,2025.3,935.6,2040.7z"/></g><linearGradient id="a" x1="1791.534" x2="2143.236" y1="1322.204" y2="453.291" gradientUnits="userSpaceOnUse"><stop offset="0" stop-color="#fff"/><stop offset="1" stop-color="#dcdcdc"/></linearGradient><path fill="url(#a)" d="M2533.9,622.2c0,0-482.2,246.8-622.7,839h-635l447.3-832.9L2533.9,622.2z"/><linearGradient id="b" x1="1626.682" x2="2235.831" y1="1671.242" y2="1151.674" gradientTransform="matrix(1 0 .1418 1.0949 -713.68 -477.055)" gradientUnits="userSpaceOnUse"><stop offset="0" stop-color="#303030"/><stop offset="1" stop-color="#c9c9c9"/></linearGradient><path fill="url(#b)" d="M1649.7,1608.5l334.2-1034.9c10.9-33.8-16.7-73.5-51.2-73.5h-690.2c-42.1,0-77.1,26.1-90.4,67.4    L821.2,1592.2c-10,31,15.3,67.4,46.9,67.4h713.2C1613.1,1659.5,1639.6,1639.8,1649.7,1608.5z"/><linearGradient id="c" x1="1235.332" x2="2539.327" y1="1390.593" y2="1390.593" gradientTransform="matrix(1 0 .1418 1.0949 -713.68 -477.055)" gradientUnits="userSpaceOnUse"><stop offset="0" stop-color="#777"/><stop offset="1" stop-color="#464646"/></linearGradient><path fill="url(#c)" d="M1618.2,1574.2l334.2-1034.9c10.9-33.8-16.7-73.5-51.2-73.5H1211c-42.1,0-77.1,26.1-90.4,67.4L789.7,1557.8    c-10,31,15.3,67.4,46.9,67.4h713.2C1581.6,1625.2,1608.1,1605.4,1618.2,1574.2z"/><linearGradient id="d" x1="2106.711" x2="1731.641" y1="926.552" y2="1723.945" gradientTransform="matrix(1 0 .1418 1.0949 -713.68 -477.055)" gradientUnits="userSpaceOnUse"><stop offset="0" stop-color="#fff"/><stop offset="1" stop-color="#ececec"/></linearGradient><path fill="url(#d)" d="M832.1,1590.9c-5.5,0-8.8-3.7-10.3-5.8c-1.5-2.2-3.8-6.6-2.1-12l330.9-1024.6c9.6-29.8,34.5-48.3,64.8-48.3    h690.2c7.3,0,11.8,4.9,13.9,7.8c2,2.9,5.1,8.9,2.8,16.1L1588.1,1559c-6.4,19.7-22.8,31.9-42.8,31.9H832.1z"/><linearGradient id="e" x1="2042.274" x2="2139.51" y1="924.709" y2="841.772" gradientTransform="matrix(1 0 .1418 1.0949 -713.68 -477.055)" gradientUnits="userSpaceOnUse"><stop offset="0" stop-color="#1f7244"/><stop offset="1" stop-color="#0ba2b3"/></linearGradient><path fill="url(#e)" d="M1592.6,436c0-0.2,0-0.4-0.1-0.5c-3.7-28.8-39.3-51.2-79.6-50.2c-38.7,1-67.5,23.4-66.3,50.7h-21.8      c-13,0-24,7.7-28.8,20.1l-30.1,78.2h236.4l28.3-73.6c4.3-11-4.8-24.7-16.4-24.7H1592.6z M1523.8,468.4      c-24,0.6-45.3-12.8-47.5-30c-2.2-17.2,15.4-31.6,39.4-32.2c24-0.6,45.3,12.8,47.5,30C1565.5,453.4,1547.8,467.8,1523.8,468.4z"/><linearGradient id="f" x1="2200.084" x2="2012.982" y1="819.468" y2="894.844" gradientTransform="matrix(1 0 .1418 1.0949 -713.68 -477.055)" gradientUnits="userSpaceOnUse"><stop offset="0" stop-color="#82fb7c"/><stop offset="1" stop-color="#0ba2b3"/></linearGradient><path fill="url(#f)" d="M1585.5,425.1c0-0.2,0-0.4-0.1-0.5c-3.7-28.8-39.3-51.2-79.6-50.2c-38.7,1-67.5,23.4-66.3,50.7h-21.8      c-13,0-24,7.7-28.8,20.1l-30.1,78.2h236.4l28.3-73.6c4.3-11-4.8-24.7-16.4-24.7H1585.5z M1516.7,457.5      c-24,0.6-45.3-12.8-47.5-30c-2.2-17.2,15.4-31.6,39.4-32.2c24-0.6,45.3,12.8,47.5,30C1558.3,442.5,1540.7,456.9,1516.7,457.5z"/><linearGradient id="g" x1="2191.156" x2="1911.713" y1="918.195" y2="919.266" gradientTransform="matrix(1 0 .1418 1.0949 -713.68 -477.055)" gradientUnits="userSpaceOnUse"><stop offset="0" stop-color="#1f7244"/><stop offset="1" stop-color="#0ba2b3"/></linearGradient><polygon fill="url(#g)" points="1358.9 523.4 1366 534.3 1602.5 534.3 1595.3 523.4"/><path fill="#a4a5a4" d="M1800.7,705.7h-480c-6.6,0-10.2-5.6-8-12.4l0,0c2.2-6.8,9.5-12.4,16.1-12.4h480c6.6,0,10.2,5.6,8,12.4       l0,0C1814.5,700.1,1807.3,705.7,1800.7,705.7z"/><path fill="#a4a5a4" d="M1782.6,761.1h-480c-6.6,0-10.2-5.6-8-12.4v0c2.2-6.8,9.5-12.4,16.1-12.4h480c6.6,0,10.2,5.6,8,12.4v0       C1796.5,755.5,1789.2,761.1,1782.6,761.1z"/><path fill="#a4a5a4" d="M1624.5,816.6h-339.9c-6.6,0-10.2-5.6-8-12.4v0c2.2-6.8,9.5-12.4,16.1-12.4h339.9c6.6,0,10.2,5.6,8,12.4       v0C1638.3,811,1631.1,816.6,1624.5,816.6z"/><linearGradient id="h" x1="898.797" x2="1032.633" y1="1028.798" y2="1028.798" gradientTransform="matrix(1 0 -.3368 1.0342 564.195 -315.283)" gradientUnits="userSpaceOnUse"><stop offset="0" stop-color="#82fb7c"/><stop offset="1" stop-color="#0ba2b3"/></linearGradient><path fill="url(#h)" d="M1208.1,817.9h-94.5c-10.8,0-16.7-9.1-13-20.3l31.8-97.8c3.7-11.2,15.4-20.3,26.3-20.3h94.5       c10.8,0,16.7,9.1,13,20.3l-31.8,97.8C1230.8,808.8,1219,817.9,1208.1,817.9z"/><polygon fill="#fff" points="1151.3 726.4 1161 775.5 1236.7 737.3 1231 720.3 1178.5 747.9 1169.8 714.1"/><path fill="#a4a5a4" d="M1736.2,903.6h-480c-6.6,0-10.2-5.6-8-12.4l0,0c2.2-6.8,9.5-12.4,16.1-12.4h480c6.6,0,10.2,5.6,8,12.4       l0,0C1750.1,898,1742.9,903.6,1736.2,903.6z"/><path fill="#a4a5a4" d="M1718.2,959h-480c-6.6,0-10.2-5.6-8-12.4l0,0c2.2-6.8,9.5-12.4,16.1-12.4h480c6.6,0,10.2,5.6,8,12.4l0,0       C1732,953.4,1724.8,959,1718.2,959z"/><path fill="#a4a5a4" d="M1560.1,1014.4h-339.9c-6.6,0-10.2-5.6-8-12.4v0c2.2-6.8,9.5-12.4,16.1-12.4h339.9c6.6,0,10.2,5.6,8,12.4       v0C1573.9,1008.8,1566.7,1014.4,1560.1,1014.4z"/><linearGradient id="i" x1="898.793" x2="1032.629" y1="1220.125" y2="1220.125" gradientTransform="matrix(1 0 -.3368 1.0342 564.195 -315.283)" gradientUnits="userSpaceOnUse"><stop offset="0" stop-color="#82fb7c"/><stop offset="1" stop-color="#0ba2b3"/></linearGradient><path fill="url(#i)" d="M1143.7,1015.8h-94.5c-10.8,0-16.7-9.1-13-20.3l31.8-97.8c3.7-11.2,15.4-20.3,26.3-20.3h94.5       c10.8,0,16.7,9.1,13,20.3l-31.8,97.8C1166.3,1006.7,1154.6,1015.8,1143.7,1015.8z"/><polygon fill="#fff" points="1086.8 924.3 1096.5 973.4 1172.2 935.2 1166.6 918.2 1114.1 945.8 1105.3 912"/><g><path fill="#a4a5a4" d="M1671.8,1101.5h-480c-6.6,0-10.2-5.6-8-12.4l0,0c2.2-6.8,9.5-12.4,16.1-12.4h480c6.6,0,10.2,5.6,8,12.4       l0,0C1685.6,1095.9,1678.4,1101.5,1671.8,1101.5z"/><path fill="#a4a5a4" d="M1653.7,1156.9h-480c-6.6,0-10.2-5.6-8-12.4l0,0c2.2-6.8,9.5-12.4,16.1-12.4h480c6.6,0,10.2,5.6,8,12.4       l0,0C1667.6,1151.3,1660.4,1156.9,1653.7,1156.9z"/><path fill="#a4a5a4" d="M1495.6,1212.3h-339.9c-6.6,0-10.2-5.6-8-12.4l0,0c2.2-6.8,9.5-12.4,16.1-12.4h339.9       c6.6,0,10.2,5.6,8,12.4l0,0C1509.5,1206.7,1502.2,1212.3,1495.6,1212.3z"/><linearGradient id="j" x1="898.789" x2="1032.625" y1="1411.453" y2="1411.453" gradientTransform="matrix(1 0 -.3368 1.0342 564.195 -315.283)" gradientUnits="userSpaceOnUse"><stop offset="0" stop-color="#82fb7c"/><stop offset="1" stop-color="#0ba2b3"/></linearGradient><path fill="url(#j)" d="M1079.3,1213.6h-94.5c-10.8,0-16.7-9.1-13-20.3l31.8-97.8c3.7-11.2,15.4-20.3,26.3-20.3h94.5       c10.8,0,16.7,9.1,13,20.3l-31.8,97.8C1101.9,1204.5,1090.1,1213.6,1079.3,1213.6z"/><polygon fill="#fff" points="1022.4 1122.2 1032.1 1171.2 1107.8 1133.1 1102.1 1116 1049.6 1143.6 1040.9 1109.9"/></g><g><path fill="#a4a5a4" d="M1607.4,1299.3h-480c-6.6,0-10.2-5.6-8-12.4l0,0c2.2-6.8,9.5-12.4,16.1-12.4h480c6.6,0,10.2,5.6,8,12.4       l0,0C1621.2,1293.7,1614,1299.3,1607.4,1299.3z"/><path fill="#a4a5a4" d="M1589.3,1354.7h-480c-6.6,0-10.2-5.6-8-12.4l0,0c2.2-6.8,9.5-12.4,16.1-12.4h480c6.6,0,10.2,5.6,8,12.4       l0,0C1603.2,1349.2,1595.9,1354.7,1589.3,1354.7z"/><path fill="#a4a5a4" d="M1431.2,1410.2h-339.9c-6.6,0-10.2-5.6-8-12.4l0,0c2.2-6.8,9.5-12.4,16.1-12.4h339.9       c6.6,0,10.2,5.6,8,12.4l0,0C1445,1404.6,1437.8,1410.2,1431.2,1410.2z"/><linearGradient id="k" x1="898.785" x2="1032.621" y1="1602.78" y2="1602.78" gradientTransform="matrix(1 0 -.3368 1.0342 564.195 -315.283)" gradientUnits="userSpaceOnUse"><stop offset="0" stop-color="#82fb7c"/><stop offset="1" stop-color="#0ba2b3"/></linearGradient><path fill="url(#k)" d="M1014.8,1411.5h-94.5c-10.8,0-16.7-9.1-13-20.3l31.8-97.8c3.7-11.2,15.4-20.3,26.3-20.3h94.5       c10.8,0,16.7,9.1,13,20.3l-31.8,97.8C1037.4,1402.4,1025.7,1411.5,1014.8,1411.5z"/><polygon fill="#fff" points="957.9 1320 967.6 1369.1 1043.3 1330.9 1037.7 1313.9 985.2 1341.5 976.4 1307.7"/></g><g><linearGradient id="l" x1="2602.866" x2="2264.584" y1="2350.707" y2="1900.715" gradientTransform="matrix(1 0 .1418 1.0949 -713.68 -477.055)" gradientUnits="userSpaceOnUse"><stop offset="0" stop-color="#777"/><stop offset="1" stop-color="#464646"/></linearGradient><polygon fill="url(#l)" points="2061.6 1298.4 2408.7 1904.6 1575.2 1904.6"/><linearGradient id="m" x1="2301.327" x2="1896.894" y1="2211.372" y2="1673.384" gradientTransform="matrix(1 0 .1418 1.0949 -713.68 -477.055)" gradientUnits="userSpaceOnUse"><stop offset="0" stop-color="#fcfcfc"/><stop offset="1" stop-color="#dcdcdc"/></linearGradient><path fill="url(#m)" d="M2067.3,1332.6l-23.1,80l-143.3,497c-6.2,21.6-24.1,35.4-45.8,35.4h-622.5c-26.8,0-48.6-30.4-40.9-57.1     l137.1-475.3l22-76.3c10-34.8,38.9-57.2,73.9-57.2H2029C2054.1,1279.1,2074.5,1307.6,2067.3,1332.6z"/><linearGradient id="n" x1="1797.678" x2="2549.757" y1="1664.894" y2="1664.894" gradientTransform="matrix(1 0 .1418 1.0949 -713.68 -477.055)" gradientUnits="userSpaceOnUse"><stop offset="0" stop-color="#dd2f2f"/><stop offset="1" stop-color="#ff6757"/></linearGradient><path fill="url(#n)" d="M2067.3,1332.6l-23.1,80h-715.5l22-76.3c10-34.8,38.9-57.2,73.9-57.2H2029     C2054.1,1279.1,2074.5,1307.6,2067.3,1332.6z"/><linearGradient id="o" x1="2195.477" x2="1924.138" y1="2158.023" y2="1797.08" gradientTransform="matrix(1 0 .1418 1.0949 -713.68 -477.055)" gradientUnits="userSpaceOnUse"><stop offset="0" stop-color="#fcfcfc"/><stop offset="1" stop-color="#dcdcdc"/></linearGradient><path fill="url(#o)" stroke="#a4a5a4" stroke-miterlimit="10" stroke-width="3" d="M1909.9,1493.6l-14,48.5l-86.9,301.4c-3.8,13.1-14.6,21.5-27.8,21.5h-455c-16.3,0-29.5-18.4-24.8-34.6     l83.1-288.3l13.3-46.3c6.1-21.1,23.6-34.7,44.8-34.7h444C1901.9,1461.2,1914.3,1478.4,1909.9,1493.6z"/><linearGradient id="p" x1="1971.98" x2="1861.356" y1="2037.081" y2="1889.926" gradientTransform="matrix(1 0 .1418 1.0949 -713.68 -477.055)" gradientUnits="userSpaceOnUse"><stop offset="0" stop-color="#fcfcfc"/><stop offset="1" stop-color="#dcdcdc"/></linearGradient><line x1="1528.3" x2="1418.7" y1="1461.2" y2="1865" fill="url(#p)" stroke="#a4a5a4" stroke-miterlimit="10" stroke-width="3"/><linearGradient id="q" x1="2090.084" x2="1979.46" y1="2037.081" y2="1889.926" gradientTransform="matrix(1 0 .1418 1.0949 -713.68 -477.055)" gradientUnits="userSpaceOnUse"><stop offset="0" stop-color="#fcfcfc"/><stop offset="1" stop-color="#dcdcdc"/></linearGradient><line x1="1646.4" x2="1536.8" y1="1461.2" y2="1865" fill="url(#q)" stroke="#a4a5a4" stroke-miterlimit="10" stroke-width="3"/><linearGradient id="r" x1="2167.765" x2="1995.721" y1="2017.164" y2="1788.306" gradientTransform="matrix(1 0 .1418 1.0949 -713.68 -477.055)" gradientUnits="userSpaceOnUse"><stop offset="0" stop-color="#fcfcfc"/><stop offset="1" stop-color="#dcdcdc"/></linearGradient><line x1="1370" x2="1881.1" y1="1591.1" y2="1591.1" fill="url(#r)" stroke="#a4a5a4" stroke-miterlimit="10" stroke-width="3"/><linearGradient id="s" x1="2114.555" x2="1942.511" y1="2139.423" y2="1910.565" gradientTransform="matrix(1 0 .1418 1.0949 -713.68 -477.055)" gradientUnits="userSpaceOnUse"><stop offset="0" stop-color="#fcfcfc"/><stop offset="1" stop-color="#dcdcdc"/></linearGradient><line x1="1334.1" x2="1845.2" y1="1725" y2="1725" fill="url(#s)" stroke="#a4a5a4" stroke-miterlimit="10" stroke-width="3"/><path fill="#a4a5a4" d="M1442.8,1573.8h-41.2c-2.3,0-4.5-2.1-4.8-4.6l-0.3-2.2c-0.3-2.5,1.3-4.6,3.6-4.6h41.2      c2.3,0,4.5,2.1,4.8,4.6l0.3,2.2C1446.8,1571.8,1445.1,1573.8,1442.8,1573.8z"/><path fill="#a4a5a4" d="M1402,1702.5h-41.2c-2.3,0-4.5-2.1-4.8-4.6l-0.3-2.2c-0.3-2.5,1.3-4.6,3.6-4.6h41.2c2.3,0,4.5,2.1,4.8,4.6      l0.3,2.2C1406,1700.4,1404.3,1702.5,1402,1702.5z"/><path fill="#a4a5a4" d="M1361.2,1831.2h-41.2c-2.3,0-4.5-2.1-4.8-4.6l-0.3-2.2c-0.3-2.5,1.3-4.6,3.6-4.6h41.2      c2.3,0,4.5,2.1,4.8,4.6l0.3,2.2C1365.2,1829.1,1363.5,1831.2,1361.2,1831.2z"/><path fill="#a4a5a4" d="M1557.7,1573.8h-41.2c-2.3,0-4.5-2.1-4.8-4.6l-0.3-2.2c-0.3-2.5,1.3-4.6,3.6-4.6h41.2      c2.3,0,4.5,2.1,4.8,4.6l0.3,2.2C1561.7,1571.8,1560,1573.8,1557.7,1573.8z"/><path fill="#a4a5a4" d="M1516.9,1702.5h-41.2c-2.3,0-4.5-2.1-4.8-4.6l-0.3-2.2c-0.3-2.5,1.3-4.6,3.6-4.6h41.2      c2.3,0,4.5,2.1,4.8,4.6l0.3,2.2C1520.9,1700.4,1519.2,1702.5,1516.9,1702.5z"/><path fill="#a4a5a4" d="M1476.1,1831.2H1435c-2.3,0-4.5-2.1-4.8-4.6l-0.3-2.2c-0.3-2.5,1.3-4.6,3.6-4.6h41.2      c2.3,0,4.5,2.1,4.8,4.6l0.3,2.2C1480.1,1829.1,1478.5,1831.2,1476.1,1831.2z"/><path fill="#a4a5a4" d="M1679.2,1573.8h-41.2c-2.3,0-4.5-2.1-4.8-4.6l-0.3-2.2c-0.3-2.5,1.3-4.6,3.6-4.6h41.2      c2.3,0,4.5,2.1,4.8,4.6l0.3,2.2C1683.2,1571.8,1681.6,1573.8,1679.2,1573.8z"/><path fill="#a4a5a4" d="M1638.4,1702.5h-41.2c-2.3,0-4.5-2.1-4.8-4.6l-0.3-2.2c-0.3-2.5,1.3-4.6,3.6-4.6h41.2      c2.3,0,4.5,2.1,4.8,4.6l0.3,2.2C1642.4,1700.4,1640.8,1702.5,1638.4,1702.5z"/><path fill="#a4a5a4" d="M1597.7,1831.2h-41.2c-2.3,0-4.5-2.1-4.8-4.6l-0.3-2.2c-0.3-2.5,1.3-4.6,3.6-4.6h41.2      c2.3,0,4.5,2.1,4.8,4.6l0.3,2.2C1601.6,1829.1,1600,1831.2,1597.7,1831.2z"/><linearGradient id="t" x1="2201.785" x2="2251.352" y1="1867.935" y2="1867.935" gradientTransform="matrix(1 0 .1418 1.0949 -713.68 -477.055)" gradientUnits="userSpaceOnUse"><stop offset="0" stop-color="#dd2f2f"/><stop offset="1" stop-color="#ff6757"/></linearGradient><path fill="url(#t)" d="M1799.1,1573.8h-41.2c-2.3,0-4.5-2.1-4.8-4.6l-0.3-2.2c-0.3-2.5,1.3-4.6,3.6-4.6h41.2      c2.3,0,4.5,2.1,4.8,4.6l0.3,2.2C1803,1571.8,1801.4,1573.8,1799.1,1573.8z"/><linearGradient id="u" x1="2144.329" x2="2193.896" y1="1985.452" y2="1985.452" gradientTransform="matrix(1 0 .1418 1.0949 -713.68 -477.055)" gradientUnits="userSpaceOnUse"><stop offset="0" stop-color="#dd2f2f"/><stop offset="1" stop-color="#ff6757"/></linearGradient><path fill="url(#u)" d="M1758.3,1702.5h-41.2c-2.3,0-4.5-2.1-4.8-4.6l-0.3-2.2c-0.3-2.5,1.3-4.6,3.6-4.6h41.2      c2.3,0,4.5,2.1,4.8,4.6l0.3,2.2C1762.2,1700.4,1760.6,1702.5,1758.3,1702.5z"/><linearGradient id="v" x1="2086.873" x2="2136.44" y1="2102.97" y2="2102.97" gradientTransform="matrix(1 0 .1418 1.0949 -713.68 -477.055)" gradientUnits="userSpaceOnUse"><stop offset="0" stop-color="#dd2f2f"/><stop offset="1" stop-color="#ff6757"/></linearGradient><path fill="url(#v)" d="M1717.5,1831.2h-41.2c-2.3,0-4.5-2.1-4.8-4.6l-0.3-2.2c-0.3-2.5,1.3-4.6,3.6-4.6h41.2      c2.3,0,4.5,2.1,4.8,4.6l0.3,2.2C1721.4,1829.1,1719.8,1831.2,1717.5,1831.2z"/><linearGradient id="w" x1="2144.987" x2="2128.432" y1="1923.73" y2="1410.518" gradientUnits="userSpaceOnUse"><stop offset="0" stop-color="#a3a3a3"/><stop offset="1" stop-color="#dcdcdc"/></linearGradient><polygon fill="url(#w)" points="2068.7 1310.9 1881.1 1937.3 1910.8 1937.3 2079.5 1379.3 2376.3 1904.6 2408.7 1904.6"/><g><linearGradient id="x" x1="1461.831" x2="1478.738" y1="1364.942" y2="1338.525" gradientUnits="userSpaceOnUse"><stop offset="0" stop-color="#777"/><stop offset="1" stop-color="#464646"/></linearGradient><circle cx="1471.1" cy="1350.5" r="16.7" fill="url(#x)"/><linearGradient id="y" x1="1432.342" x2="1517.523" y1="1341.38" y2="1208.285" gradientUnits="userSpaceOnUse"><stop offset="0" stop-color="#303030"/><stop offset=".196" stop-color="#fff"/><stop offset="1" stop-color="#c9c9c9"/></linearGradient><path fill="url(#y)" d="M1469.6,1358.3c-16.4-2.6-30.2-14.3-38.8-33.1c-8.3-18-10.9-40.4-7.3-63.2c3.6-22.8,12.9-43.4,26.3-57.9        c14-15.2,30.7-22.1,47.1-19.5c27.5,4.3,47.1,35,47.7,74.6c0.1,7.2-0.4,14.4-1.6,21.7l-11.3-1.8c1-6.6,1.5-13.2,1.4-19.7        c-0.5-33.9-16.1-60-38-63.4c-12.5-2-25.6,3.7-36.9,16c-11.9,12.9-20.2,31.4-23.4,51.9c-3.2,20.6-1,40.7,6.4,56.6        c7,15.2,25.1,35.9,37.6,37.9H1469.6z"/><linearGradient id="z" x1="1431.029" x2="1553.75" y1="1271.203" y2="1271.203" gradientUnits="userSpaceOnUse"><stop offset="0" stop-color="#303030"/><stop offset="1" stop-color="#c9c9c9"/></linearGradient><path fill="url(#z)" d="M1478.7,1358.3c-16.4-2.6-30.2-14.3-38.8-33.1c-8.3-18-10.9-40.4-7.3-63.2c3.6-22.8,12.9-43.4,26.3-57.9        c14-15.2,30.7-22.1,47.1-19.5c27.5,4.3,47.1,35,47.7,74.6c0.1,7.2-0.4,14.4-1.6,21.7l-11.3-1.8c1-6.6,1.5-13.2,1.4-19.7        c-0.5-33.9-16.1-60-38-63.4c-12.5-2-25.6,3.7-36.9,16c-11.9,12.9-20.2,31.4-23.4,51.9c-3.2,20.6-1,40.7,6.4,56.6        c7,15.2,17.7,24.6,30.2,26.6L1478.7,1358.3z"/><linearGradient id="A" x1="1602.44" x2="1619.347" y1="1364.942" y2="1338.525" gradientUnits="userSpaceOnUse"><stop offset="0" stop-color="#777"/><stop offset="1" stop-color="#464646"/></linearGradient><circle cx="1611.7" cy="1350.5" r="16.7" fill="url(#A)"/><linearGradient id="B" x1="1572.95" x2="1658.132" y1="1341.38" y2="1208.285" gradientUnits="userSpaceOnUse"><stop offset="0" stop-color="#303030"/><stop offset=".196" stop-color="#fff"/><stop offset="1" stop-color="#c9c9c9"/></linearGradient><path fill="url(#B)" d="M1610.2,1358.3c-16.4-2.6-30.2-14.3-38.8-33.1c-8.3-18-10.9-40.4-7.3-63.2c3.6-22.8,12.9-43.4,26.3-57.9        c14-15.2,30.7-22.1,47.1-19.5c27.5,4.3,47.1,35,47.7,74.6c0.1,7.2-0.4,14.4-1.6,21.7l-11.3-1.8c1-6.6,1.5-13.2,1.4-19.7        c-0.5-33.9-16.1-60-38-63.4c-12.5-2-25.6,3.7-36.9,16c-11.9,12.9-20.2,31.4-23.4,51.9c-3.2,20.6-1,40.7,6.4,56.6        c7,15.2,25.1,35.9,37.6,37.9H1610.2z"/><linearGradient id="C" x1="1571.638" x2="1694.359" y1="1271.203" y2="1271.203" gradientUnits="userSpaceOnUse"><stop offset="0" stop-color="#303030"/><stop offset="1" stop-color="#c9c9c9"/></linearGradient><path fill="url(#C)" d="M1619.3,1358.3c-16.4-2.6-30.2-14.3-38.8-33.1c-8.3-18-10.9-40.4-7.3-63.2c3.6-22.8,12.9-43.4,26.3-57.9        c14-15.2,30.7-22.1,47.1-19.5c27.5,4.3,47.1,35,47.7,74.6c0.1,7.2-0.4,14.4-1.6,21.7l-11.3-1.8c1-6.6,1.5-13.2,1.4-19.7        c-0.5-33.9-16.1-60-38-63.4c-12.5-2-25.6,3.7-36.9,16c-11.9,12.9-20.2,31.4-23.4,51.9c-3.2,20.6-1,40.7,6.4,56.6        c7,15.2,17.7,24.6,30.2,26.6L1619.3,1358.3z"/><g><linearGradient id="D" x1="1743.049" x2="1759.956" y1="1364.942" y2="1338.525" gradientUnits="userSpaceOnUse"><stop offset="0" stop-color="#777"/><stop offset="1" stop-color="#464646"/></linearGradient><circle cx="1752.3" cy="1350.5" r="16.7" fill="url(#D)"/><linearGradient id="E" x1="1713.559" x2="1798.74" y1="1341.38" y2="1208.285" gradientUnits="userSpaceOnUse"><stop offset="0" stop-color="#303030"/><stop offset=".196" stop-color="#fff"/><stop offset="1" stop-color="#c9c9c9"/></linearGradient><path fill="url(#E)" d="M1750.8,1358.3c-16.4-2.6-30.2-14.3-38.8-33.1c-8.3-18-10.9-40.4-7.3-63.2c3.6-22.8,12.9-43.4,26.3-57.9        c14-15.2,30.7-22.1,47.1-19.5c27.5,4.3,47.1,35,47.7,74.6c0.1,7.2-0.4,14.4-1.6,21.7l-11.3-1.8c1-6.6,1.5-13.2,1.4-19.7        c-0.5-33.9-16.1-60-38-63.4c-12.5-2-25.6,3.7-36.9,16c-11.9,12.9-20.2,31.4-23.4,51.9c-3.2,20.6-1,40.7,6.4,56.6        c7,15.2,25.1,35.9,37.6,37.9H1750.8z"/><linearGradient id="F" x1="1712.246" x2="1834.967" y1="1271.203" y2="1271.203" gradientUnits="userSpaceOnUse"><stop offset="0" stop-color="#303030"/><stop offset="1" stop-color="#c9c9c9"/></linearGradient><path fill="url(#F)" d="M1759.9,1358.3c-16.4-2.6-30.2-14.3-38.8-33.1c-8.3-18-10.9-40.4-7.3-63.2c3.6-22.8,12.9-43.4,26.3-57.9        c14-15.2,30.7-22.1,47.1-19.5c27.5,4.3,47.1,35,47.7,74.6c0.1,7.2-0.4,14.4-1.6,21.7l-11.3-1.8c1-6.6,1.5-13.2,1.4-19.7        c-0.5-33.9-16.1-60-38-63.4c-12.5-2-25.6,3.7-36.9,16c-11.9,12.9-20.2,31.4-23.4,51.9c-3.2,20.6-1,40.7,6.4,56.6        c7,15.2,17.7,24.6,30.2,26.6L1759.9,1358.3z"/></g><g><linearGradient id="G" x1="1883.658" x2="1900.565" y1="1364.942" y2="1338.525" gradientUnits="userSpaceOnUse"><stop offset="0" stop-color="#777"/><stop offset="1" stop-color="#464646"/></linearGradient><circle cx="1892.9" cy="1350.5" r="16.7" fill="url(#G)"/><linearGradient id="H" x1="1854.168" x2="1939.349" y1="1341.38" y2="1208.285" gradientUnits="userSpaceOnUse"><stop offset="0" stop-color="#303030"/><stop offset=".196" stop-color="#fff"/><stop offset="1" stop-color="#c9c9c9"/></linearGradient><path fill="url(#H)" d="M1891.4,1358.3c-16.4-2.6-30.2-14.3-38.8-33.1c-8.3-18-10.9-40.4-7.3-63.2c3.6-22.8,12.9-43.4,26.3-57.9        c14-15.2,30.7-22.1,47.1-19.5c27.5,4.3,47.1,35,47.7,74.6c0.1,7.2-0.4,14.4-1.6,21.7l-11.3-1.8c1-6.6,1.5-13.2,1.4-19.7        c-0.5-33.9-16.1-60-38-63.4c-12.5-2-25.6,3.7-36.9,16c-11.9,12.9-20.2,31.4-23.4,51.9c-3.2,20.6-1,40.7,6.4,56.6        c7,15.2,25.1,35.9,37.6,37.9H1891.4z"/><linearGradient id="I" x1="1852.855" x2="1975.576" y1="1271.203" y2="1271.203" gradientUnits="userSpaceOnUse"><stop offset="0" stop-color="#303030"/><stop offset="1" stop-color="#c9c9c9"/></linearGradient><path fill="url(#I)" d="M1900.6,1358.3c-16.4-2.6-30.2-14.3-38.8-33.1c-8.3-18-10.9-40.4-7.3-63.2c3.6-22.8,12.9-43.4,26.3-57.9        c14-15.2,30.7-22.1,47.1-19.5c27.5,4.3,47.1,35,47.7,74.6c0.1,7.2-0.4,14.4-1.6,21.7l-11.3-1.8c1-6.6,1.5-13.2,1.4-19.7        c-0.5-33.9-16.1-60-38-63.4c-12.5-2-25.6,3.7-36.9,16c-11.9,12.9-20.2,31.4-23.4,51.9c-3.2,20.6-1,40.7,6.4,56.6        c7,15.2,17.7,24.6,30.2,26.6L1900.6,1358.3z"/></g></g></g><linearGradient id="J" x1="760.327" x2="759.921" y1="1043.179" y2="1030.58" gradientUnits="userSpaceOnUse"><stop offset="0" stop-color="#777"/><stop offset="1" stop-color="#464646"/></linearGradient><path fill="url(#J)" d="M761.4,1032.2c-0.2,3.7-1.1,7.4-2.6,11c0.9-4.2,1.8-8.4,2.6-12.7C761.4,1031.1,761.4,1031.7,761.4,1032.2z" opacity=".6"/><g><linearGradient id="K" x1="998.382" x2="561.432" y1="1848.344" y2="1848.344" gradientUnits="userSpaceOnUse"><stop offset="0" stop-color="#dd2f2f"/><stop offset="1" stop-color="#ff6757"/></linearGradient><path fill="url(#K)" d="M1066.7,1850.8c0-0.8,0.1-1.6,0.1-2.4c0-0.8,0-1.6-0.1-2.4v-43.2h-28.2c-45.4-34.5-140.7-58.3-251-58.3     c-110.3,0-205.6,23.8-251,58.3h-28.3v48h0.1c3.5,56.3,127.1,101.5,279.2,101.5S1063.2,1907.1,1066.7,1850.8L1066.7,1850.8     L1066.7,1850.8z"/><linearGradient id="L" x1="790.748" x2="785.186" y1="1910.584" y2="1738.178" gradientUnits="userSpaceOnUse"><stop offset="0" stop-color="#dd2f2f"/><stop offset="1" stop-color="#ff6757"/></linearGradient><ellipse cx="787.4" cy="1808.3" fill="url(#L)" rx="279.3" ry="104"/><linearGradient id="M" x1="803.406" x2="778.883" y1="1897.655" y2="1137.463" gradientUnits="userSpaceOnUse"><stop offset="0" stop-color="#fff"/><stop offset="1" stop-color="#dcdcdc"/></linearGradient><path fill="url(#M)" d="M814.7,1403c71.7-23.6,258.7-113.6,237.5-407.7l-264.8,70.8l-264.8-70.8    c-21.1,294.1,165.8,384.1,237.5,407.7c-71.7,23.6-258.7,113.6-237.5,407.7l0.8-0.2c3,53.3,120.1,96.2,264,96.2s261-42.9,264-96.2    l0.8,0.2C1073.4,1516.6,886.5,1426.6,814.7,1403z" opacity=".58"/><linearGradient id="N" x1="790.184" x2="784.753" y1="1213.089" y2="1044.724" gradientUnits="userSpaceOnUse"><stop offset="0" stop-color="#777"/><stop offset="1" stop-color="#464646"/></linearGradient><path fill="url(#N)" d="M1020.6,1128.9c-0.8,4.3-1.7,8.5-2.6,12.7c-17,40.3-113.8,71.2-230.6,71.2s-213.6-30.9-230.6-71.2    c-0.9-4.2-1.8-8.4-2.6-12.7c0-0.9,0-1.7,0-2.6c0-0.3,0.1-0.6,0.1-1c1.8-16.1,16.3-31.1,40-43.6c42-22.2,112.8-36.8,193.1-36.8    s151.1,14.6,193.1,36.8c23.7,12.5,38.1,27.5,40,43.6c0.1,0.3,0.1,0.6,0.1,1C1020.6,1127.2,1020.6,1128.1,1020.6,1128.9z" opacity=".6"/><linearGradient id="O" x1="799.397" x2="775.335" y1="1880.517" y2="1134.582" gradientUnits="userSpaceOnUse"><stop offset="0" stop-color="#777"/><stop offset="1" stop-color="#464646"/></linearGradient><path fill="url(#O)" d="M1018,1783.9c-30-135.2-118.3-197.5-180-225.2c-19.4-8.7-32.9-26.9-35.2-48.1l-13.9-125.9l17.9-5.9    c57.9-19,175.6-76.8,211.2-237.3c-17,40.3-113.8,71.2-230.6,71.2s-213.6-30.9-230.6-71.2c35.6,160.5,153.3,218.2,211.2,237.3    l17.9,5.9l-13.9,125.9c-2.3,21.2-15.8,39.4-35.2,48.1c-61.7,27.6-150,89.9-180,225.2c-0.9,4.2-1.8,8.4-2.6,12.7c0,0.9,0,1.7,0,2.6    c0,0.3,0.1,0.6,0.1,1c1.8,16.1,16.3,31.1,40,43.6c42,22.2,112.8,36.8,193.1,36.8s151.1-14.6,193.1-36.8    c23.7-12.5,38.1-27.5,40-43.6c0.1-0.3,0.1-0.6,0.1-1c0-0.9,0-1.7,0-2.6C1019.8,1792.3,1019,1788.1,1018,1783.9z" opacity=".6"/><linearGradient id="P" x1="555.727" x2="555.316" y1="1141.667" y2="1128.9" gradientUnits="userSpaceOnUse"><stop offset="0" stop-color="#777"/><stop offset="1" stop-color="#464646"/></linearGradient><path fill="url(#P)" d="M554.3,1128.9c0.8,4.3,1.7,8.5,2.6,12.7c-1.5-3.6-2.4-7.3-2.6-11C554.2,1130.1,554.2,1129.5,554.3,1128.9z" opacity=".6"/><linearGradient id="Q" x1="540.489" x2="995.059" y1="959.24" y2="964.761" gradientUnits="userSpaceOnUse"><stop offset="0" stop-color="#dd2f2f"/><stop offset="1" stop-color="#ff6757"/></linearGradient><path fill="url(#Q)" d="M1066.7,964.7c0-0.8,0.1-1.6,0.1-2.4c0-0.8,0-1.6-0.1-2.4v-43.2h-28.2c-45.4-34.5-140.7-58.3-251-58.3     c-110.3,0-205.6,23.8-251,58.3h-28.3v48h0.1c3.5,56.3,127.1,101.5,279.2,101.5S1063.2,1021,1066.7,964.7L1066.7,964.7     L1066.7,964.7z"/><linearGradient id="R" x1="964.405" x2="570.566" y1="849.479" y2="1011.431" gradientUnits="userSpaceOnUse"><stop offset="0" stop-color="#dd2f2f"/><stop offset="1" stop-color="#ff6757"/></linearGradient><ellipse cx="787.4" cy="922.2" fill="url(#R)" rx="279.3" ry="104"/></g></svg>