<svg xmlns="http://www.w3.org/2000/svg" enable-background="new 0 0 2500 2500" viewBox="0 0 2500 2500"><polygon fill="#141323" points="1754.42 2090.23 1929.03 2090.23 1894.42 2196.18 1792.57 2196.18"/><path fill="#fff" d="M1859.22,1462.87c-11.3,35.84-43.81,61.04-81.43,63.08l-84.19,4.12c-37.56,1.79-72.41-20.06-87.1-54.75
								l-14.77-34.44c-10.15-23.78-29.99-41.57-54.38-50.25c-0.25-0.07-0.75-0.22-1.1-0.45c-24.13-8.61-50.79-7.51-73.58,4.43
								l-33.48,17.64c-33.32,17.56-74.18,12.23-102-13.08l-62.65-56.76c-27.83-25.31-37.06-65.14-22.98-100.18l14.09-35.04
								c9.61-23.84,7.94-50.39-2.94-73.56l-0.54-0.98c-10.97-23.33-30.57-41.47-55.26-49.13l-36-11.21
								c-35.84-11.3-60.95-43.64-62.83-81.36l-4.22-84.35c-1.88-37.72,19.9-72.32,54.5-87.18l34.69-14.69
								c23.79-10.16,41.57-29.99,50.09-54.29c0.24-0.34,0.31-0.6,0.45-1.1c8.77-24.22,7.68-50.88-4.36-73.83l-17.55-33.32
								c-17.4-33.41-12.13-74.01,13.08-102l56.6-62.56c25.31-27.83,65.31-37.14,100.18-22.97l35.04,14.08
								c23.84,9.62,50.48,8.11,73.81-2.86l0.98-0.54c23.33-10.97,41.46-30.57,49.13-55.25l11.3-35.84
								c11.2-36.01,43.55-61.11,81.27-63l84.19-4.12c37.63-2.04,72.49,19.8,87.17,54.5l14.69,34.69
								c10.06,23.62,30.07,41.32,54.29,50.09c0.26,0.07,0.76,0.22,1.01,0.29c24.22,8.76,51.13,7.74,73.83-4.37l33.41-17.39
								c33.32-17.55,74.08-12.39,102.07,12.83l62.4,56.68c27.99,25.22,37.14,65.32,23.14,100.09l-14.16,35.29
								c-9.62,23.85-8.11,50.48,3.03,73.72c0.18,0.33,0.27,0.49,0.28,0.91c11.04,23.08,30.65,41.21,55.17,48.96l36.26,11.28
								c36,11.21,61.2,43.71,62.99,81.27l4.22,84.35c1.88,37.72-19.97,72.58-54.66,87.27l-34.85,14.78
								c-23.62,10.07-41.41,29.91-50.08,54.29c-0.08,0.26-0.15,0.51-0.38,0.85c-8.52,24.3-7.52,50.79,4.44,73.58l17.48,33.57
								c17.55,33.32,12.38,74.09-12.83,102.07l-56.59,62.57c-25.38,28.07-65.47,37.23-100.35,23.06l-34.88-14.17
								c-24-9.53-50.64-8.02-74.14,3.04l-0.81,0.45c-23.33,10.97-41.37,30.73-49.13,55.25L1859.22,1462.87z"/><path d="M1689.36,1533.36c-37.13,0-71.23-22.39-85.8-56.79l-14.76-34.42c-9.68-22.67-28.33-39.9-52.52-48.51
								c-0.15-0.04-0.75-0.21-1.39-0.55c-23.72-8.38-49.49-6.79-70.75,4.35l-33.47,17.64c-34.37,18.11-76.82,12.67-105.63-13.54
								l-62.65-56.75c-28.69-26.08-38.25-67.77-23.79-103.73l14.09-35.04c8.95-22.19,7.9-48.07-2.86-71.02l-0.44-0.79
								c-10.91-23.18-30.34-40.47-53.41-47.63l-36.01-11.2c-36.99-11.66-63.13-45.51-65.06-84.25l-4.22-84.35
								c-1.93-38.67,20.75-74.95,56.43-90.27l34.7-14.69c22.39-9.56,40.01-28.66,48.33-52.41c0.09-0.26,0.22-0.52,0.38-0.75
								c0.02-0.07,0.06-0.32,0.09-0.39c8.61-23.79,7.09-49.77-4.19-71.26l-17.55-33.32c-17.88-34.35-12.44-76.79,13.53-105.61
								l56.6-62.57c26.2-28.81,67.89-38.36,103.74-23.78l35.03,14.07c22.35,9.01,48.32,8,71.27-2.79l0.8-0.45
								c23.16-10.9,40.45-30.33,47.62-53.41l11.3-35.85c11.53-37.07,45.35-63.28,84.15-65.22l84.19-4.12
								c38.79-2.13,75.08,20.57,90.26,56.44l14.69,34.69c9.39,22.05,28.51,39.67,52.44,48.34l0.84,0.24
								c24.19,8.74,50.15,7.22,71.42-4.13l33.44-17.41c34.32-18.08,76.79-12.73,105.68,13.29l62.4,56.68
								c28.83,25.97,38.46,67.63,23.95,103.64l-14.15,35.29c-9.06,22.43-7.98,48.36,2.94,71.16c0.18,0.33,0.39,0.76,0.51,1.38
								c10.96,22.58,30.26,39.63,53.03,46.83l36.25,11.27c37.17,11.57,63.38,45.39,65.22,84.16l4.22,84.34
								c1.94,38.89-20.81,75.2-56.6,90.36l-34.85,14.78c-22.23,9.48-39.85,28.58-48.33,52.42c-0.04,0.14-0.16,0.58-0.48,1.15
								c-8.41,24.23-6.87,49.34,4.36,70.74l17.49,33.58c18.08,34.31,12.74,76.79-13.29,105.68l-56.6,62.57
								c-26.14,28.91-67.9,38.51-103.91,23.87l-34.88-14.17c-22.82-9.06-48.26-8.01-71.58,2.97l-0.63,0.35
								c-23.01,10.83-40.3,30.27-47.63,53.42l-11.04,35.9c0,0.01,0,0.01,0,0.02c-11.65,36.96-45.53,63.2-84.3,65.31l-84.21,4.12
								C1692.29,1533.32,1690.81,1533.36,1689.36,1533.36z M1504.12,1381.4c11.11,0,22.36,1.92,33.2,5.78
								c0.25,0.09,0.49,0.21,0.71,0.36c0.06,0.02,0.33,0.07,0.39,0.09c25.89,9.21,45.86,27.68,56.24,52l14.77,34.43
								c14.11,33.32,47.87,54.57,84.02,52.82l84.18-4.12c36.12-1.96,67.68-26.41,78.55-60.84l11.05-35.92
								c7.86-24.87,26.38-45.7,50.81-57.2l0.63-0.35c25.12-11.84,52.35-12.94,76.85-3.22l34.9,14.18
								c33.54,13.63,72.43,4.69,96.79-22.24l56.6-62.57c24.24-26.91,29.22-66.48,12.37-98.45l-17.49-33.58
								c-12.1-23.06-13.74-50.1-4.61-76.11c0.09-0.25,0.21-0.5,0.36-0.72c9.1-25.65,27.99-46.12,51.86-56.29l34.86-14.79
								c33.34-14.12,54.53-47.94,52.72-84.18l-4.22-84.35c-1.72-36.11-26.13-67.61-60.75-78.39l-36.26-11.28
								c-24.61-7.78-45.42-26.24-57.09-50.63c-0.14-0.3-0.24-0.62-0.28-0.94c-11.7-24.6-12.78-52.28-3.1-76.26l14.15-35.29
								c13.51-33.55,4.54-72.35-22.31-96.54l-62.4-56.68c-26.9-24.24-66.47-29.22-98.45-12.37l-33.43,17.4
								c-22.83,12.18-50.68,13.84-76.39,4.53l-0.78-0.22c-25.82-9.34-46.28-28.24-56.37-51.91l-14.69-34.7
								c-14.14-33.4-47.92-54.5-84.06-52.56l-84.21,4.13c-36.14,1.81-67.64,26.22-78.39,60.76l-11.3,35.85
								c-7.69,24.77-26.21,45.61-50.81,57.17l-0.8,0.45c-24.73,11.64-52.56,12.71-76.54,3.03l-35.04-14.08
								c-33.4-13.58-72.23-4.67-96.64,22.16l-56.59,62.56c-24.2,26.86-29.27,66.4-12.61,98.39l17.54,33.31
								c12.11,23.08,13.77,50.92,4.54,76.4c-0.1,0.36-0.23,0.83-0.56,1.4c-8.96,25.28-27.8,45.62-51.73,55.84l-34.7,14.69
								c-33.23,14.27-54.36,48.06-52.56,84.09l4.22,84.35c1.8,36.08,26.15,67.62,60.61,78.48l35.99,11.2
								c24.77,7.69,45.62,26.21,57.19,50.82l0.44,0.79c11.61,24.73,12.71,52.46,3.1,76.29l-14.08,35.04
								c-13.46,33.5-4.56,72.34,22.16,96.64l62.65,56.75c26.84,24.41,66.37,29.49,98.37,12.62l33.48-17.64
								C1474.35,1384.89,1489.11,1381.4,1504.12,1381.4z M1859.22,1462.87h0.04H1859.22z M2155.39,705.17
								c0.01,0.01,0.01,0.03,0.02,0.04C2155.4,705.2,2155.39,705.19,2155.39,705.17z M2155.23,704.56
								C2155.23,704.56,2155.23,704.56,2155.23,704.56C2155.23,704.56,2155.23,704.56,2155.23,704.56z"/><circle cx="1705.4" cy="918.5" r="405.99" fill="#e7ebfb"/><circle cx="1705.45" cy="918.59" r="353.41" fill="#fff"/><path fill="#060f11" d="M1705.45,1275.18c-196.63,0-356.6-159.97-356.6-356.6c0-196.63,159.97-356.6,356.6-356.6
							s356.6,159.97,356.6,356.6C2062.05,1115.21,1902.09,1275.18,1705.45,1275.18z M1705.45,568.36
							c-193.12,0-350.23,157.11-350.23,350.23c0,193.12,157.11,350.23,350.23,350.23s350.23-157.11,350.23-350.23
							C2055.68,725.47,1898.57,568.36,1705.45,568.36z"/><path fill="#f93121" d="M1997.06,918.59c0,80.52-32.62,153.42-85.4,206.2l-122.92-122.92c6.67-6.67,12.52-14.12,17.45-22.2
								c0.99-1.62,1.94-3.26,2.85-4.92c1.82-3.33,3.46-6.77,4.95-10.3c0.38-0.88,0.73-1.77,1.09-2.65c1.06-2.68,2.02-5.4,2.88-8.18
								c0.58-1.84,1.11-3.71,1.59-5.58c0.48-1.89,0.91-3.79,1.31-5.71c0.58-2.88,1.06-5.78,1.44-8.74c0.13-0.99,0.23-1.97,0.33-2.95
								c0.2-1.99,0.35-3.99,0.45-5.98c0.1-2.02,0.15-4.04,0.15-6.06H1997.06z"/><path fill="#ff452d" d="M1997.06,918.59h-173.82c0-32.52-13.18-61.96-34.49-83.28l122.92-122.92
								C1964.41,765.16,1997.06,838.06,1997.06,918.59z"/><path fill="#ffbc00" d="M1911.66,712.39l-122.92,122.92c-21.34-21.31-50.78-34.49-83.28-34.49V626.97
								C1785.99,626.97,1858.89,659.62,1911.66,712.39z"/><path fill="#e7ebfb" d="M1622.17,1001.86l-122.92,122.92c-26.39-26.39-47.75-57.8-62.49-92.69
								c-14.75-34.87-22.9-73.25-22.9-113.5h173.82C1587.67,951.11,1600.85,980.55,1622.17,1001.86z"/><path fill="#ffd400" d="M1705.47,626.97v173.85c-32.52,0-61.96,13.18-83.28,34.49l-122.94-122.92
								C1552.02,659.62,1624.92,626.97,1705.47,626.97z"/><path fill="#d9e0f4" d="M1622.19,835.31c-21.34,21.31-34.52,50.75-34.52,83.28h-173.82c0-80.52,32.62-153.42,85.4-206.2
								L1622.19,835.31z"/><path fill="#ff73ed" d="M1766.85,910.61c3.11,18.53-2.5,38.23-16.79,52.52c-23.51,23.51-61.61,23.51-85.12,0
							c-23.51-23.51-23.51-61.61,0-85.12c14.29-14.29,33.96-19.9,52.47-16.77l119.51-70.1L1766.85,910.61z"/><path fill="#060f11" d="M1707.5,983.91c-16.23,0-32.46-6.18-44.81-18.53c-24.71-24.71-24.71-64.91,0-89.62
							c14.19-14.18,34.32-20.8,54.1-17.84l118.53-69.52c1.25-0.73,2.84-0.53,3.86,0.5c1.02,1.03,1.23,2.61,0.49,3.86l-69.49,118.48
							c2.94,19.81-3.69,39.97-17.86,54.15C1739.96,977.74,1723.73,983.91,1707.5,983.91z M1707.45,863.59
							c-14.95,0-29.51,5.92-40.26,16.67c-22.23,22.23-22.23,58.39,0,80.62c22.22,22.22,58.39,22.23,80.61,0
							c13-13,18.94-31.6,15.9-49.74c-0.12-0.74,0.02-1.49,0.39-2.14l63.89-108.91l-108.97,63.91c-0.65,0.38-1.41,0.52-2.14,0.39
							C1713.74,863.85,1710.59,863.59,1707.45,863.59z"/><rect width="171.27" height="36.78" x="1619.82" y="1055.44" fill="#141323"/><rect width="149.53" height="18.39" x="1630.69" y="1112.22" fill="#e7ebfb"/><rect width="104.4" height="18.39" x="1653.25" y="1147.98" fill="#e7ebfb"/><circle cx="1705.47" cy="920.51" r="28.65" fill="#fff"/><path fill="#060f11" d="M1705.47,952.35c-17.56,0-31.84-14.28-31.84-31.84s14.29-31.84,31.84-31.84
							c17.56,0,31.84,14.28,31.84,31.84S1723.03,952.35,1705.47,952.35z M1705.47,895.04c-14.04,0-25.47,11.43-25.47,25.47
							s11.43,25.47,25.47,25.47s25.47-11.43,25.47-25.47S1719.51,895.04,1705.47,895.04z"/><rect width="420.68" height="388.43" x="1256.67" y="1796.57" fill="#141323" transform="rotate(-180 1467.01 1990.791)"/><rect width="420.68" height="568.33" x="719.77" y="1616.68" fill="#ff452d" transform="rotate(-180 930.11 1900.843)"/><rect width="420.68" height="568.33" x="719.77" y="1616.68" fill="#141323" transform="rotate(-180 930.11 1900.843)"/><rect width="420.68" height="773.94" x="182.84" y="1411.07" fill="#141323" transform="rotate(-180 393.179 1798.037)"/><path fill="#060f11" d="M1677.35,2188.19h-420.68c-1.76,0-3.19-1.43-3.19-3.19v-388.43c0-1.76,1.43-3.19,3.19-3.19h420.68
									c1.76,0,3.19,1.43,3.19,3.19v388.43C1680.54,2186.77,1679.11,2188.19,1677.35,2188.19z M1259.85,2181.82h414.31v-382.06
									h-414.31V2181.82z"/><path fill="#060f11" d="M1140.45,2188.19H719.77c-1.76,0-3.19-1.43-3.19-3.19v-568.33c0-1.76,1.43-3.19,3.19-3.19h420.68
									c1.76,0,3.19,1.43,3.19,3.19v568.33C1143.64,2186.77,1142.21,2188.19,1140.45,2188.19z M722.95,2181.82h414.31v-561.96
									H722.95V2181.82z"/><path fill="#060f11" d="M603.52,2188.19H182.84c-1.76,0-3.19-1.43-3.19-3.19v-773.94c0-1.76,1.43-3.19,3.19-3.19h420.68
									c1.76,0,3.19,1.43,3.19,3.19v773.94C606.71,2186.77,605.28,2188.19,603.52,2188.19z M186.02,2181.82h414.31v-767.57H186.02
									V2181.82z"/><rect width="420.68" height="388.43" x="1296.03" y="1796.57" fill="#ffd400" transform="rotate(-180 1506.371 1990.791)"/><path fill="#f7bd06" d="M1296.04,1796.57v388.45h420.65v-75.84c-174.5-26.85-310.15-154.3-328.32-312.61H1296.04z"/><rect width="420.68" height="568.33" x="759.13" y="1616.68" fill="#e7ebfb" transform="rotate(-180 969.47 1900.843)"/><path fill="#b7bef8" d="M759.11,1616.69v568.33h420.69v-79.3c-188.95-36.67-330.38-186.04-330.38-364.77v-124.26H759.11z"/><rect width="420.68" height="773.94" x="222.2" y="1411.07" fill="#ff73ed" transform="rotate(-180 432.54 1798.037)"/><path fill="#f45de9" d="M222.19,1411.06v773.95h420.69v-79.3c-188.95-36.63-330.38-186.04-330.38-364.77v-329.89H222.19z"/><g><path fill="#060f11" d="M1716.71,2188.19h-420.68c-1.76,0-3.19-1.43-3.19-3.19v-388.43c0-1.76,1.43-3.19,3.19-3.19h420.68
									c1.76,0,3.19,1.43,3.19,3.19v388.43C1719.9,2186.77,1718.47,2188.19,1716.71,2188.19z M1299.21,2181.82h414.31v-382.06
									h-414.31V2181.82z"/><path fill="#060f11" d="M1179.81,2188.19H759.13c-1.76,0-3.19-1.43-3.19-3.19v-568.33c0-1.76,1.43-3.19,3.19-3.19h420.68
									c1.76,0,3.19,1.43,3.19,3.19v568.33C1183,2186.77,1181.57,2188.19,1179.81,2188.19z M762.32,2181.82h414.31v-561.96H762.32
									V2181.82z"/><path fill="#060f11" d="M642.88,2188.19H222.2c-1.76,0-3.19-1.43-3.19-3.19v-773.94c0-1.76,1.43-3.19,3.19-3.19h420.68
									c1.76,0,3.19,1.43,3.19,3.19v773.94C646.07,2186.77,644.64,2188.19,642.88,2188.19z M225.38,2181.82h414.31v-767.57H225.38
									V2181.82z"/></g><g><path fill="#ffc1a4" d="M997.84,2033.53c51.38,34.36,102.29,64.67,145.45,28.89l-14.31-195.69l-136.31-6.02L997.84,2033.53z"/><polygon points="1137.06 1985.83 997.23 2012.97 996.07 1973.48"/><path fill="#ff452d" d="M1143.28,2059.43c0,0,10.33,24.45,30.63,31.76c20.3,7.31,69.37,17.13,77.19,35.58
										c7.82,18.46,5.33,61.47,5.33,61.47l-267.63-0.7l0.47-159.45c0,0,10.11-9.11,39.06,4.21
										C1057.29,2045.63,1094.41,2068.74,1143.28,2059.43z"/><path fill="#060606" d="M1256.73,2165.55c0.29,12.54-0.29,22.69-0.29,22.69l-267.63-0.7l0.07-22.69L1256.73,2165.55z"/><path d="M1111.31,2082.78c-40.32,0-67.76-14.03-86.26-25.99c-19.01-12.28-33.73-6.1-34.35-5.83
										c-1.83,0.8-3.98-0.03-4.79-1.86c-0.81-1.83,0-3.97,1.83-4.79c0.76-0.34,18.79-8.15,41.26,6.36
										c23.23,15.01,61.23,33.44,122.74,20.33c1.97-0.43,3.9,0.84,4.32,2.8c0.42,1.97-0.84,3.9-2.8,4.32
										C1137.92,2081.39,1123.98,2082.78,1111.31,2082.78z"/><path d="M1145.52,2105.46c-0.84,0-1.68-0.29-2.37-0.88c-1.53-1.31-1.7-3.61-0.39-5.13l15.62-18.19
										c1.31-1.52,3.61-1.7,5.13-0.39c1.53,1.31,1.7,3.61,0.39,5.13l-15.62,18.19
										C1147.56,2105.03,1146.55,2105.46,1145.52,2105.46z"/><path d="M1159.05,2113.22c-0.84,0-1.68-0.29-2.37-0.88c-1.53-1.31-1.7-3.61-0.39-5.13l15.62-18.19
										c1.31-1.52,3.61-1.7,5.13-0.39c1.53,1.31,1.7,3.61,0.39,5.13l-15.62,18.19
										C1161.09,2112.79,1160.07,2113.22,1159.05,2113.22z"/><path d="M1172.57,2120.98c-0.84,0-1.68-0.29-2.37-0.88c-1.53-1.31-1.7-3.61-0.39-5.13l15.62-18.19
										c1.31-1.52,3.61-1.7,5.13-0.39c1.53,1.31,1.7,3.61,0.39,5.13l-15.62,18.19C1174.62,2120.55,1173.6,2120.98,1172.57,2120.98
										z"/><path d="M1054.73,2168.69c-1.55,0-2.98-0.99-3.47-2.55c-14.91-47.27-61.58-47.75-62.22-47.75c0,0,0,0,0,0
										c0,0-0.01,0-0.01,0c-2.01,0-3.63-1.62-3.64-3.63c-0.01-2.01,1.62-3.65,3.63-3.65c0,0,0,0,0,0
										c0.71,0,52.69,0.52,69.19,52.84c0.6,1.92-0.46,3.96-2.38,4.57C1055.46,2168.64,1055.1,2168.69,1054.73,2168.69z"/><path fill="#ffc1a4" d="M1321.21,2033.53c51.38,34.36,102.29,64.67,145.45,28.89l-14.31-195.69l-136.31-6.02L1321.21,2033.53z
									"/><polygon points="1460.43 1985.83 1320.6 2012.97 1319.44 1973.48"/><path fill="#ff452d" d="M1466.65,2059.43c0,0,10.33,24.45,30.63,31.76c20.3,7.31,69.36,17.13,77.19,35.58
										c7.82,18.46,5.33,61.47,5.33,61.47l-267.63-0.7l0.47-159.45c0,0,10.11-9.11,39.06,4.21
										C1380.66,2045.63,1417.78,2068.74,1466.65,2059.43z"/><path fill="#060606" d="M1580.1,2165.55c0.29,12.54-0.29,22.69-0.29,22.69l-267.63-0.7l0.07-22.69L1580.1,2165.55z"/><path d="M1434.67,2082.78c-40.32,0-67.76-14.03-86.26-25.99c-19-12.28-33.73-6.1-34.35-5.83c-1.83,0.8-3.98-0.03-4.79-1.86
										c-0.81-1.83,0-3.97,1.83-4.79c0.76-0.34,18.79-8.16,41.27,6.36c23.23,15.01,61.25,33.44,122.74,20.33
										c1.95-0.43,3.9,0.83,4.32,2.8c0.42,1.97-0.83,3.9-2.8,4.32C1461.28,2081.39,1447.34,2082.78,1434.67,2082.78z"/><path d="M1468.89,2105.46c-0.84,0-1.69-0.29-2.37-0.88c-1.53-1.31-1.7-3.61-0.39-5.13l15.62-18.19
										c1.32-1.53,3.62-1.7,5.13-0.39c1.53,1.31,1.7,3.61,0.39,5.13l-15.62,18.19
										C1470.93,2105.03,1469.92,2105.46,1468.89,2105.46z"/><path d="M1482.42,2113.22c-0.84,0-1.69-0.29-2.37-0.88c-1.53-1.31-1.7-3.61-0.39-5.13l15.62-18.19
										c1.32-1.53,3.62-1.7,5.13-0.39c1.53,1.31,1.7,3.61,0.39,5.13l-15.62,18.19
										C1484.46,2112.79,1483.44,2113.22,1482.42,2113.22z"/><path d="M1495.94,2120.98c-0.84,0-1.69-0.29-2.37-0.88c-1.53-1.31-1.7-3.61-0.39-5.13l15.62-18.19
										c1.32-1.53,3.62-1.7,5.13-0.39c1.53,1.31,1.7,3.61,0.39,5.13l-15.62,18.19
										C1497.98,2120.55,1496.97,2120.98,1495.94,2120.98z"/><path d="M1378.1,2168.69c-1.55,0-2.98-0.99-3.47-2.55c-14.89-47.2-60.27-47.75-62.23-47.75l0,0
										c-2.01,0-3.64-1.63-3.64-3.63c0-2.01,1.62-3.64,3.63-3.65c0,0,0,0,0,0c0.71,0,52.68,0.52,69.2,52.84
										c0.6,1.92-0.46,3.96-2.38,4.57C1378.84,2168.64,1378.47,2168.69,1378.1,2168.69z"/><g><path fill="#0081ff" d="M1247.81,1610.97l27.45,374.54h213L1475,1548.02c-2.56-80.55-70.19-143.62-150.72-140.58l-223,6.97
								l11.01,196.56H1247.81z"/></g><g><path fill="#fff" d="M1378.1,1871.73c-1.71,0-3.13-1.36-3.18-3.08l-8.85-272.12c-1.77-50.22-42.52-89.56-92.78-89.56h-66.34
								c-1.76,0-3.19-1.43-3.19-3.19c0-1.76,1.43-3.19,3.19-3.19h66.34c53.71,0,97.26,42.04,99.15,95.72l8.85,272.13
								c0.06,1.76-1.32,3.23-3.08,3.29C1378.17,1871.73,1378.14,1871.73,1378.1,1871.73z"/></g><g><polygon fill="#060606" points="1171.18 1465.89 1205.58 1610.97 1160.17 1610.97"/></g><g><path fill="#0081ff" d="M967.62,1616.68l-4.01,368.83h219.26l-3.19-485.59c-0.36-52.46-46.89-92.57-98.83-85.19l-349.31,7.34
								l-0.6,92.11c-0.14,21.1,6.01,42,18.73,58.84c21.5,28.47,56.57,42.24,102.71,44.52L967.62,1616.68z"/></g><g><path fill="#fff" d="M1101.75,1916.08c-0.04,0-0.08,0-0.12,0c-1.76-0.06-3.13-1.54-3.07-3.3l12.74-349.47
								c0.7-18.13-6.53-35.59-19.86-47.89c-13.32-12.3-31.28-18.12-49.3-15.99c-186.56,22.16-189.22,21.54-190.5,21.24
								c-1.71-0.4-2.78-2.11-2.38-3.83c0.38-1.61,1.93-2.64,3.52-2.43c2.43,0.03,26.11-2,188.61-21.31
								c19.86-2.37,39.68,4.07,54.37,17.63c14.69,13.57,22.68,32.82,21.9,52.81l-12.74,349.46
								C1104.87,1914.73,1103.46,1916.08,1101.75,1916.08z"/></g><g><path fill="#fff" d="M1439.23,1909.77h-101.77c-1.76,0-3.19-1.43-3.19-3.19c0-1.76,1.43-3.19,3.19-3.19h101.77
								c1.76,0,3.19,1.43,3.19,3.19C1442.42,1908.35,1440.99,1909.77,1439.23,1909.77z"/></g><g><path fill="#fff" d="M1143.29,1938.31H1028.7c-1.76,0-3.19-1.43-3.19-3.19s1.43-3.19,3.19-3.19h114.59
								c1.76,0,3.19,1.43,3.19,3.19S1145.05,1938.31,1143.29,1938.31z"/></g></g><g><path fill="#ffc1a4" d="M1356.01,1018.47l-81.67,171.76c-16.16,32.21-52.38,49.04-87.42,40.63l-160.22-38.46l48.74-154
										l110.95,22.57l54.17-123.19L1356.01,1018.47z"/><polygon fill="#f7b094" points="1138.68 1054.8 1127.4 1216.58 1086.19 1206.68"/><path fill="#4a4ddc" d="M968.9,1038.08c0,0,44.7-6.17,46.81-6.27c16.81-0.83,72.97-8.37,99.88,6.59l37.83,10.86l-57.32,176.49
										l-160.5-45.86L968.9,1038.08z"/><polygon fill="#4a4ddc" points="1050.09 1415.37 1002.2 1034.34 700.65 1068.25 724.73 1427.99"/><path fill="#fff" d="M1020.27,1200.21c-1.6,0-2.98-1.21-3.16-2.83l-10.59-95.34c-0.19-1.75,1.06-3.32,2.81-3.52
											c1.76-0.2,3.32,1.06,3.52,2.81l10.59,95.34c0.19,1.75-1.06,3.32-2.81,3.52
											C1020.51,1200.21,1020.39,1200.21,1020.27,1200.21z"/><path fill="#fff" d="M1086.19,1167.27c-0.3,0-0.6-0.04-0.9-0.13c-1.69-0.49-2.65-2.26-2.16-3.95l21.49-73.24
										c0.5-1.69,2.26-2.66,3.96-2.16c1.69,0.49,2.65,2.26,2.16,3.95l-21.49,73.24
										C1088.84,1166.37,1087.57,1167.27,1086.19,1167.27z"/><path fill="#07070f" d="M939.96,1452.03h158.85v-38.24H978.2C957.08,1413.79,939.96,1430.91,939.96,1452.03L939.96,1452.03z"/><path fill="#141323" d="M1142.17,1239.58h184.44c17.17,0,28.73,17.58,21.92,33.34l-71.18,164.7
									c-3.78,8.74-12.39,14.4-21.92,14.4h-220.76l85.59-198.05C1124.04,1245.24,1132.65,1239.58,1142.17,1239.58z"/><path fill="#fff" d="M1231.99,1352.56c-2.5,13.25-15.27,23.99-28.51,23.99c-13.21,0-21.94-10.74-19.4-23.99
									c2.5-13.21,15.27-23.96,28.51-23.96C1225.8,1328.6,1234.49,1339.34,1231.99,1352.56z"/><path fill="#ffc1a4" d="M873.26,1111.33c58.83,1.19,52.19-54.34,29.68-75.93l-1.89-54.07l-82.61-41.88l-6.64,109.42
											C811.81,1048.87,809.59,1110.04,873.26,1111.33z"/><path fill="#060606" d="M902.57,1024.31c-8.91-3.72-35.37-16.15-42.72-35.67l41.61,4.66L902.57,1024.31z"/><circle cx="901.32" cy="911.64" r="90.74" fill="#ffc1a4"/><path fill="#060606" d="M942.56,941.8c-1.61,0-2.99-1.21-3.16-2.85c-0.19-1.75,1.08-3.32,2.83-3.51
											c2.07-0.22,4.21-0.45,5.82-1.32c1.13-0.62,2.4-1.91,2.56-3.72c0.27-3.12-2.48-6.3-5.2-9l-16.04-15.92
											c-1.25-1.24-1.26-3.26-0.02-4.5c1.24-1.25,3.26-1.26,4.5-0.02l16.04,15.92c3.77,3.74,7.56,8.34,7.06,14.08
											c-0.31,3.67-2.51,6.95-5.87,8.77c-2.72,1.48-5.62,1.78-8.18,2.06C942.79,941.8,942.67,941.8,942.56,941.8z"/><path fill="#060606" d="M926.87,964.59c-10.96,0-21.79-4.67-29.21-12.83c-1.18-1.3-1.09-3.32,0.22-4.5
											c1.3-1.18,3.32-1.08,4.5,0.22c7.13,7.84,18.51,11.93,28.99,10.43c1.75-0.24,3.36,0.96,3.61,2.7
											c0.25,1.74-0.96,3.35-2.7,3.61C930.47,964.46,928.67,964.59,926.87,964.59z"/><path fill="#060606" d="M903.8,907.91c2.04,4.35,6.14,6.76,9.17,5.37c3.03-1.42,3.87-6.1,1.87-10.45
										c-2.03-4.39-6.14-6.8-9.17-5.37C902.65,898.84,901.81,903.52,903.8,907.91z"/><path fill="#060606" d="M949.66,886.05c2.04,4.35,6.14,6.76,9.17,5.37c3.03-1.42,3.87-6.1,1.87-10.45
										c-2.03-4.39-6.14-6.8-9.17-5.37C948.51,876.99,947.67,881.66,949.66,886.05z"/><path fill="#060606" d="M981.45,816.55c-1.23,9.85-5.13,19.42-11.55,26.96c-6.88,8.09-16.76,13.71-27.32,14.92
										c-10.53,1.21-21.64-2.19-29.32-9.54c-1.54,12.07-10.2,22.98-21.61,27.18c-11.41,4.2-27.56,3.24-36.53-4.99
										c0.71,11.03,1.45,22.05,2.17,33.05c0.3,4.55-11.17,25.4-19.53,17.94c-0.22-0.19,2.12-4.64-21.77-8.92
										c-21.78-3.89,12.29,31.21,7.76,34.06c-57.76,17.22-90.54-45.67-58.72-53.4c0,0-28.77-26.91-15.52-69.91
										c7.82-25.34,31.16-34.67,48.98-38.04c5.98-13.77,16.79-25.51,30.31-32.09c14.78-7.21,31.65-8.36,48.05-9.41
										c7.41-0.47,14.78-0.93,22.19-1.4c5.29-0.33,10.61-0.66,15.91-0.41c19.61,0.96,38.7,10.39,51.34,25.45
										C977.5,781.36,983.62,799.24,981.45,816.55z"/><circle cx="815.93" cy="917.4" r="24.91" fill="#ffc1a4"/><g><path fill="#fff" d="M946.68,844.12c-1.61,0-2.98-1.21-3.16-2.84c-0.19-1.75,1.07-3.32,2.82-3.51
								c5.23-0.57,10.08-3.53,12.98-7.91c2.9-4.38,3.73-10,2.22-15.04c-0.51-1.69,0.45-3.46,2.13-3.97
								c1.68-0.51,3.46,0.45,3.97,2.13c2.05,6.83,0.93,14.45-3.01,20.39c-3.94,5.94-10.52,9.96-17.6,10.73
								C946.91,844.12,946.8,844.12,946.68,844.12z"/></g><g><path fill="#fff" d="M872.34,867.24c-0.49,0-0.98-0.01-1.48-0.03c-1.76-0.07-3.13-1.55-3.06-3.31
								c0.07-1.76,1.61-3.09,3.31-3.06c11.5,0.49,23.03-5.44,29.39-15.02c0.97-1.46,2.95-1.86,4.42-0.89
								c1.46,0.97,1.86,2.95,0.89,4.42C898.52,860.33,885.5,867.24,872.34,867.24z"/></g><g><path fill="#fff" d="M767.41,858.54c-1.07,0-2.12-0.54-2.72-1.52c-5.33-8.67-6.81-19.68-3.95-29.45
								c2.85-9.77,10.03-18.26,19.19-22.7c1.59-0.76,3.49-0.1,4.26,1.48c0.77,1.58,0.1,3.49-1.48,4.26
								c-7.57,3.67-13.49,10.68-15.85,18.75c-2.36,8.07-1.14,17.17,3.27,24.33c0.92,1.5,0.45,3.46-1.05,4.38
								C768.56,858.38,767.98,858.54,767.41,858.54z"/></g><g><path fill="#fff" d="M833.09,776.54c-1.07,0-2.12-0.54-2.72-1.53c-0.92-1.5-0.44-3.46,1.06-4.38
								c23.46-14.31,53.25-18.34,79.67-10.77c1.69,0.49,2.67,2.25,2.18,3.94c-0.49,1.69-2.25,2.66-3.94,2.18
								c-24.74-7.09-52.63-3.32-74.59,10.08C834.22,776.39,833.65,776.54,833.09,776.54z"/></g><g><path fill="#ffc1a4" d="M828.72,1404.79l-3.76,99.51l-202.67-26.57c-44.84-9.78-73.25-54.07-63.47-98.88l44.52-203.82
									l133.26,64.54l-35.94,118.01L828.72,1404.79z"/><path fill="#4a4ddc" d="M695.98,1066.1L695.98,1066.1c-41.39,1.23-77.06,29.49-87.71,69.51l-27.09,101.82l150.67,40.22
									l34.88-216.67L695.98,1066.1z"/><path fill="#fff" d="M705.31,1242.76c-0.28,0-0.57-0.04-0.86-0.12l-82.71-23c-1.7-0.47-2.69-2.23-2.22-3.92
									c0.47-1.7,2.23-2.69,3.92-2.21l82.71,23c1.7,0.47,2.69,2.23,2.22,3.92C707.98,1241.84,706.7,1242.76,705.31,1242.76z"/><path fill="#fff" d="M731.86,1280.83c-0.17,0-0.34-0.01-0.51-0.04c-1.74-0.28-2.92-1.91-2.64-3.65l21.34-132.57
									c0.28-1.74,1.89-2.93,3.65-2.64c1.74,0.28,2.92,1.91,2.64,3.65L735,1278.15C734.75,1279.72,733.39,1280.83,731.86,1280.83z"/><polygon fill="#f7b094" points="719.75 1274.41 583.55 1265.62 589.24 1239.58"/><path fill="#ffc1a4" d="M828.72,1404.79l79.43-25.44c6.4-4.71,15.41-3.33,20.13,3.07c3.87,5.28,3.63,12.36-0.25,17.36
										c-0.63,0.8-1.36,1.6-2.2,2.28l-28.22,17.18l43.34,8.42c9.51,1.85,15.94,10.79,14.66,20.4l0,0
										c-1.33,3.97-4.86,6.65-8.86,7.02c5.37,2.14,8.71,7.75,7.76,13.74c-0.37,2.18-1.24,4.11-2.48,5.7
										c-2.14,2.75-5.35,4.52-8.81,4.84c5.69,2.98,8.9,9.47,7.45,16c-0.48,2.17-1.44,4.16-2.73,5.81
										c-3.28,4.21-8.74,6.46-14.3,5.37c-0.81-0.16-1.29-0.26-1.29-0.26c17.11,7.03,2.84,27.25-7.32,23.43l-103.7-26.31
										L828.72,1404.79z"/><path fill="#060606" d="M940.95,1430.84c-0.2,0-0.41-0.02-0.61-0.06l-43.34-8.42c-1.29-0.25-2.29-1.27-2.53-2.57
										c-0.23-1.29,0.36-2.6,1.48-3.28l28.02-17.06c0.53-0.44,1.04-0.99,1.54-1.63c3.06-3.94,3.14-9.5,0.2-13.52
										c-3.66-4.98-10.69-6.05-15.67-2.39c-1.42,1.05-3.41,0.74-4.45-0.68c-1.04-1.42-0.74-3.41,0.68-4.45
										c7.8-5.75,18.83-4.06,24.58,3.75c4.63,6.31,4.5,15.03-0.3,21.2c-0.84,1.08-1.75,2.03-2.71,2.8
										c-0.11,0.09-0.23,0.17-0.34,0.24l-21.19,12.9l35.26,6.85c1.73,0.34,2.85,2.01,2.52,3.73
										C943.77,1429.78,942.44,1430.84,940.95,1430.84z"/><path fill="#060606" d="M927.65,1533.36c-1.25,0-2.51-0.21-3.74-0.68l-44.42-13.05c-1.69-0.5-2.65-2.27-2.16-3.95
										c0.5-1.69,2.29-2.65,3.95-2.16l44.64,13.12c3.61,1.35,8.62-2.04,10.53-6.89c1.06-2.68,1.77-7.62-5.32-10.53
										c-1.52-0.62-2.31-2.3-1.84-3.87c0.48-1.57,2.08-2.53,3.68-2.2l1.28,0.26c4.22,0.82,8.51-0.79,11.17-4.2
										c1.03-1.33,1.77-2.9,2.13-4.54c1.11-4.99-1.29-10.12-5.82-12.5c-1.25-0.65-1.92-2.05-1.65-3.44
										c0.27-1.38,1.42-2.42,2.83-2.55c2.58-0.24,4.98-1.56,6.58-3.62c0.95-1.21,1.58-2.69,1.85-4.27
										c0.69-4.38-1.69-8.61-5.8-10.25c-1.37-0.55-2.18-1.96-1.97-3.41c0.21-1.46,1.39-2.58,2.86-2.71
										c2.73-0.25,5.07-2.04,6.04-4.59c0.88-7.8-4.41-15.03-12.15-16.53c-1.73-0.34-2.85-2.01-2.52-3.73
										c0.33-1.73,1.99-2.86,3.73-2.52c11.15,2.17,18.71,12.69,17.21,23.95c-0.03,0.2-0.07,0.4-0.14,0.59
										c-0.95,2.82-2.77,5.19-5.11,6.82c3.31,3.48,4.93,8.38,4.14,13.43c-0.44,2.65-1.52,5.11-3.11,7.16
										c-1.3,1.67-2.92,3.06-4.74,4.08c3.63,4.15,5.22,9.88,3.98,15.49c-0.56,2.56-1.71,5.01-3.32,7.08
										c-2.37,3.05-5.57,5.17-9.11,6.19c2.73,4.11,2.54,8.96,1.04,12.79C940.02,1528.1,933.88,1533.36,927.65,1533.36z
										 M955.6,1448.05h0.04H955.6z"/><path fill="#060606" d="M932.35,1509.46c-0.33,0-0.66-0.05-1-0.16l-37.69-12.39c-1.67-0.55-2.58-2.35-2.03-4.02
										c0.55-1.67,2.34-2.58,4.02-2.03l37.69,12.39c1.67,0.55,2.58,2.35,2.03,4.02C934.94,1508.61,933.69,1509.46,932.35,1509.46z
										"/><path fill="#060606" d="M943.22,1482.53c-0.24,0-0.48-0.03-0.72-0.08l-30.3-7c-1.72-0.4-2.78-2.11-2.39-3.82
										c0.39-1.72,2.12-2.77,3.82-2.39l30.3,7c1.72,0.4,2.78,2.11,2.39,3.82C945.98,1481.53,944.67,1482.53,943.22,1482.53z"/><path fill="#060606" d="M946.74,1458.26c-0.22,0-0.44-0.02-0.66-0.07l-25.88-5.44c-1.72-0.36-2.82-2.05-2.46-3.77
										c0.36-1.72,2.03-2.83,3.77-2.46l25.88,5.44c1.72,0.36,2.82,2.05,2.46,3.77C949.54,1457.23,948.21,1458.26,946.74,1458.26z"/></g><g><path fill="#ffc1a4" d="M1239.71,941.17l24.76-97.53c-1.61-7,1.53-14.19,7.65-17.86c1.63-0.94,3.28-1.57,4.96-1.92
													c7.72-1.73,15.96,2.29,19.03,10.2l12.16,31.34c0,0,59.9-86.39,72.18-76.35c25.59,20.89-21.5,73.8-21.5,73.8l0.12,0.01
													c0.28-0.02,0.79,0,1.5,0.04l0.04,0c4.4,0.5,16.37,3.7,14.59,23.44c0,0,27.87-1.75,23.49,25.53
													c0,0,25.69,4.46,14.98,26.58c-0.35,0.57-0.65,1.15-1.01,1.84c-3.53,6.34-41.45,61.78-60.18,82.18"/><path fill="#060606" d="M1254.39,886.54c-0.26,0-0.52-0.03-0.79-0.1c-1.7-0.43-2.74-2.17-2.3-3.87l9.9-39
													c-1.52-8.07,2.14-16.24,9.28-20.52c1.92-1.12,3.91-1.88,5.96-2.31c9.54-2.14,19.08,2.97,22.64,12.16l10,25.79
													c12.55-17.7,51.74-71.31,67.67-73.55c2.77-0.39,4.64,0.57,5.71,1.44c5.21,4.25,8.13,9.95,8.69,16.92
													c2.02,25.36-28.53,60-29.83,61.46c-1.17,1.32-3.18,1.43-4.49,0.26c-1.32-1.17-1.43-3.18-0.26-4.5
													c0.3-0.34,30.04-34.07,28.23-56.73c-0.42-5.25-2.5-9.33-6.37-12.49c-0.17-0.14-0.61-0.09-0.79-0.07
													c-11.48,1.61-47.04,47.32-66.75,75.76c-0.67,0.97-1.78,1.48-2.99,1.35c-1.17-0.14-2.17-0.91-2.59-2.01l-12.16-31.34
													c-2.42-6.23-8.89-9.69-15.37-8.24c-1.44,0.3-2.75,0.81-4.06,1.56c-4.95,2.97-7.43,8.76-6.14,14.39
													c0.11,0.49,0.11,1.01-0.02,1.5l-10.08,39.72C1257.11,885.58,1255.81,886.54,1254.39,886.54z"/><path fill="#ffc1a4" d="M1329.25,895.86c-1.84,4-5.43,14.22,2.41,19.84c7.14,5.16,17.92,3.76,23.31,2.59l2.01,1.76
													c-1.14,2.88-2.19,7.94,0.97,13.51c4.77,8.44,18.71,4.78,19.69,4.54c-0.41,0.9-7.38,16.08,7.05,20.87
													c8.65,2.89,31.78-12.68,32.19-34.84c0.41-22.19-20.29-18.92-20.29-18.92s3.16-10.01-0.4-17.05
													c-3.59-7.08-16.3-8.19-16.3-8.19s5.28-12.65-2.03-19.82c-7.02-6.88-16.07-2.7-16.78-2.37"/><path fill="#060606" d="M1356.06,931.54c-1.53,0-2.87-1.1-3.14-2.65c-0.44-2.61-0.26-4.99,0.18-6.99
													c-6.34,1.06-16.22,1.54-23.32-3.61c-9.63-6.98-5.81-19.85-2.44-25.68c0.88-1.52,2.81-2.04,4.34-1.17
													c1.52,0.87,2.05,2.82,1.18,4.35c-0.28,0.49-6.73,11.99,0.65,17.34c8.41,6.09,23.69,1.31,23.84,1.26
													c1.31-0.42,2.74,0.05,3.55,1.16c0.81,1.11,0.81,2.61,0.01,3.73c-0.01,0.02-2.54,3.73-1.72,8.54
													c0.3,1.73-0.87,3.38-2.61,3.67C1356.41,931.52,1356.24,931.54,1356.06,931.54z"/><path fill="#060606" d="M1384.68,962.17c-0.33,0-0.67-0.05-1.01-0.16c-4.97-1.66-8.36-4.56-10.07-8.65
													c-3.18-7.61,1.03-16.33,1.22-16.7c0.78-1.58,2.69-2.23,4.27-1.45c1.58,0.78,2.23,2.69,1.45,4.26
													c-0.03,0.06-3.12,6.53-1.05,11.45c0.98,2.33,3.01,3.98,6.19,5.04c1.67,0.55,2.57,2.36,2.02,4.03
													C1387.26,961.33,1386.02,962.17,1384.68,962.17z"/><path fill="#060606" d="M1387.01,962.51c-1.21,0-2.33-0.17-3.34-0.5c-1.67-0.55-2.57-2.36-2.02-4.03s2.36-2.57,4.03-2.02
													c2.02,0.66,6.7-0.4,12.26-4.33c7.45-5.27,15.5-15.28,15.73-27.57c0.11-5.75-1.34-9.99-4.3-12.58
													c-4.77-4.19-12.22-3.12-12.29-3.11c-1.11,0.16-2.18-0.24-2.9-1.08c-0.71-0.83-0.96-1.97-0.63-3.02
													c0.02-0.09,2.7-8.89-0.23-14.69c-2.26-4.46-10.66-6.15-13.71-6.43c-1.01-0.09-1.92-0.66-2.44-1.53
													c-0.53-0.87-0.61-1.93-0.22-2.87c0.04-0.1,4.32-10.78-1.34-16.35c-5.61-5.52-13.06-1.82-13.14-1.78
													c-1.57,0.8-3.49,0.17-4.28-1.4c-0.8-1.57-0.17-3.49,1.4-4.28c0.47-0.24,11.66-5.77,20.49,2.92
													c6.07,5.96,5.16,14.61,3.95,19.53c4.63,0.97,12,3.4,14.98,9.31c2.55,5.05,2.23,11.17,1.58,15.18
													c3.63,0.17,8.79,1.14,12.94,4.75c4.47,3.89,6.66,9.79,6.51,17.54c-0.28,14.67-9.7,26.49-18.42,32.65
													C1396.42,960.52,1391.2,962.51,1387.01,962.51z"/><path fill="#060606" d="M1362.32,907.42c-0.8,0-1.59-0.3-2.21-0.89c-1.27-1.22-1.3-3.24-0.08-4.5
													c6.37-6.61,17.07-23.56,17.18-23.73c0.94-1.49,2.9-1.93,4.39-1c1.49,0.94,1.94,2.9,1,4.39
													c-0.45,0.72-11.15,17.68-17.98,24.76C1363.99,907.09,1363.15,907.42,1362.32,907.42z"/><path fill="#060606" d="M1342.49,883.22c-1.03,0-2.04-0.5-2.65-1.42c-0.98-1.46-0.59-3.44,0.88-4.42
													c5.53-3.7,14.62-16.64,17.65-21.32c0.96-1.47,2.93-1.9,4.41-0.94c1.48,0.96,1.9,2.93,0.94,4.41
													c-0.48,0.73-11.71,17.96-19.46,23.14C1343.71,883.04,1343.09,883.22,1342.49,883.22z"/></g></g><g><path fill="#fff" d="M679,739.13v168.31c0,35.68-24.25,65.69-57.17,74.41c-4.61,1.22-8.55,4.24-10.68,8.51l-11.88,23.75
						c-4.91,9.82-17.94,12.05-25.83,4.43l-30.6-29.53c-3.03-2.92-7.08-4.56-11.29-4.56H384.2c-42.53,0-77.01-34.48-77.01-77.01
						V739.14c0-42.53,34.48-77.01,77.01-77.01h217.79C644.52,662.13,679,696.6,679,739.13z"/><path fill="#060f11" d="M584.64,1026.29c-4.99,0-9.75-1.91-13.43-5.46l-30.6-29.52c-2.45-2.37-5.67-3.67-9.08-3.67H384.2
						c-44.22,0-80.19-35.97-80.19-80.19V739.13c0-44.22,35.98-80.19,80.19-80.19h217.79c44.22,0,80.19,35.97,80.19,80.19v168.31
						c0,36.34-24.49,68.2-59.54,77.49c-3.83,1.01-6.98,3.51-8.65,6.85l-11.88,23.75c-2.8,5.6-7.94,9.41-14.11,10.47
						C586.88,1026.19,585.75,1026.29,584.64,1026.29z M384.2,665.31c-40.71,0-73.82,33.11-73.82,73.82v168.31
						c0,40.7,33.11,73.82,73.82,73.82h147.34c5.06,0,9.86,1.94,13.5,5.45l30.6,29.52c3.03,2.92,7.14,4.19,11.28,3.48
						c4.15-0.71,7.6-3.27,9.49-7.04l11.88-23.75c2.49-4.98,7.13-8.68,12.72-10.16c32.27-8.55,54.8-37.88,54.8-71.33V739.13
						c0-40.71-33.11-73.82-73.82-73.82H384.2z"/></g><g><path fill="#00c09a" d="M1865.58,2036.57c0,0,47.75-17.05,77.47-48.95c29.71-31.9,105.31-101.06,60.24-126.83
							c-45.07-25.76-133.81,72.82-144.37,119.84C1847.85,2029.91,1865.58,2036.57,1865.58,2036.57z"/><path fill="#141323" d="M1839.68,2112.12l-3.55-0.82c0.3-1.29,31-130.05,128.93-210.26l2.3,2.82
						C1870.39,1983.29,1839.98,2110.84,1839.68,2112.12z"/><path fill="#141323" d="M1939.49,1944.01c-4.44,0-8.88-0.71-13.11-2.13l1.16-3.45c7.62,2.56,16.03,2.59,23.66,0.08l1.14,3.46
						C1948.2,1943.33,1943.84,1944.01,1939.49,1944.01z"/><path fill="#141323" d="M1929.57,1972.52c-7.66,0-15.41-1.35-22.58-3.96l1.24-3.42c7.68,2.79,16.05,4.06,24.22,3.67l0.17,3.64
						C1931.61,1972.5,1930.59,1972.52,1929.57,1972.52z"/><path fill="#141323" d="M1889.74,1991.35c-5.05-6.02-7.85-13.97-7.7-21.83l3.64,0.07c-0.14,6.98,2.36,14.06,6.85,19.42
						L1889.74,1991.35z"/><path fill="#141323" d="M1915.26,1955.05c-6.42-5.54-9.65-14.52-8.23-22.88l3.59,0.61c-1.22,7.13,1.54,14.79,7.01,19.51
						L1915.26,1955.05z"/></g><g><path fill="#00c09a" d="M1810.12,2000.43c0,0-50.81-27.88-78.57-69.26s-100.57-133.11-45.05-154.03
							c55.52-20.92,137.84,106.39,141.25,161.36C1831.33,1996.12,1810.12,2000.43,1810.12,2000.43z"/><path fill="#141323" d="M1825.94,2090.36c-0.1-1.5-11.38-151.07-106.49-258.29l2.72-2.42c95.95,108.17,107.29,258.95,107.4,260.46
						L1825.94,2090.36z"/><path fill="#141323" d="M1750.96,1882.93c-7.45,0-14.89-1.78-21.52-5.21l1.67-3.24c8.21,4.25,17.76,5.74,26.88,4.22l0.6,3.59
						C1756.06,1882.72,1753.51,1882.93,1750.96,1882.93z"/><path fill="#141323" d="M1761.49,1917.26c-5.18,0-10.36-0.53-15.39-1.58l0.75-3.56c9.17,1.92,18.89,2.01,28.09,0.23l0.69,3.58
						C1771,1916.82,1766.24,1917.26,1761.49,1917.26z"/><path fill="#141323" d="M1790.86,1944.83l-2.38-2.75c6.08-5.27,10.21-12.86,11.33-20.83l3.61,0.5
						C1802.17,1930.58,1797.6,1938.99,1790.86,1944.83z"/><path fill="#141323" d="M1768.66,1899.21l-1.91-3.1c7.11-4.39,11.65-12.62,11.57-20.97l3.64-0.04
						C1782.05,1884.71,1776.83,1894.17,1768.66,1899.21z"/></g><g><path fill="#00c09a" d="M439.64,928.31h-48.28c-2.57,0-4.65-2.08-4.65-4.65V865.5c0-2.57,2.08-4.65,4.65-4.65h48.28
				c2.57,0,4.65,2.08,4.65,4.65v58.16C444.29,926.23,442.21,928.31,439.64,928.31z"/><path fill="#060f11" d="M427.35,931.5h-23.7c-11.1,0-20.13-9.03-20.13-20.13v-33.58c0-11.1,9.03-20.13,20.13-20.13h23.7
				c11.1,0,20.13,9.03,20.13,20.13v33.58C447.48,922.47,438.45,931.5,427.35,931.5z M403.64,864.03c-7.59,0-13.76,6.17-13.76,13.76
				v33.58c0,7.59,6.17,13.76,13.76,13.76h23.7c7.59,0,13.76-6.17,13.76-13.76v-33.58c0-7.59-6.17-13.76-13.76-13.76H403.64z"/></g><g><path fill="#ffd400" d="M519.31,928.31h-48.28c-2.57,0-4.65-2.08-4.65-4.65v-91.88c0-2.57,2.08-4.65,4.65-4.65h48.28
				c2.57,0,4.65,2.08,4.65,4.65v91.88C523.96,926.23,521.88,928.31,519.31,928.31z"/><path fill="#060f11" d="M507.02,931.5h-23.7c-11.1,0-20.13-9.03-20.13-20.13v-67.3c0-11.1,9.03-20.13,20.13-20.13h23.7
				c11.1,0,20.13,9.03,20.13,20.13v67.3C527.15,922.47,518.12,931.5,507.02,931.5z M483.32,830.31c-7.59,0-13.76,6.17-13.76,13.76
				v67.3c0,7.59,6.17,13.76,13.76,13.76h23.7c7.59,0,13.76-6.17,13.76-13.76v-67.3c0-7.59-6.17-13.76-13.76-13.76H483.32z"/></g><g><path fill="#ff452d" d="M598.98,928.31H550.7c-2.57,0-4.65-2.08-4.65-4.65V779.61c0-2.57,2.08-4.65,4.65-4.65h48.28
				c2.57,0,4.65,2.08,4.65,4.65v144.05C603.63,926.23,601.55,928.31,598.98,928.31z"/><path fill="#060f11" d="M586.69,931.5h-23.7c-11.1,0-20.13-9.03-20.13-20.13V791.9c0-11.1,9.03-20.13,20.13-20.13h23.7
				c11.1,0,20.13,9.03,20.13,20.13v119.47C606.82,922.47,597.79,931.5,586.69,931.5z M562.99,778.14c-7.59,0-13.76,6.17-13.76,13.76
				v119.47c0,7.59,6.17,13.76,13.76,13.76h23.7c7.59,0,13.76-6.17,13.76-13.76V791.9c0-7.59-6.17-13.76-13.76-13.76H562.99z"/></g><g><path fill="#060f11" d="M384.66,824.74c-0.72,0-1.42,0-2.14-0.01c-1.76-0.02-3.17-1.46-3.15-3.22c0.02-1.76,1.34-3.09,3.22-3.15
				c72.62,0.79,140.13-41.31,171.95-80.74c1.1-1.37,3.11-1.58,4.48-0.48c1.37,1.11,1.58,3.11,0.48,4.48
				C525.97,783.17,459.08,824.74,384.66,824.74z"/></g><g><path fill="#060f11" d="M555.17,750.96l-11.56-11.59c-5.56-5.57-2.43-15.1,5.35-16.29l13.68-2.09c6.42-0.98,11.95,4.56,10.95,10.97
				l-2.12,13.68C570.26,753.43,560.73,756.54,555.17,750.96z"/></g></svg>